solid y-bracket
facet normal 1.0 0.0 0.0
  outer loop
    vertex 10.0 33.0 0.0
    vertex 10.0 30.0 6.0
    vertex 10.0 30.0 0.0
  endloop
endfacet
facet normal 1.0 0.0 0.0
  outer loop
    vertex 10.0 30.0 6.0
    vertex 10.0 33.0 0.0
    vertex 10.0 33.0 6.0
  endloop
endfacet
facet normal -0.0 1.0 0.0
  outer loop
    vertex 0.0 33.0 6.0
    vertex 10.0 33.0 0.0
    vertex 0.0 33.0 0.0
  endloop
endfacet
facet normal -0.0 1.0 0.0
  outer loop
    vertex 10.0 33.0 0.0
    vertex 0.0 33.0 6.0
    vertex 10.0 33.0 6.0
  endloop
endfacet
facet normal -0.0 1.0 0.0
  outer loop
    vertex 10.0 30.0 6.0
    vertex 20.000000000000004 30.0 0.0
    vertex 10.0 30.0 0.0
  endloop
endfacet
facet normal -0.0 1.0 0.0
  outer loop
    vertex 20.000000000000004 30.0 0.0
    vertex 10.0 30.0 6.0
    vertex 20.000000000000004 30.0 6.0
  endloop
endfacet
facet normal -0.0 -1.0 -0.0
  outer loop
    vertex 20.000000000000014 20.3 6.0
    vertex 10.000000000000004 20.3 -7.049916206369744e-16
    vertex 20.000000000000014 20.3 -7.049916206369744e-16
  endloop
endfacet
facet normal -0.0 -1.0 -0.0
  outer loop
    vertex 10.000000000000004 20.3 -7.049916206369744e-16
    vertex 20.000000000000014 20.3 6.0
    vertex 10.000000000000004 20.3 6.0
  endloop
endfacet
facet normal 1.0 0.0 0.0
  outer loop
    vertex 10.000000000000004 20.3 -7.049916206369744e-16
    vertex 10.000000000000004 14.0 6.0
    vertex 10.000000000000004 14.0 -7.049916206369744e-16
  endloop
endfacet
facet normal 1.0 0.0 0.0
  outer loop
    vertex 10.000000000000004 14.0 6.0
    vertex 10.000000000000004 20.3 -7.049916206369744e-16
    vertex 10.000000000000004 20.3 6.0
  endloop
endfacet
facet normal -0.130526192220052 0.9914448613738105 0.0
  outer loop
    vertex 6.0 4.000000000000001 6.0
    vertex 6.517638090205041 4.0681483474218645 0.0
    vertex 6.0 4.000000000000001 0.0
  endloop
endfacet
facet normal -0.130526192220052 0.9914448613738105 0.0
  outer loop
    vertex 6.517638090205041 4.0681483474218645 0.0
    vertex 6.0 4.000000000000001 6.0
    vertex 6.517638090205041 4.0681483474218645 6.0
  endloop
endfacet
facet normal -0.6087614290087201 0.7933533402912358 0.0
  outer loop
    vertex 6.999999999999998 4.267949192431123 6.0
    vertex 7.414213562373095 4.585786437626906 0.0
    vertex 6.999999999999998 4.267949192431123 0.0
  endloop
endfacet
facet normal -0.6087614290087201 0.7933533402912358 0.0
  outer loop
    vertex 7.414213562373095 4.585786437626906 0.0
    vertex 6.999999999999998 4.267949192431123 6.0
    vertex 7.414213562373095 4.585786437626906 6.0
  endloop
endfacet
facet normal -0.7933533402912356 0.6087614290087203 0.0
  outer loop
    vertex 7.732050807568876 5.0 6.0
    vertex 7.414213562373095 4.585786437626906 0.0
    vertex 7.414213562373095 4.585786437626906 6.0
  endloop
endfacet
facet normal -0.7933533402912356 0.6087614290087203 0.0
  outer loop
    vertex 7.414213562373095 4.585786437626906 0.0
    vertex 7.732050807568876 5.0 6.0
    vertex 7.732050807568876 5.0 0.0
  endloop
endfacet
facet normal 0.13052619222005163 0.9914448613738104 0.0
  outer loop
    vertex 5.482361909794958 4.0681483474218645 6.0
    vertex 6.0 4.000000000000001 0.0
    vertex 5.482361909794958 4.0681483474218645 0.0
  endloop
endfacet
facet normal 0.13052619222005163 0.9914448613738104 0.0
  outer loop
    vertex 6.0 4.000000000000001 0.0
    vertex 5.482361909794958 4.0681483474218645 6.0
    vertex 6.0 4.000000000000001 6.0
  endloop
endfacet
facet normal 0.6087614290087213 0.7933533402912347 0.0
  outer loop
    vertex 4.585786437626905 4.585786437626907 6.0
    vertex 5.0 4.267949192431124 0.0
    vertex 4.585786437626905 4.585786437626907 0.0
  endloop
endfacet
facet normal 0.6087614290087213 0.7933533402912347 0.0
  outer loop
    vertex 5.0 4.267949192431124 0.0
    vertex 4.585786437626905 4.585786437626907 6.0
    vertex 5.0 4.267949192431124 6.0
  endloop
endfacet
facet normal 0.3826834323650906 0.9238795325112864 0.0
  outer loop
    vertex 5.0 4.267949192431124 6.0
    vertex 5.482361909794958 4.0681483474218645 0.0
    vertex 5.0 4.267949192431124 0.0
  endloop
endfacet
facet normal 0.3826834323650906 0.9238795325112864 0.0
  outer loop
    vertex 5.482361909794958 4.0681483474218645 0.0
    vertex 5.0 4.267949192431124 6.0
    vertex 5.482361909794958 4.0681483474218645 6.0
  endloop
endfacet
facet normal -0.9238795325112859 0.3826834323650917 0.0
  outer loop
    vertex 7.9318516525781355 5.482361909794958 6.0
    vertex 7.732050807568876 5.0 0.0
    vertex 7.732050807568876 5.0 6.0
  endloop
endfacet
facet normal -0.9238795325112859 0.3826834323650917 0.0
  outer loop
    vertex 7.732050807568876 5.0 0.0
    vertex 7.9318516525781355 5.482361909794958 6.0
    vertex 7.9318516525781355 5.482361909794958 0.0
  endloop
endfacet
facet normal -0.9914448613738104 -0.1305261922200518 -0.0
  outer loop
    vertex 7.9318516525781355 6.5176380902050415 6.0
    vertex 7.999999999999999 6.0 0.0
    vertex 7.999999999999999 6.0 6.0
  endloop
endfacet
facet normal -0.9914448613738104 -0.1305261922200518 -0.0
  outer loop
    vertex 7.999999999999999 6.0 0.0
    vertex 7.9318516525781355 6.5176380902050415 6.0
    vertex 7.9318516525781355 6.5176380902050415 0.0
  endloop
endfacet
facet normal 0.9914448613738104 -0.1305261922200518 0.0
  outer loop
    vertex 4.0681483474218645 6.5176380902050415 0.0
    vertex 4.000000000000001 6.0 6.0
    vertex 4.000000000000001 6.0 0.0
  endloop
endfacet
facet normal 0.9914448613738104 -0.1305261922200518 0.0
  outer loop
    vertex 4.000000000000001 6.0 6.0
    vertex 4.0681483474218645 6.5176380902050415 0.0
    vertex 4.0681483474218645 6.5176380902050415 6.0
  endloop
endfacet
facet normal -0.9914448613738105 0.13052619222005143 0.0
  outer loop
    vertex 7.999999999999999 6.0 6.0
    vertex 7.9318516525781355 5.482361909794958 0.0
    vertex 7.9318516525781355 5.482361909794958 6.0
  endloop
endfacet
facet normal -0.9914448613738105 0.13052619222005143 0.0
  outer loop
    vertex 7.9318516525781355 5.482361909794958 0.0
    vertex 7.999999999999999 6.0 6.0
    vertex 7.999999999999999 6.0 0.0
  endloop
endfacet
facet normal 0.6087614290087188 0.7933533402912367 0.0
  outer loop
    vertex 22.585786437626904 4.585786437626904 6.0
    vertex 23.0 4.267949192431122 0.0
    vertex 22.585786437626904 4.585786437626904 0.0
  endloop
endfacet
facet normal 0.6087614290087188 0.7933533402912367 0.0
  outer loop
    vertex 23.0 4.267949192431122 0.0
    vertex 22.585786437626904 4.585786437626904 6.0
    vertex 23.0 4.267949192431122 6.0
  endloop
endfacet
facet normal 0.9238795325112863 -0.3826834323650914 0.0
  outer loop
    vertex 22.26794919243112 7.000000000000001 0.0
    vertex 22.06814834742186 6.517638090205043 6.0
    vertex 22.06814834742186 6.517638090205043 0.0
  endloop
endfacet
facet normal 0.9238795325112863 -0.3826834323650914 0.0
  outer loop
    vertex 22.06814834742186 6.517638090205043 6.0
    vertex 22.26794919243112 7.000000000000001 0.0
    vertex 22.26794919243112 7.000000000000001 6.0
  endloop
endfacet
facet normal -0.9238795325112871 -0.38268343236508895 -0.0
  outer loop
    vertex 7.732050807568878 7.0 6.0
    vertex 7.9318516525781355 6.5176380902050415 0.0
    vertex 7.9318516525781355 6.5176380902050415 6.0
  endloop
endfacet
facet normal -0.9238795325112871 -0.38268343236508895 -0.0
  outer loop
    vertex 7.9318516525781355 6.5176380902050415 0.0
    vertex 7.732050807568878 7.0 6.0
    vertex 7.732050807568878 7.0 0.0
  endloop
endfacet
facet normal 0.9238795325112871 0.38268343236508895 0.0
  outer loop
    vertex 4.0681483474218645 5.482361909794959 0.0
    vertex 4.267949192431123 5.000000000000002 6.0
    vertex 4.267949192431123 5.000000000000002 0.0
  endloop
endfacet
facet normal 0.9238795325112871 0.38268343236508895 0.0
  outer loop
    vertex 4.267949192431123 5.000000000000002 6.0
    vertex 4.0681483474218645 5.482361909794959 0.0
    vertex 4.0681483474218645 5.482361909794959 6.0
  endloop
endfacet
facet normal -0.7933533402912347 -0.6087614290087213 -0.0
  outer loop
    vertex 7.414213562373095 7.414213562373095 6.0
    vertex 7.732050807568878 7.0 0.0
    vertex 7.732050807568878 7.0 6.0
  endloop
endfacet
facet normal -0.7933533402912347 -0.6087614290087213 -0.0
  outer loop
    vertex 7.732050807568878 7.0 0.0
    vertex 7.414213562373095 7.414213562373095 6.0
    vertex 7.414213562373095 7.414213562373095 0.0
  endloop
endfacet
facet normal -0.38268343236508895 0.9238795325112871 0.0
  outer loop
    vertex 6.517638090205041 4.0681483474218645 6.0
    vertex 6.999999999999998 4.267949192431123 0.0
    vertex 6.517638090205041 4.0681483474218645 0.0
  endloop
endfacet
facet normal -0.38268343236508895 0.9238795325112871 0.0
  outer loop
    vertex 6.999999999999998 4.267949192431123 0.0
    vertex 6.517638090205041 4.0681483474218645 6.0
    vertex 6.999999999999998 4.267949192431123 6.0
  endloop
endfacet
facet normal 0.9238795325112863 0.38268343236509084 0.0
  outer loop
    vertex 22.06814834742186 5.482361909794959 0.0
    vertex 22.26794919243112 5.0 6.0
    vertex 22.26794919243112 5.0 0.0
  endloop
endfacet
facet normal 0.9238795325112863 0.38268343236509084 0.0
  outer loop
    vertex 22.26794919243112 5.0 6.0
    vertex 22.06814834742186 5.482361909794959 0.0
    vertex 22.06814834742186 5.482361909794959 6.0
  endloop
endfacet
facet normal 0.7933533402912377 0.6087614290087173 0.0
  outer loop
    vertex 22.26794919243112 5.0 0.0
    vertex 22.585786437626904 4.585786437626904 6.0
    vertex 22.585786437626904 4.585786437626904 0.0
  endloop
endfacet
facet normal 0.7933533402912377 0.6087614290087173 0.0
  outer loop
    vertex 22.585786437626904 4.585786437626904 6.0
    vertex 22.26794919243112 5.0 0.0
    vertex 22.26794919243112 5.0 6.0
  endloop
endfacet
facet normal 0.9914448613738105 -0.13052619222005143 0.0
  outer loop
    vertex 22.06814834742186 6.517638090205043 0.0
    vertex 22.0 6.0 6.0
    vertex 22.0 6.0 0.0
  endloop
endfacet
facet normal 0.9914448613738105 -0.13052619222005143 0.0
  outer loop
    vertex 22.0 6.0 6.0
    vertex 22.06814834742186 6.517638090205043 0.0
    vertex 22.06814834742186 6.517638090205043 6.0
  endloop
endfacet
facet normal 0.9914448613738104 0.1305261922200518 0.0
  outer loop
    vertex 22.0 6.0 0.0
    vertex 22.06814834742186 5.482361909794959 6.0
    vertex 22.06814834742186 5.482361909794959 0.0
  endloop
endfacet
facet normal 0.9914448613738104 0.1305261922200518 0.0
  outer loop
    vertex 22.06814834742186 5.482361909794959 6.0
    vertex 22.0 6.0 0.0
    vertex 22.0 6.0 6.0
  endloop
endfacet
facet normal 0.3826834323650914 0.9238795325112863 0.0
  outer loop
    vertex 23.0 4.267949192431122 6.0
    vertex 23.482361909794957 4.068148347421862 0.0
    vertex 23.0 4.267949192431122 0.0
  endloop
endfacet
facet normal 0.3826834323650914 0.9238795325112863 0.0
  outer loop
    vertex 23.482361909794957 4.068148347421862 0.0
    vertex 23.0 4.267949192431122 6.0
    vertex 23.482361909794957 4.068148347421862 6.0
  endloop
endfacet
facet normal 0.9914448613738105 0.130526192220052 0.0
  outer loop
    vertex 4.000000000000001 6.0 0.0
    vertex 4.0681483474218645 5.482361909794959 6.0
    vertex 4.0681483474218645 5.482361909794959 0.0
  endloop
endfacet
facet normal 0.9914448613738105 0.130526192220052 0.0
  outer loop
    vertex 4.0681483474218645 5.482361909794959 6.0
    vertex 4.000000000000001 6.0 0.0
    vertex 4.000000000000001 6.0 6.0
  endloop
endfacet
facet normal 0.7933533402912354 0.6087614290087205 0.0
  outer loop
    vertex 4.267949192431123 5.000000000000002 0.0
    vertex 4.585786437626905 4.585786437626907 6.0
    vertex 4.585786437626905 4.585786437626907 0.0
  endloop
endfacet
facet normal 0.7933533402912354 0.6087614290087205 0.0
  outer loop
    vertex 4.585786437626905 4.585786437626907 6.0
    vertex 4.267949192431123 5.000000000000002 0.0
    vertex 4.267949192431123 5.000000000000002 6.0
  endloop
endfacet
facet normal -0.0 1.0 -0.0
  outer loop
    vertex 10.000000000000004 14.0 6.0
    vertex 20.000000000000014 14.0 -7.049916206369744e-16
    vertex 10.000000000000004 14.0 -7.049916206369744e-16
  endloop
endfacet
facet normal -0.0 1.0 -0.0
  outer loop
    vertex 20.000000000000014 14.0 -7.049916206369744e-16
    vertex 10.000000000000004 14.0 6.0
    vertex 20.000000000000014 14.0 6.0
  endloop
endfacet
facet normal -1.0 0.0 -0.0
  outer loop
    vertex 20.000000000000014 20.3 6.0
    vertex 20.000000000000014 14.0 -7.049916206369744e-16
    vertex 20.000000000000014 14.0 6.0
  endloop
endfacet
facet normal -1.0 0.0 -0.0
  outer loop
    vertex 20.000000000000014 14.0 -7.049916206369744e-16
    vertex 20.000000000000014 20.3 6.0
    vertex 20.000000000000014 20.3 -7.049916206369744e-16
  endloop
endfacet
facet normal 0.6087614290087207 -0.793353340291235 0.0
  outer loop
    vertex 5.000000000000002 7.732050807568878 6.0
    vertex 4.585786437626906 7.414213562373095 0.0
    vertex 5.000000000000002 7.732050807568878 0.0
  endloop
endfacet
facet normal 0.6087614290087207 -0.793353340291235 0.0
  outer loop
    vertex 4.585786437626906 7.414213562373095 0.0
    vertex 5.000000000000002 7.732050807568878 6.0
    vertex 4.585786437626906 7.414213562373095 6.0
  endloop
endfacet
facet normal 0.1305261922200518 -0.9914448613738104 0.0
  outer loop
    vertex 6.0 7.999999999999999 6.0
    vertex 5.482361909794959 7.9318516525781355 0.0
    vertex 6.0 7.999999999999999 0.0
  endloop
endfacet
facet normal 0.1305261922200518 -0.9914448613738104 0.0
  outer loop
    vertex 5.482361909794959 7.9318516525781355 0.0
    vertex 6.0 7.999999999999999 6.0
    vertex 5.482361909794959 7.9318516525781355 6.0
  endloop
endfacet
facet normal 0.7933533402912344 -0.6087614290087218 0.0
  outer loop
    vertex 4.585786437626906 7.414213562373095 0.0
    vertex 4.267949192431124 7.000000000000001 6.0
    vertex 4.267949192431124 7.000000000000001 0.0
  endloop
endfacet
facet normal 0.7933533402912344 -0.6087614290087218 0.0
  outer loop
    vertex 4.267949192431124 7.000000000000001 6.0
    vertex 4.585786437626906 7.414213562373095 0.0
    vertex 4.585786437626906 7.414213562373095 6.0
  endloop
endfacet
facet normal -0.6087614290087213 -0.7933533402912347 -0.0
  outer loop
    vertex 7.414213562373095 7.414213562373095 6.0
    vertex 7.0 7.732050807568878 0.0
    vertex 7.414213562373095 7.414213562373095 0.0
  endloop
endfacet
facet normal -0.6087614290087213 -0.7933533402912347 -0.0
  outer loop
    vertex 7.0 7.732050807568878 0.0
    vertex 7.414213562373095 7.414213562373095 6.0
    vertex 7.0 7.732050807568878 6.0
  endloop
endfacet
facet normal -0.1305261922200518 -0.9914448613738104 -0.0
  outer loop
    vertex 6.5176380902050415 7.9318516525781355 6.0
    vertex 6.0 7.999999999999999 0.0
    vertex 6.5176380902050415 7.9318516525781355 0.0
  endloop
endfacet
facet normal -0.1305261922200518 -0.9914448613738104 -0.0
  outer loop
    vertex 6.0 7.999999999999999 0.0
    vertex 6.5176380902050415 7.9318516525781355 6.0
    vertex 6.0 7.999999999999999 6.0
  endloop
endfacet
facet normal 0.3826834323650895 -0.923879532511287 0.0
  outer loop
    vertex 5.482361909794959 7.9318516525781355 6.0
    vertex 5.000000000000002 7.732050807568878 0.0
    vertex 5.482361909794959 7.9318516525781355 0.0
  endloop
endfacet
facet normal 0.3826834323650895 -0.923879532511287 0.0
  outer loop
    vertex 5.000000000000002 7.732050807568878 0.0
    vertex 5.482361909794959 7.9318516525781355 6.0
    vertex 5.000000000000002 7.732050807568878 6.0
  endloop
endfacet
facet normal -0.38268343236508895 -0.9238795325112871 -0.0
  outer loop
    vertex 7.0 7.732050807568878 6.0
    vertex 6.5176380902050415 7.9318516525781355 0.0
    vertex 7.0 7.732050807568878 0.0
  endloop
endfacet
facet normal -0.38268343236508895 -0.9238795325112871 -0.0
  outer loop
    vertex 6.5176380902050415 7.9318516525781355 0.0
    vertex 7.0 7.732050807568878 6.0
    vertex 6.5176380902050415 7.9318516525781355 6.0
  endloop
endfacet
facet normal 0.9238795325112871 -0.3826834323650892 0.0
  outer loop
    vertex 4.267949192431124 7.000000000000001 0.0
    vertex 4.0681483474218645 6.5176380902050415 6.0
    vertex 4.0681483474218645 6.5176380902050415 0.0
  endloop
endfacet
facet normal 0.9238795325112871 -0.3826834323650892 0.0
  outer loop
    vertex 4.0681483474218645 6.5176380902050415 6.0
    vertex 4.267949192431124 7.000000000000001 0.0
    vertex 4.267949192431124 7.000000000000001 6.0
  endloop
endfacet
facet normal -0.0 -1.0 -0.0
  outer loop
    vertex 30.0 0.0 6.0
    vertex 0.0 0.0 0.0
    vertex 30.0 0.0 0.0
  endloop
endfacet
facet normal -0.0 -1.0 -0.0
  outer loop
    vertex 0.0 0.0 0.0
    vertex 30.0 0.0 6.0
    vertex 0.0 0.0 6.0
  endloop
endfacet
facet normal 0.13052619222005143 0.9914448613738105 0.0
  outer loop
    vertex 23.482361909794957 4.068148347421862 6.0
    vertex 24.0 3.9999999999999982 0.0
    vertex 23.482361909794957 4.068148347421862 0.0
  endloop
endfacet
facet normal 0.13052619222005143 0.9914448613738105 0.0
  outer loop
    vertex 24.0 3.9999999999999982 0.0
    vertex 23.482361909794957 4.068148347421862 6.0
    vertex 24.0 3.9999999999999982 6.0
  endloop
endfacet
facet normal -0.38268343236508895 0.9238795325112871 0.0
  outer loop
    vertex 24.51763809020504 4.068148347421862 6.0
    vertex 25.0 4.267949192431121 0.0
    vertex 24.51763809020504 4.068148347421862 0.0
  endloop
endfacet
facet normal -0.38268343236508895 0.9238795325112871 0.0
  outer loop
    vertex 25.0 4.267949192431121 0.0
    vertex 24.51763809020504 4.068148347421862 6.0
    vertex 25.0 4.267949192431121 6.0
  endloop
endfacet
facet normal -0.0 1.0 0.0
  outer loop
    vertex 20.000000000000004 33.0 6.0
    vertex 30.0 33.0 0.0
    vertex 20.000000000000004 33.0 0.0
  endloop
endfacet
facet normal -0.0 1.0 0.0
  outer loop
    vertex 30.0 33.0 0.0
    vertex 20.000000000000004 33.0 6.0
    vertex 30.0 33.0 6.0
  endloop
endfacet
facet normal 1.0 0.0 0.0
  outer loop
    vertex 30.0 33.0 0.0
    vertex 30.0 0.0 6.0
    vertex 30.0 0.0 0.0
  endloop
endfacet
facet normal 1.0 0.0 0.0
  outer loop
    vertex 30.0 0.0 6.0
    vertex 30.0 33.0 0.0
    vertex 30.0 33.0 6.0
  endloop
endfacet
facet normal -1.0 0.0 0.0
  outer loop
    vertex 0.0 33.0 6.0
    vertex 0.0 0.0 0.0
    vertex 0.0 0.0 6.0
  endloop
endfacet
facet normal -1.0 0.0 0.0
  outer loop
    vertex 0.0 0.0 0.0
    vertex 0.0 33.0 6.0
    vertex 0.0 33.0 0.0
  endloop
endfacet
facet normal -0.9238795325112863 0.3826834323650914 0.0
  outer loop
    vertex 25.93185165257814 5.482361909794957 6.0
    vertex 25.73205080756888 4.999999999999998 0.0
    vertex 25.73205080756888 4.999999999999998 6.0
  endloop
endfacet
facet normal -0.9238795325112863 0.3826834323650914 0.0
  outer loop
    vertex 25.73205080756888 4.999999999999998 0.0
    vertex 25.93185165257814 5.482361909794957 6.0
    vertex 25.93185165257814 5.482361909794957 0.0
  endloop
endfacet
facet normal -0.13052619222005216 0.9914448613738104 0.0
  outer loop
    vertex 24.0 3.9999999999999982 6.0
    vertex 24.51763809020504 4.068148347421862 0.0
    vertex 24.0 3.9999999999999982 0.0
  endloop
endfacet
facet normal -0.13052619222005216 0.9914448613738104 0.0
  outer loop
    vertex 24.51763809020504 4.068148347421862 0.0
    vertex 24.0 3.9999999999999982 6.0
    vertex 24.51763809020504 4.068148347421862 6.0
  endloop
endfacet
facet normal -0.6087614290087162 0.7933533402912388 0.0
  outer loop
    vertex 25.0 4.267949192431121 6.0
    vertex 25.4142135623731 4.585786437626903 0.0
    vertex 25.0 4.267949192431121 0.0
  endloop
endfacet
facet normal -0.6087614290087162 0.7933533402912388 0.0
  outer loop
    vertex 25.4142135623731 4.585786437626903 0.0
    vertex 25.0 4.267949192431121 6.0
    vertex 25.4142135623731 4.585786437626903 6.0
  endloop
endfacet
facet normal -1.0 0.0 0.0
  outer loop
    vertex 20.000000000000004 33.0 6.0
    vertex 20.000000000000004 30.0 0.0
    vertex 20.000000000000004 30.0 6.0
  endloop
endfacet
facet normal -1.0 0.0 0.0
  outer loop
    vertex 20.000000000000004 30.0 0.0
    vertex 20.000000000000004 33.0 6.0
    vertex 20.000000000000004 33.0 0.0
  endloop
endfacet
facet normal -0.7933533402912377 0.6087614290087173 0.0
  outer loop
    vertex 25.73205080756888 4.999999999999998 6.0
    vertex 25.4142135623731 4.585786437626903 0.0
    vertex 25.4142135623731 4.585786437626903 6.0
  endloop
endfacet
facet normal -0.7933533402912377 0.6087614290087173 0.0
  outer loop
    vertex 25.4142135623731 4.585786437626903 0.0
    vertex 25.73205080756888 4.999999999999998 6.0
    vertex 25.73205080756888 4.999999999999998 0.0
  endloop
endfacet
facet normal -0.3826834323650914 -0.9238795325112863 -0.0
  outer loop
    vertex 25.000000000000004 7.7320508075688785 6.0
    vertex 24.517638090205043 7.931851652578139 0.0
    vertex 25.000000000000004 7.7320508075688785 0.0
  endloop
endfacet
facet normal -0.3826834323650914 -0.9238795325112863 -0.0
  outer loop
    vertex 24.517638090205043 7.931851652578139 0.0
    vertex 25.000000000000004 7.7320508075688785 6.0
    vertex 24.517638090205043 7.931851652578139 6.0
  endloop
endfacet
facet normal 0.13052619222005143 -0.9914448613738105 0.0
  outer loop
    vertex 24.0 8.000000000000002 6.0
    vertex 23.482361909794957 7.931851652578139 0.0
    vertex 24.0 8.000000000000002 0.0
  endloop
endfacet
facet normal 0.13052619222005143 -0.9914448613738105 0.0
  outer loop
    vertex 23.482361909794957 7.931851652578139 0.0
    vertex 24.0 8.000000000000002 6.0
    vertex 23.482361909794957 7.931851652578139 6.0
  endloop
endfacet
facet normal -0.9914448613738105 -0.13052619222005143 -0.0
  outer loop
    vertex 25.93185165257814 6.517638090205043 6.0
    vertex 26.000000000000004 6.0 0.0
    vertex 26.000000000000004 6.0 6.0
  endloop
endfacet
facet normal -0.9914448613738105 -0.13052619222005143 -0.0
  outer loop
    vertex 26.000000000000004 6.0 0.0
    vertex 25.93185165257814 6.517638090205043 6.0
    vertex 25.93185165257814 6.517638090205043 0.0
  endloop
endfacet
facet normal 0.3826834323650914 -0.9238795325112863 0.0
  outer loop
    vertex 23.482361909794957 7.931851652578139 6.0
    vertex 23.0 7.7320508075688785 0.0
    vertex 23.482361909794957 7.931851652578139 0.0
  endloop
endfacet
facet normal 0.3826834323650914 -0.9238795325112863 0.0
  outer loop
    vertex 23.0 7.7320508075688785 0.0
    vertex 23.482361909794957 7.931851652578139 6.0
    vertex 23.0 7.7320508075688785 6.0
  endloop
endfacet
facet normal 0.7933533402912347 -0.6087614290087213 0.0
  outer loop
    vertex 22.585786437626904 7.414213562373096 0.0
    vertex 22.26794919243112 7.000000000000001 6.0
    vertex 22.26794919243112 7.000000000000001 0.0
  endloop
endfacet
facet normal 0.7933533402912347 -0.6087614290087213 0.0
  outer loop
    vertex 22.26794919243112 7.000000000000001 6.0
    vertex 22.585786437626904 7.414213562373096 0.0
    vertex 22.585786437626904 7.414213562373096 6.0
  endloop
endfacet
facet normal -0.7933533402912372 -0.6087614290087179 -0.0
  outer loop
    vertex 25.4142135623731 7.414213562373096 6.0
    vertex 25.73205080756888 7.000000000000001 0.0
    vertex 25.73205080756888 7.000000000000001 6.0
  endloop
endfacet
facet normal -0.7933533402912372 -0.6087614290087179 -0.0
  outer loop
    vertex 25.73205080756888 7.000000000000001 0.0
    vertex 25.4142135623731 7.414213562373096 6.0
    vertex 25.4142135623731 7.414213562373096 0.0
  endloop
endfacet
facet normal -0.6087614290087188 -0.7933533402912367 -0.0
  outer loop
    vertex 25.4142135623731 7.414213562373096 6.0
    vertex 25.000000000000004 7.7320508075688785 0.0
    vertex 25.4142135623731 7.414213562373096 0.0
  endloop
endfacet
facet normal -0.6087614290087188 -0.7933533402912367 -0.0
  outer loop
    vertex 25.000000000000004 7.7320508075688785 0.0
    vertex 25.4142135623731 7.414213562373096 6.0
    vertex 25.000000000000004 7.7320508075688785 6.0
  endloop
endfacet
facet normal -0.13052619222005143 -0.9914448613738105 -0.0
  outer loop
    vertex 24.517638090205043 7.931851652578139 6.0
    vertex 24.0 8.000000000000002 0.0
    vertex 24.517638090205043 7.931851652578139 0.0
  endloop
endfacet
facet normal -0.13052619222005143 -0.9914448613738105 -0.0
  outer loop
    vertex 24.0 8.000000000000002 0.0
    vertex 24.517638090205043 7.931851652578139 6.0
    vertex 24.0 8.000000000000002 6.0
  endloop
endfacet
facet normal 0.6087614290087213 -0.7933533402912347 0.0
  outer loop
    vertex 23.0 7.7320508075688785 6.0
    vertex 22.585786437626904 7.414213562373096 0.0
    vertex 23.0 7.7320508075688785 0.0
  endloop
endfacet
facet normal 0.6087614290087213 -0.7933533402912347 0.0
  outer loop
    vertex 22.585786437626904 7.414213562373096 0.0
    vertex 23.0 7.7320508075688785 6.0
    vertex 22.585786437626904 7.414213562373096 6.0
  endloop
endfacet
facet normal -0.9238795325112863 -0.3826834323650914 -0.0
  outer loop
    vertex 25.73205080756888 7.000000000000001 6.0
    vertex 25.93185165257814 6.517638090205043 0.0
    vertex 25.93185165257814 6.517638090205043 6.0
  endloop
endfacet
facet normal -0.9238795325112863 -0.3826834323650914 -0.0
  outer loop
    vertex 25.93185165257814 6.517638090205043 0.0
    vertex 25.73205080756888 7.000000000000001 6.0
    vertex 25.73205080756888 7.000000000000001 0.0
  endloop
endfacet
facet normal -0.9914448613738106 0.1305261922200513 0.0
  outer loop
    vertex 26.000000000000004 6.0 6.0
    vertex 25.93185165257814 5.482361909794957 0.0
    vertex 25.93185165257814 5.482361909794957 6.0
  endloop
endfacet
facet normal -0.9914448613738106 0.1305261922200513 0.0
  outer loop
    vertex 25.93185165257814 5.482361909794957 0.0
    vertex 26.000000000000004 6.0 6.0
    vertex 26.000000000000004 6.0 0.0
  endloop
endfacet
facet normal 0.0 0.0 -1.0
  outer loop
    vertex 10.0 33.0 0.0
    vertex 0.0 0.0 0.0
    vertex 0.0 33.0 0.0
  endloop
endfacet
facet normal 0.0 0.0 -1.0
  outer loop
    vertex 0.0 0.0 0.0
    vertex 10.0 33.0 0.0
    vertex 4.0681483474218645 6.5176380902050415 0.0
  endloop
endfacet
facet normal 0.0 0.0 -1.0
  outer loop
    vertex 0.0 0.0 0.0
    vertex 4.0681483474218645 6.5176380902050415 0.0
    vertex 4.000000000000001 6.0 0.0
  endloop
endfacet
facet normal 0.0 0.0 -1.0
  outer loop
    vertex 4.0681483474218645 6.5176380902050415 0.0
    vertex 10.0 33.0 0.0
    vertex 4.267949192431124 7.000000000000001 0.0
  endloop
endfacet
facet normal 0.0 0.0 -1.0
  outer loop
    vertex 4.267949192431124 7.000000000000001 0.0
    vertex 10.0 33.0 0.0
    vertex 4.585786437626906 7.414213562373095 0.0
  endloop
endfacet
facet normal 0.0 0.0 -1.0
  outer loop
    vertex 4.585786437626906 7.414213562373095 0.0
    vertex 10.0 33.0 0.0
    vertex 5.000000000000002 7.732050807568878 0.0
  endloop
endfacet
facet normal 0.0 0.0 -1.0
  outer loop
    vertex 5.000000000000002 7.732050807568878 0.0
    vertex 10.0 33.0 0.0
    vertex 5.482361909794959 7.9318516525781355 0.0
  endloop
endfacet
facet normal 0.0 0.0 -1.0
  outer loop
    vertex 5.482361909794959 7.9318516525781355 0.0
    vertex 10.0 33.0 0.0
    vertex 6.0 7.999999999999999 0.0
  endloop
endfacet
facet normal 0.0 0.0 -1.0
  outer loop
    vertex 6.0 7.999999999999999 0.0
    vertex 10.0 33.0 0.0
    vertex 6.5176380902050415 7.9318516525781355 0.0
  endloop
endfacet
facet normal 0.0 0.0 -1.0
  outer loop
    vertex 6.5176380902050415 7.9318516525781355 0.0
    vertex 10.0 33.0 0.0
    vertex 7.0 7.732050807568878 0.0
  endloop
endfacet
facet normal 0.0 0.0 -1.0
  outer loop
    vertex 7.0 7.732050807568878 0.0
    vertex 10.0 33.0 0.0
    vertex 7.414213562373095 7.414213562373095 0.0
  endloop
endfacet
facet normal 0.0 0.0 -1.0
  outer loop
    vertex 7.414213562373095 7.414213562373095 0.0
    vertex 10.0 33.0 0.0
    vertex 7.732050807568878 7.0 0.0
  endloop
endfacet
facet normal 0.0 0.0 -1.0
  outer loop
    vertex 7.732050807568878 7.0 0.0
    vertex 10.0 33.0 0.0
    vertex 7.9318516525781355 6.5176380902050415 0.0
  endloop
endfacet
facet normal 0.0 0.0 -1.0
  outer loop
    vertex 7.9318516525781355 6.5176380902050415 0.0
    vertex 10.0 33.0 0.0
    vertex 7.999999999999999 6.0 0.0
  endloop
endfacet
facet normal 0.0 0.0 -1.0
  outer loop
    vertex 30.0 33.0 0.0
    vertex 20.000000000000004 30.0 0.0
    vertex 20.000000000000004 33.0 0.0
  endloop
endfacet
facet normal 0.0 0.0 -1.0
  outer loop
    vertex 20.000000000000004 30.0 0.0
    vertex 30.0 33.0 0.0
    vertex 20.000000000000014 20.3 -7.049916206369744e-16
  endloop
endfacet
facet normal 0.0 0.0 -1.0
  outer loop
    vertex 20.000000000000014 20.3 -7.049916206369744e-16
    vertex 30.0 33.0 0.0
    vertex 20.000000000000014 14.0 -7.049916206369744e-16
  endloop
endfacet
facet normal 0.0 0.0 -1.0
  outer loop
    vertex 20.000000000000014 14.0 -7.049916206369744e-16
    vertex 30.0 33.0 0.0
    vertex 22.06814834742186 6.517638090205043 0.0
  endloop
endfacet
facet normal 0.0 0.0 -1.0
  outer loop
    vertex 20.000000000000014 14.0 -7.049916206369744e-16
    vertex 22.06814834742186 6.517638090205043 0.0
    vertex 22.0 6.0 0.0
  endloop
endfacet
facet normal 0.0 0.0 -1.0
  outer loop
    vertex 22.06814834742186 6.517638090205043 0.0
    vertex 30.0 33.0 0.0
    vertex 22.26794919243112 7.000000000000001 0.0
  endloop
endfacet
facet normal 0.0 0.0 -1.0
  outer loop
    vertex 22.26794919243112 7.000000000000001 0.0
    vertex 30.0 33.0 0.0
    vertex 22.585786437626904 7.414213562373096 0.0
  endloop
endfacet
facet normal 0.0 0.0 -1.0
  outer loop
    vertex 22.585786437626904 7.414213562373096 0.0
    vertex 30.0 33.0 0.0
    vertex 23.0 7.7320508075688785 0.0
  endloop
endfacet
facet normal 0.0 0.0 -1.0
  outer loop
    vertex 23.0 7.7320508075688785 0.0
    vertex 30.0 33.0 0.0
    vertex 23.482361909794957 7.931851652578139 0.0
  endloop
endfacet
facet normal 0.0 0.0 -1.0
  outer loop
    vertex 23.482361909794957 7.931851652578139 0.0
    vertex 30.0 33.0 0.0
    vertex 24.0 8.000000000000002 0.0
  endloop
endfacet
facet normal 0.0 0.0 -1.0
  outer loop
    vertex 24.0 8.000000000000002 0.0
    vertex 30.0 33.0 0.0
    vertex 24.517638090205043 7.931851652578139 0.0
  endloop
endfacet
facet normal 0.0 0.0 -1.0
  outer loop
    vertex 24.517638090205043 7.931851652578139 0.0
    vertex 30.0 33.0 0.0
    vertex 25.000000000000004 7.7320508075688785 0.0
  endloop
endfacet
facet normal 0.0 0.0 -1.0
  outer loop
    vertex 25.000000000000004 7.7320508075688785 0.0
    vertex 30.0 33.0 0.0
    vertex 25.4142135623731 7.414213562373096 0.0
  endloop
endfacet
facet normal 0.0 0.0 -1.0
  outer loop
    vertex 25.4142135623731 7.414213562373096 0.0
    vertex 30.0 33.0 0.0
    vertex 25.73205080756888 7.000000000000001 0.0
  endloop
endfacet
facet normal 0.0 0.0 -1.0
  outer loop
    vertex 25.73205080756888 7.000000000000001 0.0
    vertex 30.0 33.0 0.0
    vertex 25.93185165257814 6.517638090205043 0.0
  endloop
endfacet
facet normal 0.0 0.0 -1.0
  outer loop
    vertex 25.93185165257814 6.517638090205043 0.0
    vertex 30.0 33.0 0.0
    vertex 26.000000000000004 6.0 0.0
  endloop
endfacet
facet normal 0.0 0.0 -1.0
  outer loop
    vertex 0.0 0.0 0.0
    vertex 5.482361909794958 4.0681483474218645 0.0
    vertex 30.0 0.0 0.0
  endloop
endfacet
facet normal 0.0 0.0 -1.0
  outer loop
    vertex 5.482361909794958 4.0681483474218645 0.0
    vertex 0.0 0.0 0.0
    vertex 5.0 4.267949192431124 0.0
  endloop
endfacet
facet normal 0.0 0.0 -1.0
  outer loop
    vertex 5.0 4.267949192431124 0.0
    vertex 0.0 0.0 0.0
    vertex 4.585786437626905 4.585786437626907 0.0
  endloop
endfacet
facet normal 0.0 0.0 -1.0
  outer loop
    vertex 4.585786437626905 4.585786437626907 0.0
    vertex 0.0 0.0 0.0
    vertex 4.267949192431123 5.000000000000002 0.0
  endloop
endfacet
facet normal 0.0 0.0 -1.0
  outer loop
    vertex 4.267949192431123 5.000000000000002 0.0
    vertex 0.0 0.0 0.0
    vertex 4.0681483474218645 5.482361909794959 0.0
  endloop
endfacet
facet normal 0.0 0.0 -1.0
  outer loop
    vertex 4.0681483474218645 5.482361909794959 0.0
    vertex 0.0 0.0 0.0
    vertex 4.000000000000001 6.0 0.0
  endloop
endfacet
facet normal 0.0 0.0 -1.0
  outer loop
    vertex 30.0 0.0 0.0
    vertex 5.482361909794958 4.0681483474218645 0.0
    vertex 6.0 4.000000000000001 0.0
  endloop
endfacet
facet normal 0.0 0.0 -1.0
  outer loop
    vertex 30.0 0.0 0.0
    vertex 6.0 4.000000000000001 0.0
    vertex 6.517638090205041 4.0681483474218645 0.0
  endloop
endfacet
facet normal 0.0 0.0 -1.0
  outer loop
    vertex 30.0 0.0 0.0
    vertex 6.517638090205041 4.0681483474218645 0.0
    vertex 6.999999999999998 4.267949192431123 0.0
  endloop
endfacet
facet normal 0.0 0.0 -1.0
  outer loop
    vertex 30.0 0.0 0.0
    vertex 6.999999999999998 4.267949192431123 0.0
    vertex 7.414213562373095 4.585786437626906 0.0
  endloop
endfacet
facet normal 0.0 0.0 -1.0
  outer loop
    vertex 30.0 0.0 0.0
    vertex 7.414213562373095 4.585786437626906 0.0
    vertex 7.732050807568876 5.0 0.0
  endloop
endfacet
facet normal 0.0 0.0 -1.0
  outer loop
    vertex 30.0 0.0 0.0
    vertex 7.732050807568876 5.0 0.0
    vertex 7.9318516525781355 5.482361909794958 0.0
  endloop
endfacet
facet normal 0.0 0.0 -1.0
  outer loop
    vertex 30.0 0.0 0.0
    vertex 7.9318516525781355 5.482361909794958 0.0
    vertex 7.999999999999999 6.0 0.0
  endloop
endfacet
facet normal 0.0 0.0 -1.0
  outer loop
    vertex 30.0 0.0 0.0
    vertex 7.999999999999999 6.0 0.0
    vertex 23.0 4.267949192431122 0.0
  endloop
endfacet
facet normal 0.0 0.0 -1.0
  outer loop
    vertex 23.0 4.267949192431122 0.0
    vertex 7.999999999999999 6.0 0.0
    vertex 10.000000000000004 14.0 -7.049916206369744e-16
  endloop
endfacet
facet normal 0.0 0.0 -1.0
  outer loop
    vertex 10.000000000000004 14.0 -7.049916206369744e-16
    vertex 7.999999999999999 6.0 0.0
    vertex 10.0 30.0 0.0
  endloop
endfacet
facet normal 0.0 0.0 -1.0
  outer loop
    vertex 10.0 30.0 0.0
    vertex 7.999999999999999 6.0 0.0
    vertex 10.0 33.0 0.0
  endloop
endfacet
facet normal 0.0 0.0 -1.0
  outer loop
    vertex 10.000000000000004 14.0 -7.049916206369744e-16
    vertex 10.0 30.0 0.0
    vertex 10.000000000000004 20.3 -7.049916206369744e-16
  endloop
endfacet
facet normal 0.0 0.0 -1.0
  outer loop
    vertex 23.0 4.267949192431122 0.0
    vertex 10.000000000000004 14.0 -7.049916206369744e-16
    vertex 22.585786437626904 4.585786437626904 0.0
  endloop
endfacet
facet normal 0.0 0.0 -1.0
  outer loop
    vertex 22.585786437626904 4.585786437626904 0.0
    vertex 10.000000000000004 14.0 -7.049916206369744e-16
    vertex 22.26794919243112 5.0 0.0
  endloop
endfacet
facet normal 0.0 0.0 -1.0
  outer loop
    vertex 22.26794919243112 5.0 0.0
    vertex 10.000000000000004 14.0 -7.049916206369744e-16
    vertex 22.06814834742186 5.482361909794959 0.0
  endloop
endfacet
facet normal 0.0 0.0 -1.0
  outer loop
    vertex 22.06814834742186 5.482361909794959 0.0
    vertex 10.000000000000004 14.0 -7.049916206369744e-16
    vertex 20.000000000000014 14.0 -7.049916206369744e-16
  endloop
endfacet
facet normal 0.0 0.0 -1.0
  outer loop
    vertex 22.06814834742186 5.482361909794959 0.0
    vertex 20.000000000000014 14.0 -7.049916206369744e-16
    vertex 22.0 6.0 0.0
  endloop
endfacet
facet normal 0.0 0.0 -1.0
  outer loop
    vertex 30.0 0.0 0.0
    vertex 23.0 4.267949192431122 0.0
    vertex 23.482361909794957 4.068148347421862 0.0
  endloop
endfacet
facet normal 0.0 0.0 -1.0
  outer loop
    vertex 30.0 0.0 0.0
    vertex 23.482361909794957 4.068148347421862 0.0
    vertex 24.0 3.9999999999999982 0.0
  endloop
endfacet
facet normal 0.0 0.0 -1.0
  outer loop
    vertex 30.0 0.0 0.0
    vertex 24.0 3.9999999999999982 0.0
    vertex 24.51763809020504 4.068148347421862 0.0
  endloop
endfacet
facet normal 0.0 0.0 -1.0
  outer loop
    vertex 30.0 0.0 0.0
    vertex 24.51763809020504 4.068148347421862 0.0
    vertex 25.0 4.267949192431121 0.0
  endloop
endfacet
facet normal 0.0 0.0 -1.0
  outer loop
    vertex 30.0 0.0 0.0
    vertex 25.0 4.267949192431121 0.0
    vertex 25.4142135623731 4.585786437626903 0.0
  endloop
endfacet
facet normal 0.0 0.0 -1.0
  outer loop
    vertex 30.0 0.0 0.0
    vertex 25.4142135623731 4.585786437626903 0.0
    vertex 25.73205080756888 4.999999999999998 0.0
  endloop
endfacet
facet normal 0.0 0.0 -1.0
  outer loop
    vertex 30.0 0.0 0.0
    vertex 25.73205080756888 4.999999999999998 0.0
    vertex 25.93185165257814 5.482361909794957 0.0
  endloop
endfacet
facet normal 0.0 0.0 -1.0
  outer loop
    vertex 30.0 0.0 0.0
    vertex 25.93185165257814 5.482361909794957 0.0
    vertex 26.000000000000004 6.0 0.0
  endloop
endfacet
facet normal 0.0 0.0 -1.0
  outer loop
    vertex 30.0 0.0 0.0
    vertex 26.000000000000004 6.0 0.0
    vertex 30.0 33.0 0.0
  endloop
endfacet
facet normal 0.0 0.0 -1.0
  outer loop
    vertex 20.000000000000004 30.0 0.0
    vertex 10.000000000000004 20.3 -7.049916206369744e-16
    vertex 10.0 30.0 0.0
  endloop
endfacet
facet normal 0.0 0.0 -1.0
  outer loop
    vertex 10.000000000000004 20.3 -7.049916206369744e-16
    vertex 20.000000000000004 30.0 0.0
    vertex 20.000000000000014 20.3 -7.049916206369744e-16
  endloop
endfacet
facet normal 0.0 0.0 1.0
  outer loop
    vertex 0.0 0.0 6.0
    vertex 4.0681483474218645 5.482361909794959 6.0
    vertex 0.0 33.0 6.0
  endloop
endfacet
facet normal 0.0 0.0 1.0
  outer loop
    vertex 4.0681483474218645 5.482361909794959 6.0
    vertex 0.0 0.0 6.0
    vertex 4.267949192431123 5.000000000000002 6.0
  endloop
endfacet
facet normal 0.0 0.0 1.0
  outer loop
    vertex 4.267949192431123 5.000000000000002 6.0
    vertex 0.0 0.0 6.0
    vertex 4.585786437626905 4.585786437626907 6.0
  endloop
endfacet
facet normal 0.0 0.0 1.0
  outer loop
    vertex 4.585786437626905 4.585786437626907 6.0
    vertex 0.0 0.0 6.0
    vertex 5.0 4.267949192431124 6.0
  endloop
endfacet
facet normal 0.0 0.0 1.0
  outer loop
    vertex 5.0 4.267949192431124 6.0
    vertex 0.0 0.0 6.0
    vertex 5.482361909794958 4.0681483474218645 6.0
  endloop
endfacet
facet normal 0.0 0.0 1.0
  outer loop
    vertex 5.482361909794958 4.0681483474218645 6.0
    vertex 0.0 0.0 6.0
    vertex 30.0 0.0 6.0
  endloop
endfacet
facet normal 0.0 0.0 1.0
  outer loop
    vertex 0.0 33.0 6.0
    vertex 4.0681483474218645 5.482361909794959 6.0
    vertex 4.000000000000001 6.0 6.0
  endloop
endfacet
facet normal 0.0 0.0 1.0
  outer loop
    vertex 5.482361909794958 4.0681483474218645 6.0
    vertex 30.0 0.0 6.0
    vertex 6.0 4.000000000000001 6.0
  endloop
endfacet
facet normal 0.0 0.0 1.0
  outer loop
    vertex 6.0 4.000000000000001 6.0
    vertex 30.0 0.0 6.0
    vertex 6.517638090205041 4.0681483474218645 6.0
  endloop
endfacet
facet normal 0.0 0.0 1.0
  outer loop
    vertex 6.517638090205041 4.0681483474218645 6.0
    vertex 30.0 0.0 6.0
    vertex 6.999999999999998 4.267949192431123 6.0
  endloop
endfacet
facet normal 0.0 0.0 1.0
  outer loop
    vertex 6.999999999999998 4.267949192431123 6.0
    vertex 30.0 0.0 6.0
    vertex 7.414213562373095 4.585786437626906 6.0
  endloop
endfacet
facet normal 0.0 0.0 1.0
  outer loop
    vertex 7.414213562373095 4.585786437626906 6.0
    vertex 30.0 0.0 6.0
    vertex 7.732050807568876 5.0 6.0
  endloop
endfacet
facet normal 0.0 0.0 1.0
  outer loop
    vertex 7.732050807568876 5.0 6.0
    vertex 30.0 0.0 6.0
    vertex 7.9318516525781355 5.482361909794958 6.0
  endloop
endfacet
facet normal 0.0 0.0 1.0
  outer loop
    vertex 7.9318516525781355 5.482361909794958 6.0
    vertex 30.0 0.0 6.0
    vertex 7.999999999999999 6.0 6.0
  endloop
endfacet
facet normal 0.0 0.0 1.0
  outer loop
    vertex 7.999999999999999 6.0 6.0
    vertex 30.0 0.0 6.0
    vertex 23.0 4.267949192431122 6.0
  endloop
endfacet
facet normal 0.0 0.0 1.0
  outer loop
    vertex 7.999999999999999 6.0 6.0
    vertex 23.0 4.267949192431122 6.0
    vertex 10.000000000000004 14.0 6.0
  endloop
endfacet
facet normal 0.0 0.0 1.0
  outer loop
    vertex 7.999999999999999 6.0 6.0
    vertex 10.000000000000004 14.0 6.0
    vertex 10.0 30.0 6.0
  endloop
endfacet
facet normal 0.0 0.0 1.0
  outer loop
    vertex 10.000000000000004 14.0 6.0
    vertex 23.0 4.267949192431122 6.0
    vertex 22.585786437626904 4.585786437626904 6.0
  endloop
endfacet
facet normal 0.0 0.0 1.0
  outer loop
    vertex 10.000000000000004 14.0 6.0
    vertex 22.585786437626904 4.585786437626904 6.0
    vertex 22.26794919243112 5.0 6.0
  endloop
endfacet
facet normal 0.0 0.0 1.0
  outer loop
    vertex 10.000000000000004 14.0 6.0
    vertex 22.26794919243112 5.0 6.0
    vertex 22.06814834742186 5.482361909794959 6.0
  endloop
endfacet
facet normal 0.0 0.0 1.0
  outer loop
    vertex 10.000000000000004 14.0 6.0
    vertex 22.06814834742186 5.482361909794959 6.0
    vertex 20.000000000000014 14.0 6.0
  endloop
endfacet
facet normal 0.0 0.0 1.0
  outer loop
    vertex 20.000000000000014 14.0 6.0
    vertex 22.06814834742186 5.482361909794959 6.0
    vertex 20.000000000000014 20.3 6.0
  endloop
endfacet
facet normal 0.0 0.0 1.0
  outer loop
    vertex 20.000000000000014 20.3 6.0
    vertex 22.06814834742186 5.482361909794959 6.0
    vertex 22.0 6.0 6.0
  endloop
endfacet
facet normal 0.0 0.0 1.0
  outer loop
    vertex 23.0 4.267949192431122 6.0
    vertex 30.0 0.0 6.0
    vertex 23.482361909794957 4.068148347421862 6.0
  endloop
endfacet
facet normal 0.0 0.0 1.0
  outer loop
    vertex 23.482361909794957 4.068148347421862 6.0
    vertex 30.0 0.0 6.0
    vertex 24.0 3.9999999999999982 6.0
  endloop
endfacet
facet normal 0.0 0.0 1.0
  outer loop
    vertex 24.0 3.9999999999999982 6.0
    vertex 30.0 0.0 6.0
    vertex 24.51763809020504 4.068148347421862 6.0
  endloop
endfacet
facet normal 0.0 0.0 1.0
  outer loop
    vertex 24.51763809020504 4.068148347421862 6.0
    vertex 30.0 0.0 6.0
    vertex 25.0 4.267949192431121 6.0
  endloop
endfacet
facet normal 0.0 0.0 1.0
  outer loop
    vertex 25.0 4.267949192431121 6.0
    vertex 30.0 0.0 6.0
    vertex 25.4142135623731 4.585786437626903 6.0
  endloop
endfacet
facet normal 0.0 0.0 1.0
  outer loop
    vertex 25.4142135623731 4.585786437626903 6.0
    vertex 30.0 0.0 6.0
    vertex 25.73205080756888 4.999999999999998 6.0
  endloop
endfacet
facet normal 0.0 0.0 1.0
  outer loop
    vertex 25.73205080756888 4.999999999999998 6.0
    vertex 30.0 0.0 6.0
    vertex 25.93185165257814 5.482361909794957 6.0
  endloop
endfacet
facet normal 0.0 0.0 1.0
  outer loop
    vertex 25.93185165257814 5.482361909794957 6.0
    vertex 30.0 0.0 6.0
    vertex 26.000000000000004 6.0 6.0
  endloop
endfacet
facet normal 0.0 0.0 1.0
  outer loop
    vertex 10.0 30.0 6.0
    vertex 10.000000000000004 20.3 6.0
    vertex 20.000000000000004 30.0 6.0
  endloop
endfacet
facet normal 0.0 0.0 1.0
  outer loop
    vertex 10.000000000000004 20.3 6.0
    vertex 10.0 30.0 6.0
    vertex 10.000000000000004 14.0 6.0
  endloop
endfacet
facet normal 0.0 0.0 1.0
  outer loop
    vertex 20.000000000000004 30.0 6.0
    vertex 10.000000000000004 20.3 6.0
    vertex 20.000000000000014 20.3 6.0
  endloop
endfacet
facet normal 0.0 0.0 1.0
  outer loop
    vertex 20.000000000000004 30.0 6.0
    vertex 20.000000000000014 20.3 6.0
    vertex 20.000000000000004 33.0 6.0
  endloop
endfacet
facet normal 0.0 0.0 1.0
  outer loop
    vertex 20.000000000000004 33.0 6.0
    vertex 20.000000000000014 20.3 6.0
    vertex 30.0 33.0 6.0
  endloop
endfacet
facet normal 0.0 0.0 1.0
  outer loop
    vertex 30.0 33.0 6.0
    vertex 20.000000000000014 20.3 6.0
    vertex 22.06814834742186 6.517638090205043 6.0
  endloop
endfacet
facet normal 0.0 0.0 1.0
  outer loop
    vertex 22.06814834742186 6.517638090205043 6.0
    vertex 20.000000000000014 20.3 6.0
    vertex 22.0 6.0 6.0
  endloop
endfacet
facet normal 0.0 0.0 1.0
  outer loop
    vertex 30.0 33.0 6.0
    vertex 22.06814834742186 6.517638090205043 6.0
    vertex 22.26794919243112 7.000000000000001 6.0
  endloop
endfacet
facet normal 0.0 0.0 1.0
  outer loop
    vertex 30.0 33.0 6.0
    vertex 22.26794919243112 7.000000000000001 6.0
    vertex 22.585786437626904 7.414213562373096 6.0
  endloop
endfacet
facet normal 0.0 0.0 1.0
  outer loop
    vertex 30.0 33.0 6.0
    vertex 22.585786437626904 7.414213562373096 6.0
    vertex 23.0 7.7320508075688785 6.0
  endloop
endfacet
facet normal 0.0 0.0 1.0
  outer loop
    vertex 30.0 33.0 6.0
    vertex 23.0 7.7320508075688785 6.0
    vertex 23.482361909794957 7.931851652578139 6.0
  endloop
endfacet
facet normal 0.0 0.0 1.0
  outer loop
    vertex 30.0 33.0 6.0
    vertex 23.482361909794957 7.931851652578139 6.0
    vertex 24.0 8.000000000000002 6.0
  endloop
endfacet
facet normal 0.0 0.0 1.0
  outer loop
    vertex 30.0 33.0 6.0
    vertex 24.0 8.000000000000002 6.0
    vertex 24.517638090205043 7.931851652578139 6.0
  endloop
endfacet
facet normal 0.0 0.0 1.0
  outer loop
    vertex 30.0 33.0 6.0
    vertex 24.517638090205043 7.931851652578139 6.0
    vertex 25.000000000000004 7.7320508075688785 6.0
  endloop
endfacet
facet normal 0.0 0.0 1.0
  outer loop
    vertex 30.0 33.0 6.0
    vertex 25.000000000000004 7.7320508075688785 6.0
    vertex 25.4142135623731 7.414213562373096 6.0
  endloop
endfacet
facet normal 0.0 0.0 1.0
  outer loop
    vertex 30.0 33.0 6.0
    vertex 25.4142135623731 7.414213562373096 6.0
    vertex 25.73205080756888 7.000000000000001 6.0
  endloop
endfacet
facet normal 0.0 0.0 1.0
  outer loop
    vertex 30.0 33.0 6.0
    vertex 25.73205080756888 7.000000000000001 6.0
    vertex 25.93185165257814 6.517638090205043 6.0
  endloop
endfacet
facet normal 0.0 0.0 1.0
  outer loop
    vertex 30.0 33.0 6.0
    vertex 25.93185165257814 6.517638090205043 6.0
    vertex 26.000000000000004 6.0 6.0
  endloop
endfacet
facet normal 0.0 0.0 1.0
  outer loop
    vertex 30.0 33.0 6.0
    vertex 26.000000000000004 6.0 6.0
    vertex 30.0 0.0 6.0
  endloop
endfacet
facet normal 0.0 0.0 1.0
  outer loop
    vertex 0.0 33.0 6.0
    vertex 4.0681483474218645 6.5176380902050415 6.0
    vertex 10.0 33.0 6.0
  endloop
endfacet
facet normal 0.0 0.0 1.0
  outer loop
    vertex 4.0681483474218645 6.5176380902050415 6.0
    vertex 0.0 33.0 6.0
    vertex 4.000000000000001 6.0 6.0
  endloop
endfacet
facet normal 0.0 0.0 1.0
  outer loop
    vertex 10.0 33.0 6.0
    vertex 4.0681483474218645 6.5176380902050415 6.0
    vertex 4.267949192431124 7.000000000000001 6.0
  endloop
endfacet
facet normal 0.0 0.0 1.0
  outer loop
    vertex 10.0 33.0 6.0
    vertex 4.267949192431124 7.000000000000001 6.0
    vertex 4.585786437626906 7.414213562373095 6.0
  endloop
endfacet
facet normal 0.0 0.0 1.0
  outer loop
    vertex 10.0 33.0 6.0
    vertex 4.585786437626906 7.414213562373095 6.0
    vertex 5.000000000000002 7.732050807568878 6.0
  endloop
endfacet
facet normal 0.0 0.0 1.0
  outer loop
    vertex 10.0 33.0 6.0
    vertex 5.000000000000002 7.732050807568878 6.0
    vertex 5.482361909794959 7.9318516525781355 6.0
  endloop
endfacet
facet normal 0.0 0.0 1.0
  outer loop
    vertex 10.0 33.0 6.0
    vertex 5.482361909794959 7.9318516525781355 6.0
    vertex 6.0 7.999999999999999 6.0
  endloop
endfacet
facet normal 0.0 0.0 1.0
  outer loop
    vertex 10.0 33.0 6.0
    vertex 6.0 7.999999999999999 6.0
    vertex 6.5176380902050415 7.9318516525781355 6.0
  endloop
endfacet
facet normal 0.0 0.0 1.0
  outer loop
    vertex 10.0 33.0 6.0
    vertex 6.5176380902050415 7.9318516525781355 6.0
    vertex 7.0 7.732050807568878 6.0
  endloop
endfacet
facet normal 0.0 0.0 1.0
  outer loop
    vertex 10.0 33.0 6.0
    vertex 7.0 7.732050807568878 6.0
    vertex 7.414213562373095 7.414213562373095 6.0
  endloop
endfacet
facet normal 0.0 0.0 1.0
  outer loop
    vertex 10.0 33.0 6.0
    vertex 7.414213562373095 7.414213562373095 6.0
    vertex 7.732050807568878 7.0 6.0
  endloop
endfacet
facet normal 0.0 0.0 1.0
  outer loop
    vertex 10.0 33.0 6.0
    vertex 7.732050807568878 7.0 6.0
    vertex 7.9318516525781355 6.5176380902050415 6.0
  endloop
endfacet
facet normal 0.0 0.0 1.0
  outer loop
    vertex 10.0 33.0 6.0
    vertex 7.9318516525781355 6.5176380902050415 6.0
    vertex 7.999999999999999 6.0 6.0
  endloop
endfacet
facet normal 0.0 0.0 1.0
  outer loop
    vertex 10.0 33.0 6.0
    vertex 7.999999999999999 6.0 6.0
    vertex 10.0 30.0 6.0
  endloop
endfacet
endsolid y-bracket
