solid y-bracket2
facet normal 1.0 -0.0 -0.0
  outer loop
    vertex 16.499999999999996 15.999999999999998 0.0
    vertex 16.499999999999996 12.999999999999998 6.0
    vertex 16.499999999999996 12.999999999999998 0.0
  endloop
endfacet
facet normal 1.0 -0.0 -0.0
  outer loop
    vertex 16.499999999999996 12.999999999999998 6.0
    vertex 16.499999999999996 15.999999999999998 0.0
    vertex 16.499999999999996 15.999999999999998 6.0
  endloop
endfacet
facet normal -1.0 0.0 0.0
  outer loop
    vertex 6.500000000000002 2.9999999999999996 6.0
    vertex 6.500000000000002 0.0 0.0
    vertex 6.500000000000002 0.0 6.0
  endloop
endfacet
facet normal -1.0 0.0 0.0
  outer loop
    vertex 6.500000000000002 0.0 0.0
    vertex 6.500000000000002 2.9999999999999996 6.0
    vertex 6.500000000000002 2.9999999999999996 0.0
  endloop
endfacet
facet normal 0.0 -1.0 0.0
  outer loop
    vertex 23.0 2.9999999999999996 6.0
    vertex 16.499999999999996 2.9999999999999996 0.0
    vertex 23.0 2.9999999999999996 0.0
  endloop
endfacet
facet normal 0.0 -1.0 0.0
  outer loop
    vertex 16.499999999999996 2.9999999999999996 0.0
    vertex 23.0 2.9999999999999996 6.0
    vertex 16.499999999999996 2.9999999999999996 6.0
  endloop
endfacet
facet normal 0.0 -1.0 0.0
  outer loop
    vertex 6.500000000000002 2.9999999999999996 6.0
    vertex 0.0 2.9999999999999996 0.0
    vertex 6.500000000000002 2.9999999999999996 0.0
  endloop
endfacet
facet normal 0.0 -1.0 0.0
  outer loop
    vertex 0.0 2.9999999999999996 0.0
    vertex 6.500000000000002 2.9999999999999996 6.0
    vertex 0.0 2.9999999999999996 6.0
  endloop
endfacet
facet normal 1.0 0.0 0.0
  outer loop
    vertex 23.0 12.999999999999998 0.0
    vertex 23.0 2.9999999999999996 6.0
    vertex 23.0 2.9999999999999996 0.0
  endloop
endfacet
facet normal 1.0 0.0 0.0
  outer loop
    vertex 23.0 2.9999999999999996 6.0
    vertex 23.0 12.999999999999998 0.0
    vertex 23.0 12.999999999999998 6.0
  endloop
endfacet
facet normal -1.0 0.0 0.0
  outer loop
    vertex 0.0 12.999999999999998 6.0
    vertex 0.0 2.9999999999999996 0.0
    vertex 0.0 2.9999999999999996 6.0
  endloop
endfacet
facet normal -1.0 0.0 0.0
  outer loop
    vertex 0.0 2.9999999999999996 0.0
    vertex 0.0 12.999999999999998 6.0
    vertex 0.0 12.999999999999998 0.0
  endloop
endfacet
facet normal -0.0 1.0 -0.0
  outer loop
    vertex 0.0 12.999999999999998 6.0
    vertex 6.5000000000000036 12.999999999999998 0.0
    vertex 0.0 12.999999999999998 0.0
  endloop
endfacet
facet normal -0.0 1.0 -0.0
  outer loop
    vertex 6.5000000000000036 12.999999999999998 0.0
    vertex 0.0 12.999999999999998 6.0
    vertex 6.5000000000000036 12.999999999999998 6.0
  endloop
endfacet
facet normal 0.0 0.0 -1.0
  outer loop
    vertex 16.499999999999996 15.999999999999998 0.0
    vertex 6.5000000000000036 12.999999999999998 0.0
    vertex 6.5000000000000036 15.999999999999998 0.0
  endloop
endfacet
facet normal 0.0 0.0 -1.0
  outer loop
    vertex 6.5000000000000036 12.999999999999998 0.0
    vertex 16.499999999999996 15.999999999999998 0.0
    vertex 10.085786437626904 9.414213562373096 0.0
  endloop
endfacet
facet normal 0.0 0.0 -1.0
  outer loop
    vertex 6.5000000000000036 12.999999999999998 0.0
    vertex 10.085786437626904 9.414213562373096 0.0
    vertex 9.767949192431123 9.0 0.0
  endloop
endfacet
facet normal 0.0 0.0 -1.0
  outer loop
    vertex 6.5000000000000036 12.999999999999998 0.0
    vertex 9.767949192431123 9.0 0.0
    vertex 9.568148347421863 8.517638090205041 0.0
  endloop
endfacet
facet normal 0.0 0.0 -1.0
  outer loop
    vertex 6.5000000000000036 12.999999999999998 0.0
    vertex 9.568148347421863 8.517638090205041 0.0
    vertex 9.5 7.999999999999999 0.0
  endloop
endfacet
facet normal 0.0 0.0 -1.0
  outer loop
    vertex 10.085786437626904 9.414213562373096 0.0
    vertex 16.499999999999996 15.999999999999998 0.0
    vertex 10.5 9.732050807568879 0.0
  endloop
endfacet
facet normal 0.0 0.0 -1.0
  outer loop
    vertex 10.5 9.732050807568879 0.0
    vertex 16.499999999999996 15.999999999999998 0.0
    vertex 10.982361909794959 9.931851652578137 0.0
  endloop
endfacet
facet normal 0.0 0.0 -1.0
  outer loop
    vertex 10.982361909794959 9.931851652578137 0.0
    vertex 16.499999999999996 15.999999999999998 0.0
    vertex 11.5 10.0 0.0
  endloop
endfacet
facet normal 0.0 0.0 -1.0
  outer loop
    vertex 11.5 10.0 0.0
    vertex 16.499999999999996 15.999999999999998 0.0
    vertex 12.017638090205043 9.931851652578137 0.0
  endloop
endfacet
facet normal 0.0 0.0 -1.0
  outer loop
    vertex 12.017638090205043 9.931851652578137 0.0
    vertex 16.499999999999996 15.999999999999998 0.0
    vertex 12.500000000000002 9.732050807568879 0.0
  endloop
endfacet
facet normal 0.0 0.0 -1.0
  outer loop
    vertex 12.500000000000002 9.732050807568879 0.0
    vertex 16.499999999999996 15.999999999999998 0.0
    vertex 12.914213562373094 9.414213562373096 0.0
  endloop
endfacet
facet normal 0.0 0.0 -1.0
  outer loop
    vertex 12.914213562373094 9.414213562373096 0.0
    vertex 16.499999999999996 15.999999999999998 0.0
    vertex 13.232050807568877 8.999999999999998 0.0
  endloop
endfacet
facet normal 0.0 0.0 -1.0
  outer loop
    vertex 13.232050807568877 8.999999999999998 0.0
    vertex 16.499999999999996 15.999999999999998 0.0
    vertex 13.431851652578137 8.517638090205041 0.0
  endloop
endfacet
facet normal 0.0 0.0 -1.0
  outer loop
    vertex 13.431851652578137 8.517638090205041 0.0
    vertex 16.499999999999996 15.999999999999998 0.0
    vertex 13.5 7.999999999999999 0.0
  endloop
endfacet
facet normal 0.0 0.0 -1.0
  outer loop
    vertex 23.0 12.999999999999998 0.0
    vertex 16.499999999999996 2.9999999999999996 0.0
    vertex 16.499999999999996 12.999999999999998 0.0
  endloop
endfacet
facet normal 0.0 0.0 -1.0
  outer loop
    vertex 16.499999999999996 2.9999999999999996 0.0
    vertex 23.0 12.999999999999998 0.0
    vertex 23.0 2.9999999999999996 0.0
  endloop
endfacet
facet normal 0.0 0.0 -1.0
  outer loop
    vertex 6.5000000000000036 12.999999999999998 0.0
    vertex 0.0 2.9999999999999996 0.0
    vertex 0.0 12.999999999999998 0.0
  endloop
endfacet
facet normal 0.0 0.0 -1.0
  outer loop
    vertex 0.0 2.9999999999999996 0.0
    vertex 6.5000000000000036 12.999999999999998 0.0
    vertex 6.500000000000002 2.9999999999999996 0.0
  endloop
endfacet
facet normal 0.0 0.0 -1.0
  outer loop
    vertex 6.500000000000002 2.9999999999999996 0.0
    vertex 6.5000000000000036 12.999999999999998 0.0
    vertex 6.500000000000002 0.0 0.0
  endloop
endfacet
facet normal 0.0 0.0 -1.0
  outer loop
    vertex 6.500000000000002 0.0 0.0
    vertex 6.5000000000000036 12.999999999999998 0.0
    vertex 9.767949192431121 7.0 0.0
  endloop
endfacet
facet normal 0.0 0.0 -1.0
  outer loop
    vertex 6.500000000000002 0.0 0.0
    vertex 9.767949192431121 7.0 0.0
    vertex 10.085786437626904 6.585786437626905 0.0
  endloop
endfacet
facet normal 0.0 0.0 -1.0
  outer loop
    vertex 6.500000000000002 0.0 0.0
    vertex 10.085786437626904 6.585786437626905 0.0
    vertex 16.499999999999996 0.0 0.0
  endloop
endfacet
facet normal 0.0 0.0 -1.0
  outer loop
    vertex 9.767949192431121 7.0 0.0
    vertex 6.5000000000000036 12.999999999999998 0.0
    vertex 9.568148347421863 7.4823619097949585 0.0
  endloop
endfacet
facet normal 0.0 0.0 -1.0
  outer loop
    vertex 9.568148347421863 7.4823619097949585 0.0
    vertex 6.5000000000000036 12.999999999999998 0.0
    vertex 9.5 7.999999999999999 0.0
  endloop
endfacet
facet normal 0.0 0.0 -1.0
  outer loop
    vertex 16.499999999999996 0.0 0.0
    vertex 10.085786437626904 6.585786437626905 0.0
    vertex 10.499999999999998 6.2679491924311215 0.0
  endloop
endfacet
facet normal 0.0 0.0 -1.0
  outer loop
    vertex 16.499999999999996 0.0 0.0
    vertex 10.499999999999998 6.2679491924311215 0.0
    vertex 10.982361909794957 6.068148347421863 0.0
  endloop
endfacet
facet normal 0.0 0.0 -1.0
  outer loop
    vertex 16.499999999999996 0.0 0.0
    vertex 10.982361909794957 6.068148347421863 0.0
    vertex 11.5 5.999999999999999 0.0
  endloop
endfacet
facet normal 0.0 0.0 -1.0
  outer loop
    vertex 16.499999999999996 0.0 0.0
    vertex 11.5 5.999999999999999 0.0
    vertex 12.017638090205041 6.068148347421863 0.0
  endloop
endfacet
facet normal 0.0 0.0 -1.0
  outer loop
    vertex 16.499999999999996 0.0 0.0
    vertex 12.017638090205041 6.068148347421863 0.0
    vertex 12.5 6.2679491924311215 0.0
  endloop
endfacet
facet normal 0.0 0.0 -1.0
  outer loop
    vertex 16.499999999999996 0.0 0.0
    vertex 12.5 6.2679491924311215 0.0
    vertex 12.914213562373094 6.585786437626903 0.0
  endloop
endfacet
facet normal 0.0 0.0 -1.0
  outer loop
    vertex 16.499999999999996 0.0 0.0
    vertex 12.914213562373094 6.585786437626903 0.0
    vertex 13.232050807568877 6.999999999999998 0.0
  endloop
endfacet
facet normal 0.0 0.0 -1.0
  outer loop
    vertex 16.499999999999996 0.0 0.0
    vertex 13.232050807568877 6.999999999999998 0.0
    vertex 13.431851652578137 7.482361909794957 0.0
  endloop
endfacet
facet normal 0.0 0.0 -1.0
  outer loop
    vertex 16.499999999999996 0.0 0.0
    vertex 13.431851652578137 7.482361909794957 0.0
    vertex 13.5 7.999999999999999 0.0
  endloop
endfacet
facet normal 0.0 0.0 -1.0
  outer loop
    vertex 16.499999999999996 0.0 0.0
    vertex 13.5 7.999999999999999 0.0
    vertex 16.499999999999996 15.999999999999998 0.0
  endloop
endfacet
facet normal 0.0 0.0 -1.0
  outer loop
    vertex 16.499999999999996 0.0 0.0
    vertex 16.499999999999996 15.999999999999998 0.0
    vertex 16.499999999999996 12.999999999999998 0.0
  endloop
endfacet
facet normal 0.0 0.0 -1.0
  outer loop
    vertex 16.499999999999996 0.0 0.0
    vertex 16.499999999999996 12.999999999999998 0.0
    vertex 16.499999999999996 2.9999999999999996 0.0
  endloop
endfacet
facet normal -0.6087614290087213 0.7933533402912347 0.0
  outer loop
    vertex 12.5 6.2679491924311215 6.0
    vertex 12.914213562373094 6.585786437626903 0.0
    vertex 12.5 6.2679491924311215 0.0
  endloop
endfacet
facet normal -0.6087614290087213 0.7933533402912347 0.0
  outer loop
    vertex 12.914213562373094 6.585786437626903 0.0
    vertex 12.5 6.2679491924311215 6.0
    vertex 12.914213562373094 6.585786437626903 6.0
  endloop
endfacet
facet normal 0.9914448613738105 -0.13052619222005143 0.0
  outer loop
    vertex 9.568148347421863 8.517638090205041 0.0
    vertex 9.5 7.999999999999999 6.0
    vertex 9.5 7.999999999999999 0.0
  endloop
endfacet
facet normal 0.9914448613738105 -0.13052619222005143 0.0
  outer loop
    vertex 9.5 7.999999999999999 6.0
    vertex 9.568148347421863 8.517638090205041 0.0
    vertex 9.568148347421863 8.517638090205041 6.0
  endloop
endfacet
facet normal 0.3826834323650902 0.9238795325112867 0.0
  outer loop
    vertex 10.499999999999998 6.2679491924311215 6.0
    vertex 10.982361909794957 6.068148347421863 0.0
    vertex 10.499999999999998 6.2679491924311215 0.0
  endloop
endfacet
facet normal 0.3826834323650902 0.9238795325112867 0.0
  outer loop
    vertex 10.982361909794957 6.068148347421863 0.0
    vertex 10.499999999999998 6.2679491924311215 6.0
    vertex 10.982361909794957 6.068148347421863 6.0
  endloop
endfacet
facet normal -0.9238795325112861 0.3826834323650913 0.0
  outer loop
    vertex 13.431851652578137 7.482361909794957 6.0
    vertex 13.232050807568877 6.999999999999998 0.0
    vertex 13.232050807568877 6.999999999999998 6.0
  endloop
endfacet
facet normal -0.9238795325112861 0.3826834323650913 0.0
  outer loop
    vertex 13.232050807568877 6.999999999999998 0.0
    vertex 13.431851652578137 7.482361909794957 6.0
    vertex 13.431851652578137 7.482361909794957 0.0
  endloop
endfacet
facet normal 0.38268343236508895 -0.9238795325112871 0.0
  outer loop
    vertex 10.982361909794959 9.931851652578137 6.0
    vertex 10.5 9.732050807568879 0.0
    vertex 10.982361909794959 9.931851652578137 0.0
  endloop
endfacet
facet normal 0.38268343236508895 -0.9238795325112871 0.0
  outer loop
    vertex 10.5 9.732050807568879 0.0
    vertex 10.982361909794959 9.931851652578137 6.0
    vertex 10.5 9.732050807568879 6.0
  endloop
endfacet
facet normal 0.7933533402912359 -0.6087614290087197 0.0
  outer loop
    vertex 10.085786437626904 9.414213562373096 0.0
    vertex 9.767949192431123 9.0 6.0
    vertex 9.767949192431123 9.0 0.0
  endloop
endfacet
facet normal 0.7933533402912359 -0.6087614290087197 0.0
  outer loop
    vertex 9.767949192431123 9.0 6.0
    vertex 10.085786437626904 9.414213562373096 0.0
    vertex 10.085786437626904 9.414213562373096 6.0
  endloop
endfacet
facet normal 0.13052619222005143 0.9914448613738105 0.0
  outer loop
    vertex 10.982361909794957 6.068148347421863 6.0
    vertex 11.5 5.999999999999999 0.0
    vertex 10.982361909794957 6.068148347421863 0.0
  endloop
endfacet
facet normal 0.13052619222005143 0.9914448613738105 0.0
  outer loop
    vertex 11.5 5.999999999999999 0.0
    vertex 10.982361909794957 6.068148347421863 6.0
    vertex 11.5 5.999999999999999 6.0
  endloop
endfacet
facet normal -0.7933533402912347 0.6087614290087213 0.0
  outer loop
    vertex 13.232050807568877 6.999999999999998 6.0
    vertex 12.914213562373094 6.585786437626903 0.0
    vertex 12.914213562373094 6.585786437626903 6.0
  endloop
endfacet
facet normal -0.7933533402912347 0.6087614290087213 0.0
  outer loop
    vertex 12.914213562373094 6.585786437626903 0.0
    vertex 13.232050807568877 6.999999999999998 6.0
    vertex 13.232050807568877 6.999999999999998 0.0
  endloop
endfacet
facet normal 0.60876142900872 -0.7933533402912356 0.0
  outer loop
    vertex 10.5 9.732050807568879 6.0
    vertex 10.085786437626904 9.414213562373096 0.0
    vertex 10.5 9.732050807568879 0.0
  endloop
endfacet
facet normal 0.60876142900872 -0.7933533402912356 0.0
  outer loop
    vertex 10.085786437626904 9.414213562373096 0.0
    vertex 10.5 9.732050807568879 6.0
    vertex 10.085786437626904 9.414213562373096 6.0
  endloop
endfacet
facet normal 0.9238795325112861 -0.3826834323650913 0.0
  outer loop
    vertex 9.767949192431123 9.0 0.0
    vertex 9.568148347421863 8.517638090205041 6.0
    vertex 9.568148347421863 8.517638090205041 0.0
  endloop
endfacet
facet normal 0.9238795325112861 -0.3826834323650913 0.0
  outer loop
    vertex 9.568148347421863 8.517638090205041 6.0
    vertex 9.767949192431123 9.0 0.0
    vertex 9.767949192431123 9.0 6.0
  endloop
endfacet
facet normal 0.7933533402912347 0.6087614290087213 0.0
  outer loop
    vertex 9.767949192431121 7.0 0.0
    vertex 10.085786437626904 6.585786437626905 6.0
    vertex 10.085786437626904 6.585786437626905 0.0
  endloop
endfacet
facet normal 0.7933533402912347 0.6087614290087213 0.0
  outer loop
    vertex 10.085786437626904 6.585786437626905 6.0
    vertex 9.767949192431121 7.0 0.0
    vertex 9.767949192431121 7.0 6.0
  endloop
endfacet
facet normal 0.9238795325112871 0.38268343236508895 0.0
  outer loop
    vertex 9.568148347421863 7.4823619097949585 0.0
    vertex 9.767949192431121 7.0 6.0
    vertex 9.767949192431121 7.0 0.0
  endloop
endfacet
facet normal 0.9238795325112871 0.38268343236508895 0.0
  outer loop
    vertex 9.767949192431121 7.0 6.0
    vertex 9.568148347421863 7.4823619097949585 0.0
    vertex 9.568148347421863 7.4823619097949585 6.0
  endloop
endfacet
facet normal -0.38268343236508895 0.9238795325112871 0.0
  outer loop
    vertex 12.017638090205041 6.068148347421863 6.0
    vertex 12.5 6.2679491924311215 0.0
    vertex 12.017638090205041 6.068148347421863 0.0
  endloop
endfacet
facet normal -0.38268343236508895 0.9238795325112871 0.0
  outer loop
    vertex 12.5 6.2679491924311215 0.0
    vertex 12.017638090205041 6.068148347421863 6.0
    vertex 12.5 6.2679491924311215 6.0
  endloop
endfacet
facet normal -0.1305261922200518 0.9914448613738104 0.0
  outer loop
    vertex 11.5 5.999999999999999 6.0
    vertex 12.017638090205041 6.068148347421863 0.0
    vertex 11.5 5.999999999999999 0.0
  endloop
endfacet
facet normal -0.1305261922200518 0.9914448613738104 0.0
  outer loop
    vertex 12.017638090205041 6.068148347421863 0.0
    vertex 11.5 5.999999999999999 6.0
    vertex 12.017638090205041 6.068148347421863 6.0
  endloop
endfacet
facet normal 0.6087614290087221 0.7933533402912339 0.0
  outer loop
    vertex 10.085786437626904 6.585786437626905 6.0
    vertex 10.499999999999998 6.2679491924311215 0.0
    vertex 10.085786437626904 6.585786437626905 0.0
  endloop
endfacet
facet normal 0.6087614290087221 0.7933533402912339 0.0
  outer loop
    vertex 10.499999999999998 6.2679491924311215 0.0
    vertex 10.085786437626904 6.585786437626905 6.0
    vertex 10.499999999999998 6.2679491924311215 6.0
  endloop
endfacet
facet normal 0.9914448613738104 0.1305261922200518 0.0
  outer loop
    vertex 9.5 7.999999999999999 0.0
    vertex 9.568148347421863 7.4823619097949585 6.0
    vertex 9.568148347421863 7.4823619097949585 0.0
  endloop
endfacet
facet normal 0.9914448613738104 0.1305261922200518 0.0
  outer loop
    vertex 9.568148347421863 7.4823619097949585 6.0
    vertex 9.5 7.999999999999999 0.0
    vertex 9.5 7.999999999999999 6.0
  endloop
endfacet
facet normal 0.1305261922200518 -0.9914448613738104 0.0
  outer loop
    vertex 11.5 10.0 6.0
    vertex 10.982361909794959 9.931851652578137 0.0
    vertex 11.5 10.0 0.0
  endloop
endfacet
facet normal 0.1305261922200518 -0.9914448613738104 0.0
  outer loop
    vertex 10.982361909794959 9.931851652578137 0.0
    vertex 11.5 10.0 6.0
    vertex 10.982361909794959 9.931851652578137 6.0
  endloop
endfacet
facet normal -0.9238795325112861 -0.3826834323650913 -0.0
  outer loop
    vertex 13.232050807568877 8.999999999999998 6.0
    vertex 13.431851652578137 8.517638090205041 0.0
    vertex 13.431851652578137 8.517638090205041 6.0
  endloop
endfacet
facet normal -0.9238795325112861 -0.3826834323650913 -0.0
  outer loop
    vertex 13.431851652578137 8.517638090205041 0.0
    vertex 13.232050807568877 8.999999999999998 6.0
    vertex 13.232050807568877 8.999999999999998 0.0
  endloop
endfacet
facet normal -0.6087614290087227 -0.7933533402912337 -0.0
  outer loop
    vertex 12.914213562373094 9.414213562373096 6.0
    vertex 12.500000000000002 9.732050807568879 0.0
    vertex 12.914213562373094 9.414213562373096 0.0
  endloop
endfacet
facet normal -0.6087614290087227 -0.7933533402912337 -0.0
  outer loop
    vertex 12.500000000000002 9.732050807568879 0.0
    vertex 12.914213562373094 9.414213562373096 6.0
    vertex 12.500000000000002 9.732050807568879 6.0
  endloop
endfacet
facet normal -0.0 1.0 -0.0
  outer loop
    vertex 16.499999999999996 12.999999999999998 6.0
    vertex 23.0 12.999999999999998 0.0
    vertex 16.499999999999996 12.999999999999998 0.0
  endloop
endfacet
facet normal -0.0 1.0 -0.0
  outer loop
    vertex 23.0 12.999999999999998 0.0
    vertex 16.499999999999996 12.999999999999998 6.0
    vertex 23.0 12.999999999999998 6.0
  endloop
endfacet
facet normal -0.9914448613738105 0.13052619222005143 0.0
  outer loop
    vertex 13.5 7.999999999999999 6.0
    vertex 13.431851652578137 7.482361909794957 0.0
    vertex 13.431851652578137 7.482361909794957 6.0
  endloop
endfacet
facet normal -0.9914448613738105 0.13052619222005143 0.0
  outer loop
    vertex 13.431851652578137 7.482361909794957 0.0
    vertex 13.5 7.999999999999999 6.0
    vertex 13.5 7.999999999999999 0.0
  endloop
endfacet
facet normal -0.7933533402912356 -0.60876142900872 -0.0
  outer loop
    vertex 12.914213562373094 9.414213562373096 6.0
    vertex 13.232050807568877 8.999999999999998 0.0
    vertex 13.232050807568877 8.999999999999998 6.0
  endloop
endfacet
facet normal -0.7933533402912356 -0.60876142900872 -0.0
  outer loop
    vertex 13.232050807568877 8.999999999999998 0.0
    vertex 12.914213562373094 9.414213562373096 6.0
    vertex 12.914213562373094 9.414213562373096 0.0
  endloop
endfacet
facet normal -0.38268343236508895 -0.9238795325112871 -0.0
  outer loop
    vertex 12.500000000000002 9.732050807568879 6.0
    vertex 12.017638090205043 9.931851652578137 0.0
    vertex 12.500000000000002 9.732050807568879 0.0
  endloop
endfacet
facet normal -0.38268343236508895 -0.9238795325112871 -0.0
  outer loop
    vertex 12.017638090205043 9.931851652578137 0.0
    vertex 12.500000000000002 9.732050807568879 6.0
    vertex 12.017638090205043 9.931851652578137 6.0
  endloop
endfacet
facet normal -0.13052619222005143 -0.9914448613738105 -0.0
  outer loop
    vertex 12.017638090205043 9.931851652578137 6.0
    vertex 11.5 10.0 0.0
    vertex 12.017638090205043 9.931851652578137 0.0
  endloop
endfacet
facet normal -0.13052619222005143 -0.9914448613738105 -0.0
  outer loop
    vertex 11.5 10.0 0.0
    vertex 12.017638090205043 9.931851652578137 6.0
    vertex 11.5 10.0 6.0
  endloop
endfacet
facet normal -0.9914448613738104 -0.1305261922200518 -0.0
  outer loop
    vertex 13.431851652578137 8.517638090205041 6.0
    vertex 13.5 7.999999999999999 0.0
    vertex 13.5 7.999999999999999 6.0
  endloop
endfacet
facet normal -0.9914448613738104 -0.1305261922200518 -0.0
  outer loop
    vertex 13.5 7.999999999999999 0.0
    vertex 13.431851652578137 8.517638090205041 6.0
    vertex 13.431851652578137 8.517638090205041 0.0
  endloop
endfacet
facet normal -1.0 0.0 0.0
  outer loop
    vertex 6.5000000000000036 15.999999999999998 6.0
    vertex 6.5000000000000036 12.999999999999998 0.0
    vertex 6.5000000000000036 12.999999999999998 6.0
  endloop
endfacet
facet normal -1.0 0.0 0.0
  outer loop
    vertex 6.5000000000000036 12.999999999999998 0.0
    vertex 6.5000000000000036 15.999999999999998 6.0
    vertex 6.5000000000000036 15.999999999999998 0.0
  endloop
endfacet
facet normal -0.0 1.0 -0.0
  outer loop
    vertex 6.5000000000000036 15.999999999999998 6.0
    vertex 16.499999999999996 15.999999999999998 0.0
    vertex 6.5000000000000036 15.999999999999998 0.0
  endloop
endfacet
facet normal -0.0 1.0 -0.0
  outer loop
    vertex 16.499999999999996 15.999999999999998 0.0
    vertex 6.5000000000000036 15.999999999999998 6.0
    vertex 16.499999999999996 15.999999999999998 6.0
  endloop
endfacet
facet normal 0.0 -1.0 0.0
  outer loop
    vertex 16.499999999999996 0.0 6.0
    vertex 6.500000000000002 0.0 0.0
    vertex 16.499999999999996 0.0 0.0
  endloop
endfacet
facet normal 0.0 -1.0 0.0
  outer loop
    vertex 6.500000000000002 0.0 0.0
    vertex 16.499999999999996 0.0 6.0
    vertex 6.500000000000002 0.0 6.0
  endloop
endfacet
facet normal 1.0 -0.0 -0.0
  outer loop
    vertex 16.499999999999996 2.9999999999999996 0.0
    vertex 16.499999999999996 0.0 6.0
    vertex 16.499999999999996 0.0 0.0
  endloop
endfacet
facet normal 1.0 -0.0 -0.0
  outer loop
    vertex 16.499999999999996 0.0 6.0
    vertex 16.499999999999996 2.9999999999999996 0.0
    vertex 16.499999999999996 2.9999999999999996 6.0
  endloop
endfacet
facet normal -0.0 -0.0 1.0
  outer loop
    vertex 16.499999999999996 0.0 6.0
    vertex 6.500000000000002 2.9999999999999996 6.0
    vertex 6.500000000000002 0.0 6.0
  endloop
endfacet
facet normal -0.0 -0.0 1.0
  outer loop
    vertex 6.500000000000002 2.9999999999999996 6.0
    vertex 16.499999999999996 0.0 6.0
    vertex 10.085786437626904 6.585786437626905 6.0
  endloop
endfacet
facet normal -0.0 -0.0 1.0
  outer loop
    vertex 6.500000000000002 2.9999999999999996 6.0
    vertex 10.085786437626904 6.585786437626905 6.0
    vertex 9.767949192431121 7.0 6.0
  endloop
endfacet
facet normal -0.0 -0.0 1.0
  outer loop
    vertex 6.500000000000002 2.9999999999999996 6.0
    vertex 9.767949192431121 7.0 6.0
    vertex 6.5000000000000036 12.999999999999998 6.0
  endloop
endfacet
facet normal -0.0 -0.0 1.0
  outer loop
    vertex 6.5000000000000036 12.999999999999998 6.0
    vertex 9.767949192431121 7.0 6.0
    vertex 9.568148347421863 7.4823619097949585 6.0
  endloop
endfacet
facet normal -0.0 -0.0 1.0
  outer loop
    vertex 6.5000000000000036 12.999999999999998 6.0
    vertex 9.568148347421863 7.4823619097949585 6.0
    vertex 6.5000000000000036 15.999999999999998 6.0
  endloop
endfacet
facet normal -0.0 -0.0 1.0
  outer loop
    vertex 6.5000000000000036 15.999999999999998 6.0
    vertex 9.568148347421863 7.4823619097949585 6.0
    vertex 9.5 7.999999999999999 6.0
  endloop
endfacet
facet normal -0.0 -0.0 1.0
  outer loop
    vertex 10.085786437626904 6.585786437626905 6.0
    vertex 16.499999999999996 0.0 6.0
    vertex 10.499999999999998 6.2679491924311215 6.0
  endloop
endfacet
facet normal -0.0 -0.0 1.0
  outer loop
    vertex 10.499999999999998 6.2679491924311215 6.0
    vertex 16.499999999999996 0.0 6.0
    vertex 10.982361909794957 6.068148347421863 6.0
  endloop
endfacet
facet normal -0.0 -0.0 1.0
  outer loop
    vertex 10.982361909794957 6.068148347421863 6.0
    vertex 16.499999999999996 0.0 6.0
    vertex 11.5 5.999999999999999 6.0
  endloop
endfacet
facet normal -0.0 -0.0 1.0
  outer loop
    vertex 11.5 5.999999999999999 6.0
    vertex 16.499999999999996 0.0 6.0
    vertex 12.017638090205041 6.068148347421863 6.0
  endloop
endfacet
facet normal -0.0 -0.0 1.0
  outer loop
    vertex 12.017638090205041 6.068148347421863 6.0
    vertex 16.499999999999996 0.0 6.0
    vertex 12.5 6.2679491924311215 6.0
  endloop
endfacet
facet normal -0.0 -0.0 1.0
  outer loop
    vertex 12.5 6.2679491924311215 6.0
    vertex 16.499999999999996 0.0 6.0
    vertex 12.914213562373094 6.585786437626903 6.0
  endloop
endfacet
facet normal -0.0 -0.0 1.0
  outer loop
    vertex 12.914213562373094 6.585786437626903 6.0
    vertex 16.499999999999996 0.0 6.0
    vertex 13.232050807568877 6.999999999999998 6.0
  endloop
endfacet
facet normal -0.0 -0.0 1.0
  outer loop
    vertex 13.232050807568877 6.999999999999998 6.0
    vertex 16.499999999999996 0.0 6.0
    vertex 13.431851652578137 7.482361909794957 6.0
  endloop
endfacet
facet normal -0.0 -0.0 1.0
  outer loop
    vertex 13.431851652578137 7.482361909794957 6.0
    vertex 16.499999999999996 0.0 6.0
    vertex 13.5 7.999999999999999 6.0
  endloop
endfacet
facet normal -0.0 -0.0 1.0
  outer loop
    vertex 23.0 2.9999999999999996 6.0
    vertex 16.499999999999996 12.999999999999998 6.0
    vertex 16.499999999999996 2.9999999999999996 6.0
  endloop
endfacet
facet normal -0.0 -0.0 1.0
  outer loop
    vertex 16.499999999999996 12.999999999999998 6.0
    vertex 23.0 2.9999999999999996 6.0
    vertex 23.0 12.999999999999998 6.0
  endloop
endfacet
facet normal -0.0 -0.0 1.0
  outer loop
    vertex 6.5000000000000036 15.999999999999998 6.0
    vertex 10.085786437626904 9.414213562373096 6.0
    vertex 16.499999999999996 15.999999999999998 6.0
  endloop
endfacet
facet normal -0.0 -0.0 1.0
  outer loop
    vertex 10.085786437626904 9.414213562373096 6.0
    vertex 6.5000000000000036 15.999999999999998 6.0
    vertex 9.767949192431123 9.0 6.0
  endloop
endfacet
facet normal -0.0 -0.0 1.0
  outer loop
    vertex 9.767949192431123 9.0 6.0
    vertex 6.5000000000000036 15.999999999999998 6.0
    vertex 9.568148347421863 8.517638090205041 6.0
  endloop
endfacet
facet normal -0.0 -0.0 1.0
  outer loop
    vertex 9.568148347421863 8.517638090205041 6.0
    vertex 6.5000000000000036 15.999999999999998 6.0
    vertex 9.5 7.999999999999999 6.0
  endloop
endfacet
facet normal -0.0 -0.0 1.0
  outer loop
    vertex 16.499999999999996 15.999999999999998 6.0
    vertex 10.085786437626904 9.414213562373096 6.0
    vertex 10.5 9.732050807568879 6.0
  endloop
endfacet
facet normal -0.0 -0.0 1.0
  outer loop
    vertex 16.499999999999996 15.999999999999998 6.0
    vertex 10.5 9.732050807568879 6.0
    vertex 10.982361909794959 9.931851652578137 6.0
  endloop
endfacet
facet normal -0.0 -0.0 1.0
  outer loop
    vertex 16.499999999999996 15.999999999999998 6.0
    vertex 10.982361909794959 9.931851652578137 6.0
    vertex 11.5 10.0 6.0
  endloop
endfacet
facet normal -0.0 -0.0 1.0
  outer loop
    vertex 16.499999999999996 15.999999999999998 6.0
    vertex 11.5 10.0 6.0
    vertex 12.017638090205043 9.931851652578137 6.0
  endloop
endfacet
facet normal -0.0 -0.0 1.0
  outer loop
    vertex 16.499999999999996 15.999999999999998 6.0
    vertex 12.017638090205043 9.931851652578137 6.0
    vertex 12.500000000000002 9.732050807568879 6.0
  endloop
endfacet
facet normal -0.0 -0.0 1.0
  outer loop
    vertex 16.499999999999996 15.999999999999998 6.0
    vertex 12.500000000000002 9.732050807568879 6.0
    vertex 12.914213562373094 9.414213562373096 6.0
  endloop
endfacet
facet normal -0.0 -0.0 1.0
  outer loop
    vertex 16.499999999999996 15.999999999999998 6.0
    vertex 12.914213562373094 9.414213562373096 6.0
    vertex 13.232050807568877 8.999999999999998 6.0
  endloop
endfacet
facet normal -0.0 -0.0 1.0
  outer loop
    vertex 16.499999999999996 15.999999999999998 6.0
    vertex 13.232050807568877 8.999999999999998 6.0
    vertex 13.431851652578137 8.517638090205041 6.0
  endloop
endfacet
facet normal -0.0 -0.0 1.0
  outer loop
    vertex 16.499999999999996 15.999999999999998 6.0
    vertex 13.431851652578137 8.517638090205041 6.0
    vertex 13.5 7.999999999999999 6.0
  endloop
endfacet
facet normal -0.0 -0.0 1.0
  outer loop
    vertex 16.499999999999996 15.999999999999998 6.0
    vertex 13.5 7.999999999999999 6.0
    vertex 16.499999999999996 0.0 6.0
  endloop
endfacet
facet normal -0.0 -0.0 1.0
  outer loop
    vertex 16.499999999999996 15.999999999999998 6.0
    vertex 16.499999999999996 0.0 6.0
    vertex 16.499999999999996 2.9999999999999996 6.0
  endloop
endfacet
facet normal -0.0 -0.0 1.0
  outer loop
    vertex 16.499999999999996 15.999999999999998 6.0
    vertex 16.499999999999996 2.9999999999999996 6.0
    vertex 16.499999999999996 12.999999999999998 6.0
  endloop
endfacet
facet normal -0.0 -0.0 1.0
  outer loop
    vertex 6.500000000000002 2.9999999999999996 6.0
    vertex 0.0 12.999999999999998 6.0
    vertex 0.0 2.9999999999999996 6.0
  endloop
endfacet
facet normal -0.0 -0.0 1.0
  outer loop
    vertex 0.0 12.999999999999998 6.0
    vertex 6.500000000000002 2.9999999999999996 6.0
    vertex 6.5000000000000036 12.999999999999998 6.0
  endloop
endfacet
endsolid y-bracket2
