solid Lead Block Spacer
facet normal 0.0 0.0 -1.0
  outer loop
    vertex 0.0 20.0 0.0
    vertex 4.988526329025127 11.45 0.0
    vertex 0.0 0.0 0.0
  endloop
endfacet
facet normal 0.0 0.0 -1.0
  outer loop
    vertex 4.988526329025127 11.45 0.0
    vertex 0.0 20.0 0.0
    vertex 5.449390334559011 12.050609665440987 0.0
  endloop
endfacet
facet normal 0.0 0.0 -1.0
  outer loop
    vertex 5.449390334559011 12.050609665440987 0.0
    vertex 0.0 20.0 0.0
    vertex 6.049999999999999 12.511473670974873 0.0
  endloop
endfacet
facet normal 0.0 0.0 -1.0
  outer loop
    vertex 6.049999999999999 12.511473670974873 0.0
    vertex 0.0 20.0 0.0
    vertex 6.7494247692026885 12.801184896238299 0.0
  endloop
endfacet
facet normal 0.0 0.0 -1.0
  outer loop
    vertex 6.7494247692026885 12.801184896238299 0.0
    vertex 0.0 20.0 0.0
    vertex 35.0 20.0 0.0
  endloop
endfacet
facet normal 0.0 0.0 -1.0
  outer loop
    vertex 0.0 0.0 0.0
    vertex 4.988526329025127 11.45 0.0
    vertex 4.698815103761702 10.75057523079731 0.0
  endloop
endfacet
facet normal 0.0 0.0 -1.0
  outer loop
    vertex 0.0 0.0 0.0
    vertex 4.698815103761702 10.75057523079731 0.0
    vertex 4.6 10.0 0.0
  endloop
endfacet
facet normal 0.0 0.0 -1.0
  outer loop
    vertex 6.7494247692026885 12.801184896238299 0.0
    vertex 35.0 20.0 0.0
    vertex 7.5 12.899999999999999 0.0
  endloop
endfacet
facet normal 0.0 0.0 -1.0
  outer loop
    vertex 7.5 12.899999999999999 0.0
    vertex 35.0 20.0 0.0
    vertex 8.25057523079731 12.801184896238299 0.0
  endloop
endfacet
facet normal 0.0 0.0 -1.0
  outer loop
    vertex 8.25057523079731 12.801184896238299 0.0
    vertex 35.0 20.0 0.0
    vertex 8.95 12.511473670974873 0.0
  endloop
endfacet
facet normal 0.0 0.0 -1.0
  outer loop
    vertex 8.95 12.511473670974873 0.0
    vertex 35.0 20.0 0.0
    vertex 9.550609665440987 12.050609665440989 0.0
  endloop
endfacet
facet normal 0.0 0.0 -1.0
  outer loop
    vertex 9.550609665440987 12.050609665440989 0.0
    vertex 35.0 20.0 0.0
    vertex 10.011473670974873 11.450000000000001 0.0
  endloop
endfacet
facet normal 0.0 0.0 -1.0
  outer loop
    vertex 10.011473670974873 11.450000000000001 0.0
    vertex 35.0 20.0 0.0
    vertex 10.301184896238297 10.750575230797311 0.0
  endloop
endfacet
facet normal 0.0 0.0 -1.0
  outer loop
    vertex 10.301184896238297 10.750575230797311 0.0
    vertex 35.0 20.0 0.0
    vertex 10.4 10.0 0.0
  endloop
endfacet
facet normal 0.0 0.0 -1.0
  outer loop
    vertex 10.4 10.0 0.0
    vertex 35.0 20.0 0.0
    vertex 25.44939033455901 12.050609665440987 0.0
  endloop
endfacet
facet normal 0.0 0.0 -1.0
  outer loop
    vertex 10.4 10.0 0.0
    vertex 25.44939033455901 12.050609665440987 0.0
    vertex 24.988526329025127 11.45 0.0
  endloop
endfacet
facet normal 0.0 0.0 -1.0
  outer loop
    vertex 10.4 10.0 0.0
    vertex 24.988526329025127 11.45 0.0
    vertex 24.6988151037617 10.75057523079731 0.0
  endloop
endfacet
facet normal 0.0 0.0 -1.0
  outer loop
    vertex 10.4 10.0 0.0
    vertex 24.6988151037617 10.75057523079731 0.0
    vertex 24.6 10.0 0.0
  endloop
endfacet
facet normal 0.0 0.0 -1.0
  outer loop
    vertex 25.44939033455901 12.050609665440987 0.0
    vertex 35.0 20.0 0.0
    vertex 26.049999999999997 12.511473670974873 0.0
  endloop
endfacet
facet normal 0.0 0.0 -1.0
  outer loop
    vertex 26.049999999999997 12.511473670974873 0.0
    vertex 35.0 20.0 0.0
    vertex 26.749424769202687 12.801184896238299 0.0
  endloop
endfacet
facet normal 0.0 0.0 -1.0
  outer loop
    vertex 26.749424769202687 12.801184896238299 0.0
    vertex 35.0 20.0 0.0
    vertex 27.5 12.899999999999999 0.0
  endloop
endfacet
facet normal 0.0 0.0 -1.0
  outer loop
    vertex 27.5 12.899999999999999 0.0
    vertex 35.0 20.0 0.0
    vertex 28.25057523079731 12.801184896238299 0.0
  endloop
endfacet
facet normal 0.0 0.0 -1.0
  outer loop
    vertex 28.25057523079731 12.801184896238299 0.0
    vertex 35.0 20.0 0.0
    vertex 28.95 12.511473670974873 0.0
  endloop
endfacet
facet normal 0.0 0.0 -1.0
  outer loop
    vertex 28.95 12.511473670974873 0.0
    vertex 35.0 20.0 0.0
    vertex 29.550609665440984 12.050609665440989 0.0
  endloop
endfacet
facet normal 0.0 0.0 -1.0
  outer loop
    vertex 29.550609665440984 12.050609665440989 0.0
    vertex 35.0 20.0 0.0
    vertex 30.011473670974873 11.450000000000001 0.0
  endloop
endfacet
facet normal 0.0 0.0 -1.0
  outer loop
    vertex 30.011473670974873 11.450000000000001 0.0
    vertex 35.0 20.0 0.0
    vertex 30.3011848962383 10.750575230797311 0.0
  endloop
endfacet
facet normal 0.0 0.0 -1.0
  outer loop
    vertex 30.3011848962383 10.750575230797311 0.0
    vertex 35.0 20.0 0.0
    vertex 30.400000000000002 10.0 0.0
  endloop
endfacet
facet normal 0.0 0.0 -1.0
  outer loop
    vertex 0.0 0.0 0.0
    vertex 6.749424769202691 7.198815103761701 0.0
    vertex 35.0 0.0 0.0
  endloop
endfacet
facet normal 0.0 0.0 -1.0
  outer loop
    vertex 6.749424769202691 7.198815103761701 0.0
    vertex 0.0 0.0 0.0
    vertex 6.050000000000001 7.4885263290251265 0.0
  endloop
endfacet
facet normal 0.0 0.0 -1.0
  outer loop
    vertex 6.050000000000001 7.4885263290251265 0.0
    vertex 0.0 0.0 0.0
    vertex 5.449390334559013 7.949390334559012 0.0
  endloop
endfacet
facet normal 0.0 0.0 -1.0
  outer loop
    vertex 5.449390334559013 7.949390334559012 0.0
    vertex 0.0 0.0 0.0
    vertex 4.988526329025128 8.549999999999999 0.0
  endloop
endfacet
facet normal 0.0 0.0 -1.0
  outer loop
    vertex 4.988526329025128 8.549999999999999 0.0
    vertex 0.0 0.0 0.0
    vertex 4.698815103761702 9.249424769202689 0.0
  endloop
endfacet
facet normal 0.0 0.0 -1.0
  outer loop
    vertex 4.698815103761702 9.249424769202689 0.0
    vertex 0.0 0.0 0.0
    vertex 4.6 10.0 0.0
  endloop
endfacet
facet normal 0.0 0.0 -1.0
  outer loop
    vertex 35.0 0.0 0.0
    vertex 6.749424769202691 7.198815103761701 0.0
    vertex 7.5 7.1 0.0
  endloop
endfacet
facet normal 0.0 0.0 -1.0
  outer loop
    vertex 35.0 0.0 0.0
    vertex 7.5 7.1 0.0
    vertex 8.250575230797311 7.198815103761701 0.0
  endloop
endfacet
facet normal 0.0 0.0 -1.0
  outer loop
    vertex 35.0 0.0 0.0
    vertex 8.250575230797311 7.198815103761701 0.0
    vertex 8.950000000000001 7.488526329025128 0.0
  endloop
endfacet
facet normal 0.0 0.0 -1.0
  outer loop
    vertex 35.0 0.0 0.0
    vertex 8.950000000000001 7.488526329025128 0.0
    vertex 9.550609665440987 7.949390334559012 0.0
  endloop
endfacet
facet normal 0.0 0.0 -1.0
  outer loop
    vertex 35.0 0.0 0.0
    vertex 9.550609665440987 7.949390334559012 0.0
    vertex 10.011473670974873 8.55 0.0
  endloop
endfacet
facet normal 0.0 0.0 -1.0
  outer loop
    vertex 35.0 0.0 0.0
    vertex 10.011473670974873 8.55 0.0
    vertex 10.301184896238299 9.249424769202689 0.0
  endloop
endfacet
facet normal 0.0 0.0 -1.0
  outer loop
    vertex 35.0 0.0 0.0
    vertex 10.301184896238299 9.249424769202689 0.0
    vertex 10.4 10.0 0.0
  endloop
endfacet
facet normal 0.0 0.0 -1.0
  outer loop
    vertex 35.0 0.0 0.0
    vertex 10.4 10.0 0.0
    vertex 25.449390334559016 7.949390334559012 0.0
  endloop
endfacet
facet normal 0.0 0.0 -1.0
  outer loop
    vertex 25.449390334559016 7.949390334559012 0.0
    vertex 10.4 10.0 0.0
    vertex 24.988526329025127 8.549999999999999 0.0
  endloop
endfacet
facet normal 0.0 0.0 -1.0
  outer loop
    vertex 24.988526329025127 8.549999999999999 0.0
    vertex 10.4 10.0 0.0
    vertex 24.698815103761703 9.249424769202689 0.0
  endloop
endfacet
facet normal 0.0 0.0 -1.0
  outer loop
    vertex 24.698815103761703 9.249424769202689 0.0
    vertex 10.4 10.0 0.0
    vertex 24.6 10.0 0.0
  endloop
endfacet
facet normal 0.0 0.0 -1.0
  outer loop
    vertex 35.0 0.0 0.0
    vertex 25.449390334559016 7.949390334559012 0.0
    vertex 26.050000000000004 7.4885263290251265 0.0
  endloop
endfacet
facet normal 0.0 0.0 -1.0
  outer loop
    vertex 35.0 0.0 0.0
    vertex 26.050000000000004 7.4885263290251265 0.0
    vertex 26.74942476920269 7.198815103761701 0.0
  endloop
endfacet
facet normal 0.0 0.0 -1.0
  outer loop
    vertex 35.0 0.0 0.0
    vertex 26.74942476920269 7.198815103761701 0.0
    vertex 27.5 7.1 0.0
  endloop
endfacet
facet normal 0.0 0.0 -1.0
  outer loop
    vertex 35.0 0.0 0.0
    vertex 27.5 7.1 0.0
    vertex 28.25057523079731 7.198815103761701 0.0
  endloop
endfacet
facet normal 0.0 0.0 -1.0
  outer loop
    vertex 35.0 0.0 0.0
    vertex 28.25057523079731 7.198815103761701 0.0
    vertex 28.950000000000003 7.488526329025128 0.0
  endloop
endfacet
facet normal 0.0 0.0 -1.0
  outer loop
    vertex 35.0 0.0 0.0
    vertex 28.950000000000003 7.488526329025128 0.0
    vertex 29.55060966544099 7.949390334559012 0.0
  endloop
endfacet
facet normal 0.0 0.0 -1.0
  outer loop
    vertex 35.0 0.0 0.0
    vertex 29.55060966544099 7.949390334559012 0.0
    vertex 30.011473670974873 8.55 0.0
  endloop
endfacet
facet normal 0.0 0.0 -1.0
  outer loop
    vertex 35.0 0.0 0.0
    vertex 30.011473670974873 8.55 0.0
    vertex 30.3011848962383 9.249424769202689 0.0
  endloop
endfacet
facet normal 0.0 0.0 -1.0
  outer loop
    vertex 35.0 0.0 0.0
    vertex 30.3011848962383 9.249424769202689 0.0
    vertex 30.400000000000002 10.0 0.0
  endloop
endfacet
facet normal 0.0 0.0 -1.0
  outer loop
    vertex 35.0 0.0 0.0
    vertex 30.400000000000002 10.0 0.0
    vertex 35.0 20.0 0.0
  endloop
endfacet
facet normal 0.0 0.0 1.0
  outer loop
    vertex 0.0 0.0 1.5
    vertex 4.988526329025128 8.549999999999999 1.5
    vertex 0.0 20.0 1.5
  endloop
endfacet
facet normal 0.0 0.0 1.0
  outer loop
    vertex 4.988526329025128 8.549999999999999 1.5
    vertex 0.0 0.0 1.5
    vertex 5.449390334559013 7.949390334559012 1.5
  endloop
endfacet
facet normal 0.0 0.0 1.0
  outer loop
    vertex 5.449390334559013 7.949390334559012 1.5
    vertex 0.0 0.0 1.5
    vertex 6.050000000000001 7.4885263290251265 1.5
  endloop
endfacet
facet normal 0.0 0.0 1.0
  outer loop
    vertex 6.050000000000001 7.4885263290251265 1.5
    vertex 0.0 0.0 1.5
    vertex 6.749424769202691 7.198815103761701 1.5
  endloop
endfacet
facet normal 0.0 0.0 1.0
  outer loop
    vertex 6.749424769202691 7.198815103761701 1.5
    vertex 0.0 0.0 1.5
    vertex 35.0 0.0 1.5
  endloop
endfacet
facet normal 0.0 0.0 1.0
  outer loop
    vertex 0.0 20.0 1.5
    vertex 4.988526329025128 8.549999999999999 1.5
    vertex 4.698815103761702 9.249424769202689 1.5
  endloop
endfacet
facet normal 0.0 0.0 1.0
  outer loop
    vertex 0.0 20.0 1.5
    vertex 4.698815103761702 9.249424769202689 1.5
    vertex 4.6 10.0 1.5
  endloop
endfacet
facet normal 0.0 0.0 1.0
  outer loop
    vertex 6.749424769202691 7.198815103761701 1.5
    vertex 35.0 0.0 1.5
    vertex 7.5 7.1 1.5
  endloop
endfacet
facet normal 0.0 0.0 1.0
  outer loop
    vertex 7.5 7.1 1.5
    vertex 35.0 0.0 1.5
    vertex 8.250575230797311 7.198815103761701 1.5
  endloop
endfacet
facet normal 0.0 0.0 1.0
  outer loop
    vertex 8.250575230797311 7.198815103761701 1.5
    vertex 35.0 0.0 1.5
    vertex 8.950000000000001 7.488526329025128 1.5
  endloop
endfacet
facet normal 0.0 0.0 1.0
  outer loop
    vertex 8.950000000000001 7.488526329025128 1.5
    vertex 35.0 0.0 1.5
    vertex 9.550609665440987 7.949390334559012 1.5
  endloop
endfacet
facet normal 0.0 0.0 1.0
  outer loop
    vertex 9.550609665440987 7.949390334559012 1.5
    vertex 35.0 0.0 1.5
    vertex 10.011473670974873 8.55 1.5
  endloop
endfacet
facet normal 0.0 0.0 1.0
  outer loop
    vertex 10.011473670974873 8.55 1.5
    vertex 35.0 0.0 1.5
    vertex 10.301184896238299 9.249424769202689 1.5
  endloop
endfacet
facet normal 0.0 0.0 1.0
  outer loop
    vertex 10.301184896238299 9.249424769202689 1.5
    vertex 35.0 0.0 1.5
    vertex 10.4 10.0 1.5
  endloop
endfacet
facet normal 0.0 0.0 1.0
  outer loop
    vertex 10.4 10.0 1.5
    vertex 35.0 0.0 1.5
    vertex 25.449390334559016 7.949390334559012 1.5
  endloop
endfacet
facet normal 0.0 0.0 1.0
  outer loop
    vertex 10.4 10.0 1.5
    vertex 25.449390334559016 7.949390334559012 1.5
    vertex 24.988526329025127 8.549999999999999 1.5
  endloop
endfacet
facet normal 0.0 0.0 1.0
  outer loop
    vertex 10.4 10.0 1.5
    vertex 24.988526329025127 8.549999999999999 1.5
    vertex 24.698815103761703 9.249424769202689 1.5
  endloop
endfacet
facet normal 0.0 0.0 1.0
  outer loop
    vertex 10.4 10.0 1.5
    vertex 24.698815103761703 9.249424769202689 1.5
    vertex 24.6 10.0 1.5
  endloop
endfacet
facet normal 0.0 0.0 1.0
  outer loop
    vertex 25.449390334559016 7.949390334559012 1.5
    vertex 35.0 0.0 1.5
    vertex 26.050000000000004 7.4885263290251265 1.5
  endloop
endfacet
facet normal 0.0 0.0 1.0
  outer loop
    vertex 26.050000000000004 7.4885263290251265 1.5
    vertex 35.0 0.0 1.5
    vertex 26.74942476920269 7.198815103761701 1.5
  endloop
endfacet
facet normal 0.0 0.0 1.0
  outer loop
    vertex 26.74942476920269 7.198815103761701 1.5
    vertex 35.0 0.0 1.5
    vertex 27.5 7.1 1.5
  endloop
endfacet
facet normal 0.0 0.0 1.0
  outer loop
    vertex 27.5 7.1 1.5
    vertex 35.0 0.0 1.5
    vertex 28.25057523079731 7.198815103761701 1.5
  endloop
endfacet
facet normal 0.0 0.0 1.0
  outer loop
    vertex 28.25057523079731 7.198815103761701 1.5
    vertex 35.0 0.0 1.5
    vertex 28.950000000000003 7.488526329025128 1.5
  endloop
endfacet
facet normal 0.0 0.0 1.0
  outer loop
    vertex 28.950000000000003 7.488526329025128 1.5
    vertex 35.0 0.0 1.5
    vertex 29.55060966544099 7.949390334559012 1.5
  endloop
endfacet
facet normal 0.0 0.0 1.0
  outer loop
    vertex 29.55060966544099 7.949390334559012 1.5
    vertex 35.0 0.0 1.5
    vertex 30.011473670974873 8.55 1.5
  endloop
endfacet
facet normal 0.0 0.0 1.0
  outer loop
    vertex 30.011473670974873 8.55 1.5
    vertex 35.0 0.0 1.5
    vertex 30.3011848962383 9.249424769202689 1.5
  endloop
endfacet
facet normal 0.0 0.0 1.0
  outer loop
    vertex 30.3011848962383 9.249424769202689 1.5
    vertex 35.0 0.0 1.5
    vertex 30.400000000000002 10.0 1.5
  endloop
endfacet
facet normal 0.0 0.0 1.0
  outer loop
    vertex 0.0 20.0 1.5
    vertex 6.7494247692026885 12.801184896238299 1.5
    vertex 35.0 20.0 1.5
  endloop
endfacet
facet normal 0.0 0.0 1.0
  outer loop
    vertex 6.7494247692026885 12.801184896238299 1.5
    vertex 0.0 20.0 1.5
    vertex 6.049999999999999 12.511473670974873 1.5
  endloop
endfacet
facet normal 0.0 0.0 1.0
  outer loop
    vertex 6.049999999999999 12.511473670974873 1.5
    vertex 0.0 20.0 1.5
    vertex 5.449390334559011 12.050609665440987 1.5
  endloop
endfacet
facet normal 0.0 0.0 1.0
  outer loop
    vertex 5.449390334559011 12.050609665440987 1.5
    vertex 0.0 20.0 1.5
    vertex 4.988526329025127 11.45 1.5
  endloop
endfacet
facet normal 0.0 0.0 1.0
  outer loop
    vertex 4.988526329025127 11.45 1.5
    vertex 0.0 20.0 1.5
    vertex 4.698815103761702 10.75057523079731 1.5
  endloop
endfacet
facet normal 0.0 0.0 1.0
  outer loop
    vertex 4.698815103761702 10.75057523079731 1.5
    vertex 0.0 20.0 1.5
    vertex 4.6 10.0 1.5
  endloop
endfacet
facet normal 0.0 0.0 1.0
  outer loop
    vertex 35.0 20.0 1.5
    vertex 6.7494247692026885 12.801184896238299 1.5
    vertex 7.5 12.899999999999999 1.5
  endloop
endfacet
facet normal 0.0 0.0 1.0
  outer loop
    vertex 35.0 20.0 1.5
    vertex 7.5 12.899999999999999 1.5
    vertex 8.25057523079731 12.801184896238299 1.5
  endloop
endfacet
facet normal 0.0 0.0 1.0
  outer loop
    vertex 35.0 20.0 1.5
    vertex 8.25057523079731 12.801184896238299 1.5
    vertex 8.95 12.511473670974873 1.5
  endloop
endfacet
facet normal 0.0 0.0 1.0
  outer loop
    vertex 35.0 20.0 1.5
    vertex 8.95 12.511473670974873 1.5
    vertex 9.550609665440987 12.050609665440989 1.5
  endloop
endfacet
facet normal 0.0 0.0 1.0
  outer loop
    vertex 35.0 20.0 1.5
    vertex 9.550609665440987 12.050609665440989 1.5
    vertex 10.011473670974873 11.450000000000001 1.5
  endloop
endfacet
facet normal 0.0 0.0 1.0
  outer loop
    vertex 35.0 20.0 1.5
    vertex 10.011473670974873 11.450000000000001 1.5
    vertex 10.301184896238297 10.750575230797311 1.5
  endloop
endfacet
facet normal 0.0 0.0 1.0
  outer loop
    vertex 35.0 20.0 1.5
    vertex 10.301184896238297 10.750575230797311 1.5
    vertex 10.4 10.0 1.5
  endloop
endfacet
facet normal 0.0 0.0 1.0
  outer loop
    vertex 35.0 20.0 1.5
    vertex 10.4 10.0 1.5
    vertex 25.44939033455901 12.050609665440987 1.5
  endloop
endfacet
facet normal 0.0 0.0 1.0
  outer loop
    vertex 25.44939033455901 12.050609665440987 1.5
    vertex 10.4 10.0 1.5
    vertex 24.988526329025127 11.45 1.5
  endloop
endfacet
facet normal 0.0 0.0 1.0
  outer loop
    vertex 24.988526329025127 11.45 1.5
    vertex 10.4 10.0 1.5
    vertex 24.6988151037617 10.75057523079731 1.5
  endloop
endfacet
facet normal 0.0 0.0 1.0
  outer loop
    vertex 24.6988151037617 10.75057523079731 1.5
    vertex 10.4 10.0 1.5
    vertex 24.6 10.0 1.5
  endloop
endfacet
facet normal 0.0 0.0 1.0
  outer loop
    vertex 35.0 20.0 1.5
    vertex 25.44939033455901 12.050609665440987 1.5
    vertex 26.049999999999997 12.511473670974873 1.5
  endloop
endfacet
facet normal 0.0 0.0 1.0
  outer loop
    vertex 35.0 20.0 1.5
    vertex 26.049999999999997 12.511473670974873 1.5
    vertex 26.749424769202687 12.801184896238299 1.5
  endloop
endfacet
facet normal 0.0 0.0 1.0
  outer loop
    vertex 35.0 20.0 1.5
    vertex 26.749424769202687 12.801184896238299 1.5
    vertex 27.5 12.899999999999999 1.5
  endloop
endfacet
facet normal 0.0 0.0 1.0
  outer loop
    vertex 35.0 20.0 1.5
    vertex 27.5 12.899999999999999 1.5
    vertex 28.25057523079731 12.801184896238299 1.5
  endloop
endfacet
facet normal 0.0 0.0 1.0
  outer loop
    vertex 35.0 20.0 1.5
    vertex 28.25057523079731 12.801184896238299 1.5
    vertex 28.95 12.511473670974873 1.5
  endloop
endfacet
facet normal 0.0 0.0 1.0
  outer loop
    vertex 35.0 20.0 1.5
    vertex 28.95 12.511473670974873 1.5
    vertex 29.550609665440984 12.050609665440989 1.5
  endloop
endfacet
facet normal 0.0 0.0 1.0
  outer loop
    vertex 35.0 20.0 1.5
    vertex 29.550609665440984 12.050609665440989 1.5
    vertex 30.011473670974873 11.450000000000001 1.5
  endloop
endfacet
facet normal 0.0 0.0 1.0
  outer loop
    vertex 35.0 20.0 1.5
    vertex 30.011473670974873 11.450000000000001 1.5
    vertex 30.3011848962383 10.750575230797311 1.5
  endloop
endfacet
facet normal 0.0 0.0 1.0
  outer loop
    vertex 35.0 20.0 1.5
    vertex 30.3011848962383 10.750575230797311 1.5
    vertex 30.400000000000002 10.0 1.5
  endloop
endfacet
facet normal 0.0 0.0 1.0
  outer loop
    vertex 35.0 20.0 1.5
    vertex 30.400000000000002 10.0 1.5
    vertex 35.0 0.0 1.5
  endloop
endfacet
facet normal -0.1305261922200497 -0.9914448613738107 -0.0
  outer loop
    vertex 8.25057523079731 12.801184896238299 1.5
    vertex 7.5 12.899999999999999 0.0
    vertex 8.25057523079731 12.801184896238299 0.0
  endloop
endfacet
facet normal -0.1305261922200497 -0.9914448613738107 -0.0
  outer loop
    vertex 7.5 12.899999999999999 0.0
    vertex 8.25057523079731 12.801184896238299 1.5
    vertex 7.5 12.899999999999999 1.5
  endloop
endfacet
facet normal 0.38268343236509067 -0.9238795325112864 -0.0
  outer loop
    vertex 6.7494247692026885 12.801184896238299 1.5
    vertex 6.049999999999999 12.511473670974873 0.0
    vertex 6.7494247692026885 12.801184896238299 0.0
  endloop
endfacet
facet normal 0.38268343236509067 -0.9238795325112864 -0.0
  outer loop
    vertex 6.049999999999999 12.511473670974873 0.0
    vertex 6.7494247692026885 12.801184896238299 1.5
    vertex 6.049999999999999 12.511473670974873 1.5
  endloop
endfacet
facet normal 0.13052619222004924 -0.9914448613738108 -0.0
  outer loop
    vertex 7.5 12.899999999999999 1.5
    vertex 6.7494247692026885 12.801184896238299 0.0
    vertex 7.5 12.899999999999999 0.0
  endloop
endfacet
facet normal 0.13052619222004924 -0.9914448613738108 -0.0
  outer loop
    vertex 6.7494247692026885 12.801184896238299 0.0
    vertex 7.5 12.899999999999999 1.5
    vertex 6.7494247692026885 12.801184896238299 1.5
  endloop
endfacet
facet normal 0.6087614290087218 -0.7933533402912344 -0.0
  outer loop
    vertex 6.049999999999999 12.511473670974873 1.5
    vertex 5.449390334559011 12.050609665440987 0.0
    vertex 6.049999999999999 12.511473670974873 0.0
  endloop
endfacet
facet normal 0.6087614290087218 -0.7933533402912344 -0.0
  outer loop
    vertex 5.449390334559011 12.050609665440987 0.0
    vertex 6.049999999999999 12.511473670974873 1.5
    vertex 5.449390334559011 12.050609665440987 1.5
  endloop
endfacet
facet normal -0.0 1.0 0.0
  outer loop
    vertex 0.0 20.0 1.5
    vertex 35.0 20.0 0.0
    vertex 0.0 20.0 0.0
  endloop
endfacet
facet normal -0.0 1.0 0.0
  outer loop
    vertex 35.0 20.0 0.0
    vertex 0.0 20.0 1.5
    vertex 35.0 20.0 1.5
  endloop
endfacet
facet normal -1.0 0.0 0.0
  outer loop
    vertex 0.0 20.0 1.5
    vertex 0.0 0.0 0.0
    vertex 0.0 0.0 1.5
  endloop
endfacet
facet normal -1.0 0.0 0.0
  outer loop
    vertex 0.0 0.0 0.0
    vertex 0.0 20.0 1.5
    vertex 0.0 20.0 0.0
  endloop
endfacet
facet normal -0.0 -1.0 -0.0
  outer loop
    vertex 35.0 0.0 1.5
    vertex 0.0 0.0 0.0
    vertex 35.0 0.0 0.0
  endloop
endfacet
facet normal -0.0 -1.0 -0.0
  outer loop
    vertex 0.0 0.0 0.0
    vertex 35.0 0.0 1.5
    vertex 0.0 0.0 1.5
  endloop
endfacet
facet normal 1.0 0.0 0.0
  outer loop
    vertex 35.0 20.0 0.0
    vertex 35.0 0.0 1.5
    vertex 35.0 0.0 0.0
  endloop
endfacet
facet normal 1.0 0.0 0.0
  outer loop
    vertex 35.0 0.0 1.5
    vertex 35.0 20.0 0.0
    vertex 35.0 20.0 1.5
  endloop
endfacet
facet normal -0.9238795325112864 0.38268343236509067 -0.0
  outer loop
    vertex 10.301184896238299 9.249424769202689 1.5
    vertex 10.011473670974873 8.55 0.0
    vertex 10.011473670974873 8.55 1.5
  endloop
endfacet
facet normal -0.9238795325112864 0.38268343236509067 -0.0
  outer loop
    vertex 10.011473670974873 8.55 0.0
    vertex 10.301184896238299 9.249424769202689 1.5
    vertex 10.301184896238299 9.249424769202689 0.0
  endloop
endfacet
facet normal -0.9238795325112859 -0.3826834323650923 -0.0
  outer loop
    vertex 30.011473670974873 11.450000000000001 1.5
    vertex 30.3011848962383 10.750575230797311 0.0
    vertex 30.3011848962383 10.750575230797311 1.5
  endloop
endfacet
facet normal -0.9238795325112859 -0.3826834323650923 -0.0
  outer loop
    vertex 30.3011848962383 10.750575230797311 0.0
    vertex 30.011473670974873 11.450000000000001 1.5
    vertex 30.011473670974873 11.450000000000001 0.0
  endloop
endfacet
facet normal -0.7933533402912334 -0.6087614290087229 -0.0
  outer loop
    vertex 29.550609665440984 12.050609665440989 1.5
    vertex 30.011473670974873 11.450000000000001 0.0
    vertex 30.011473670974873 11.450000000000001 1.5
  endloop
endfacet
facet normal -0.7933533402912334 -0.6087614290087229 -0.0
  outer loop
    vertex 30.011473670974873 11.450000000000001 0.0
    vertex 29.550609665440984 12.050609665440989 1.5
    vertex 29.550609665440984 12.050609665440989 0.0
  endloop
endfacet
facet normal -0.3826834323650897 -0.9238795325112867 -0.0
  outer loop
    vertex 28.95 12.511473670974873 1.5
    vertex 28.25057523079731 12.801184896238299 0.0
    vertex 28.95 12.511473670974873 0.0
  endloop
endfacet
facet normal -0.3826834323650897 -0.9238795325112867 -0.0
  outer loop
    vertex 28.25057523079731 12.801184896238299 0.0
    vertex 28.95 12.511473670974873 1.5
    vertex 28.25057523079731 12.801184896238299 1.5
  endloop
endfacet
facet normal -0.1305261922200497 -0.9914448613738107 -0.0
  outer loop
    vertex 28.25057523079731 12.801184896238299 1.5
    vertex 27.5 12.899999999999999 0.0
    vertex 28.25057523079731 12.801184896238299 0.0
  endloop
endfacet
facet normal -0.1305261922200497 -0.9914448613738107 -0.0
  outer loop
    vertex 27.5 12.899999999999999 0.0
    vertex 28.25057523079731 12.801184896238299 1.5
    vertex 27.5 12.899999999999999 1.5
  endloop
endfacet
facet normal 0.13052619222004874 -0.9914448613738108 -0.0
  outer loop
    vertex 27.5 12.899999999999999 1.5
    vertex 26.749424769202687 12.801184896238299 0.0
    vertex 27.5 12.899999999999999 0.0
  endloop
endfacet
facet normal 0.13052619222004874 -0.9914448613738108 -0.0
  outer loop
    vertex 26.749424769202687 12.801184896238299 0.0
    vertex 27.5 12.899999999999999 1.5
    vertex 26.749424769202687 12.801184896238299 1.5
  endloop
endfacet
facet normal 0.9238795325112867 0.38268343236509006 0.0
  outer loop
    vertex 4.698815103761702 9.249424769202689 0.0
    vertex 4.988526329025128 8.549999999999999 1.5
    vertex 4.988526329025128 8.549999999999999 0.0
  endloop
endfacet
facet normal 0.9238795325112867 0.38268343236509006 0.0
  outer loop
    vertex 4.988526329025128 8.549999999999999 1.5
    vertex 4.698815103761702 9.249424769202689 0.0
    vertex 4.698815103761702 9.249424769202689 1.5
  endloop
endfacet
facet normal 0.13052619222005155 0.9914448613738105 0.0
  outer loop
    vertex 6.749424769202691 7.198815103761701 1.5
    vertex 7.5 7.1 0.0
    vertex 6.749424769202691 7.198815103761701 0.0
  endloop
endfacet
facet normal 0.13052619222005155 0.9914448613738105 0.0
  outer loop
    vertex 7.5 7.1 0.0
    vertex 6.749424769202691 7.198815103761701 1.5
    vertex 7.5 7.1 1.5
  endloop
endfacet
facet normal 0.3826834323650887 0.9238795325112872 0.0
  outer loop
    vertex 6.050000000000001 7.4885263290251265 1.5
    vertex 6.749424769202691 7.198815103761701 0.0
    vertex 6.050000000000001 7.4885263290251265 0.0
  endloop
endfacet
facet normal 0.3826834323650887 0.9238795325112872 0.0
  outer loop
    vertex 6.749424769202691 7.198815103761701 0.0
    vertex 6.050000000000001 7.4885263290251265 1.5
    vertex 6.749424769202691 7.198815103761701 1.5
  endloop
endfacet
facet normal -0.9914448613738103 -0.13052619222005288 -0.0
  outer loop
    vertex 10.301184896238297 10.750575230797311 1.5
    vertex 10.4 10.0 0.0
    vertex 10.4 10.0 1.5
  endloop
endfacet
facet normal -0.9914448613738103 -0.13052619222005288 -0.0
  outer loop
    vertex 10.4 10.0 0.0
    vertex 10.301184896238297 10.750575230797311 1.5
    vertex 10.301184896238297 10.750575230797311 0.0
  endloop
endfacet
facet normal -0.7933533402912352 0.6087614290087205 -0.0
  outer loop
    vertex 10.011473670974873 8.55 1.5
    vertex 9.550609665440987 7.949390334559012 0.0
    vertex 9.550609665440987 7.949390334559012 1.5
  endloop
endfacet
facet normal -0.7933533402912352 0.6087614290087205 -0.0
  outer loop
    vertex 9.550609665440987 7.949390334559012 0.0
    vertex 10.011473670974873 8.55 1.5
    vertex 10.011473670974873 8.55 0.0
  endloop
endfacet
facet normal -0.6087614290087197 -0.7933533402912359 -0.0
  outer loop
    vertex 9.550609665440987 12.050609665440989 1.5
    vertex 8.95 12.511473670974873 0.0
    vertex 9.550609665440987 12.050609665440989 0.0
  endloop
endfacet
facet normal -0.6087614290087197 -0.7933533402912359 -0.0
  outer loop
    vertex 8.95 12.511473670974873 0.0
    vertex 9.550609665440987 12.050609665440989 1.5
    vertex 8.95 12.511473670974873 1.5
  endloop
endfacet
facet normal -0.9914448613738108 -0.13052619222004924 -0.0
  outer loop
    vertex 30.3011848962383 10.750575230797311 1.5
    vertex 30.400000000000002 10.0 0.0
    vertex 30.400000000000002 10.0 1.5
  endloop
endfacet
facet normal -0.9914448613738108 -0.13052619222004924 -0.0
  outer loop
    vertex 30.400000000000002 10.0 0.0
    vertex 30.3011848962383 10.750575230797311 1.5
    vertex 30.3011848962383 10.750575230797311 0.0
  endloop
endfacet
facet normal 0.9238795325112871 -0.38268343236508906 -0.0
  outer loop
    vertex 4.988526329025127 11.45 0.0
    vertex 4.698815103761702 10.75057523079731 1.5
    vertex 4.698815103761702 10.75057523079731 0.0
  endloop
endfacet
facet normal 0.9238795325112871 -0.38268343236508906 -0.0
  outer loop
    vertex 4.698815103761702 10.75057523079731 1.5
    vertex 4.988526329025127 11.45 0.0
    vertex 4.988526329025127 11.45 1.5
  endloop
endfacet
facet normal 0.38268343236509134 -0.9238795325112862 -0.0
  outer loop
    vertex 26.749424769202687 12.801184896238299 1.5
    vertex 26.049999999999997 12.511473670974873 0.0
    vertex 26.749424769202687 12.801184896238299 0.0
  endloop
endfacet
facet normal 0.38268343236509134 -0.9238795325112862 -0.0
  outer loop
    vertex 26.049999999999997 12.511473670974873 0.0
    vertex 26.749424769202687 12.801184896238299 1.5
    vertex 26.049999999999997 12.511473670974873 1.5
  endloop
endfacet
facet normal 0.6087614290087218 -0.7933533402912344 -0.0
  outer loop
    vertex 26.049999999999997 12.511473670974873 1.5
    vertex 25.44939033455901 12.050609665440987 0.0
    vertex 26.049999999999997 12.511473670974873 0.0
  endloop
endfacet
facet normal 0.6087614290087218 -0.7933533402912344 -0.0
  outer loop
    vertex 25.44939033455901 12.050609665440987 0.0
    vertex 26.049999999999997 12.511473670974873 1.5
    vertex 25.44939033455901 12.050609665440987 1.5
  endloop
endfacet
facet normal -0.6087614290087205 -0.7933533402912352 -0.0
  outer loop
    vertex 29.550609665440984 12.050609665440989 1.5
    vertex 28.95 12.511473670974873 0.0
    vertex 29.550609665440984 12.050609665440989 0.0
  endloop
endfacet
facet normal -0.6087614290087205 -0.7933533402912352 -0.0
  outer loop
    vertex 28.95 12.511473670974873 0.0
    vertex 29.550609665440984 12.050609665440989 1.5
    vertex 28.95 12.511473670974873 1.5
  endloop
endfacet
facet normal -0.38268343236509067 0.9238795325112864 -0.0
  outer loop
    vertex 8.250575230797311 7.198815103761701 1.5
    vertex 8.950000000000001 7.488526329025128 0.0
    vertex 8.250575230797311 7.198815103761701 0.0
  endloop
endfacet
facet normal -0.38268343236509067 0.9238795325112864 -0.0
  outer loop
    vertex 8.950000000000001 7.488526329025128 0.0
    vertex 8.250575230797311 7.198815103761701 1.5
    vertex 8.950000000000001 7.488526329025128 1.5
  endloop
endfacet
facet normal 0.6087614290087213 0.7933533402912348 0.0
  outer loop
    vertex 5.449390334559013 7.949390334559012 1.5
    vertex 6.050000000000001 7.4885263290251265 0.0
    vertex 5.449390334559013 7.949390334559012 0.0
  endloop
endfacet
facet normal 0.6087614290087213 0.7933533402912348 0.0
  outer loop
    vertex 6.050000000000001 7.4885263290251265 0.0
    vertex 5.449390334559013 7.949390334559012 1.5
    vertex 6.050000000000001 7.4885263290251265 1.5
  endloop
endfacet
facet normal 0.9914448613738105 -0.13052619222005155 -0.0
  outer loop
    vertex 4.698815103761702 10.75057523079731 0.0
    vertex 4.6 10.0 1.5
    vertex 4.6 10.0 0.0
  endloop
endfacet
facet normal 0.9914448613738105 -0.13052619222005155 -0.0
  outer loop
    vertex 4.6 10.0 1.5
    vertex 4.698815103761702 10.75057523079731 0.0
    vertex 4.698815103761702 10.75057523079731 1.5
  endloop
endfacet
facet normal -0.9238795325112859 0.3826834323650923 -0.0
  outer loop
    vertex 30.3011848962383 9.249424769202689 1.5
    vertex 30.011473670974873 8.55 0.0
    vertex 30.011473670974873 8.55 1.5
  endloop
endfacet
facet normal -0.9238795325112859 0.3826834323650923 -0.0
  outer loop
    vertex 30.011473670974873 8.55 0.0
    vertex 30.3011848962383 9.249424769202689 1.5
    vertex 30.3011848962383 9.249424769202689 0.0
  endloop
endfacet
facet normal -0.38268343236508906 -0.9238795325112871 -0.0
  outer loop
    vertex 8.95 12.511473670974873 1.5
    vertex 8.25057523079731 12.801184896238299 0.0
    vertex 8.95 12.511473670974873 0.0
  endloop
endfacet
facet normal -0.38268343236508906 -0.9238795325112871 -0.0
  outer loop
    vertex 8.25057523079731 12.801184896238299 0.0
    vertex 8.95 12.511473670974873 1.5
    vertex 8.25057523079731 12.801184896238299 1.5
  endloop
endfacet
facet normal -0.9914448613738107 0.13052619222004946 -0.0
  outer loop
    vertex 30.400000000000002 10.0 1.5
    vertex 30.3011848962383 9.249424769202689 0.0
    vertex 30.3011848962383 9.249424769202689 1.5
  endloop
endfacet
facet normal -0.9914448613738107 0.13052619222004946 -0.0
  outer loop
    vertex 30.3011848962383 9.249424769202689 0.0
    vertex 30.400000000000002 10.0 1.5
    vertex 30.400000000000002 10.0 0.0
  endloop
endfacet
facet normal 0.9914448613738105 0.1305261922200513 0.0
  outer loop
    vertex 4.6 10.0 0.0
    vertex 4.698815103761702 9.249424769202689 1.5
    vertex 4.698815103761702 9.249424769202689 0.0
  endloop
endfacet
facet normal 0.9914448613738105 0.1305261922200513 0.0
  outer loop
    vertex 4.698815103761702 9.249424769202689 1.5
    vertex 4.6 10.0 0.0
    vertex 4.6 10.0 1.5
  endloop
endfacet
facet normal -0.7933533402912372 0.6087614290087182 -0.0
  outer loop
    vertex 30.011473670974873 8.55 1.5
    vertex 29.55060966544099 7.949390334559012 0.0
    vertex 29.55060966544099 7.949390334559012 1.5
  endloop
endfacet
facet normal -0.7933533402912372 0.6087614290087182 -0.0
  outer loop
    vertex 29.55060966544099 7.949390334559012 0.0
    vertex 30.011473670974873 8.55 1.5
    vertex 30.011473670974873 8.55 0.0
  endloop
endfacet
facet normal -0.1305261922200513 0.9914448613738105 -0.0
  outer loop
    vertex 7.5 7.1 1.5
    vertex 8.250575230797311 7.198815103761701 0.0
    vertex 7.5 7.1 0.0
  endloop
endfacet
facet normal -0.1305261922200513 0.9914448613738105 -0.0
  outer loop
    vertex 8.250575230797311 7.198815103761701 0.0
    vertex 7.5 7.1 1.5
    vertex 8.250575230797311 7.198815103761701 1.5
  endloop
endfacet
facet normal -0.7933533402912352 -0.6087614290087205 -0.0
  outer loop
    vertex 9.550609665440987 12.050609665440989 1.5
    vertex 10.011473670974873 11.450000000000001 0.0
    vertex 10.011473670974873 11.450000000000001 1.5
  endloop
endfacet
facet normal -0.7933533402912352 -0.6087614290087205 -0.0
  outer loop
    vertex 10.011473670974873 11.450000000000001 0.0
    vertex 9.550609665440987 12.050609665440989 1.5
    vertex 9.550609665440987 12.050609665440989 0.0
  endloop
endfacet
facet normal -0.9914448613738105 0.1305261922200513 -0.0
  outer loop
    vertex 10.4 10.0 1.5
    vertex 10.301184896238299 9.249424769202689 0.0
    vertex 10.301184896238299 9.249424769202689 1.5
  endloop
endfacet
facet normal -0.9914448613738105 0.1305261922200513 -0.0
  outer loop
    vertex 10.301184896238299 9.249424769202689 0.0
    vertex 10.4 10.0 1.5
    vertex 10.4 10.0 0.0
  endloop
endfacet
facet normal 0.7933533402912345 0.6087614290087214 0.0
  outer loop
    vertex 4.988526329025128 8.549999999999999 0.0
    vertex 5.449390334559013 7.949390334559012 1.5
    vertex 5.449390334559013 7.949390334559012 0.0
  endloop
endfacet
facet normal 0.7933533402912345 0.6087614290087214 0.0
  outer loop
    vertex 5.449390334559013 7.949390334559012 1.5
    vertex 4.988526329025128 8.549999999999999 0.0
    vertex 4.988526329025128 8.549999999999999 1.5
  endloop
endfacet
facet normal -0.9238795325112871 -0.38268343236508906 -0.0
  outer loop
    vertex 10.011473670974873 11.450000000000001 1.5
    vertex 10.301184896238297 10.750575230797311 0.0
    vertex 10.301184896238297 10.750575230797311 1.5
  endloop
endfacet
facet normal -0.9238795325112871 -0.38268343236508906 -0.0
  outer loop
    vertex 10.301184896238297 10.750575230797311 0.0
    vertex 10.011473670974873 11.450000000000001 1.5
    vertex 10.011473670974873 11.450000000000001 0.0
  endloop
endfacet
facet normal 0.7933533402912352 -0.6087614290087205 -0.0
  outer loop
    vertex 5.449390334559011 12.050609665440987 0.0
    vertex 4.988526329025127 11.45 1.5
    vertex 4.988526329025127 11.45 0.0
  endloop
endfacet
facet normal 0.7933533402912352 -0.6087614290087205 -0.0
  outer loop
    vertex 4.988526329025127 11.45 1.5
    vertex 5.449390334559011 12.050609665440987 0.0
    vertex 5.449390334559011 12.050609665440987 1.5
  endloop
endfacet
facet normal -0.6087614290087205 0.7933533402912352 -0.0
  outer loop
    vertex 8.950000000000001 7.488526329025128 1.5
    vertex 9.550609665440987 7.949390334559012 0.0
    vertex 8.950000000000001 7.488526329025128 0.0
  endloop
endfacet
facet normal -0.6087614290087205 0.7933533402912352 -0.0
  outer loop
    vertex 9.550609665440987 7.949390334559012 0.0
    vertex 8.950000000000001 7.488526329025128 1.5
    vertex 9.550609665440987 7.949390334559012 1.5
  endloop
endfacet
facet normal 0.7933533402912372 -0.6087614290087182 -0.0
  outer loop
    vertex 25.44939033455901 12.050609665440987 0.0
    vertex 24.988526329025127 11.45 1.5
    vertex 24.988526329025127 11.45 0.0
  endloop
endfacet
facet normal 0.7933533402912372 -0.6087614290087182 -0.0
  outer loop
    vertex 24.988526329025127 11.45 1.5
    vertex 25.44939033455901 12.050609665440987 0.0
    vertex 25.44939033455901 12.050609665440987 1.5
  endloop
endfacet
facet normal -0.6087614290087205 0.7933533402912352 -0.0
  outer loop
    vertex 28.950000000000003 7.488526329025128 1.5
    vertex 29.55060966544099 7.949390334559012 0.0
    vertex 28.950000000000003 7.488526329025128 0.0
  endloop
endfacet
facet normal -0.6087614290087205 0.7933533402912352 -0.0
  outer loop
    vertex 29.55060966544099 7.949390334559012 0.0
    vertex 28.950000000000003 7.488526329025128 1.5
    vertex 29.55060966544099 7.949390334559012 1.5
  endloop
endfacet
facet normal -0.3826834323650887 0.9238795325112873 -0.0
  outer loop
    vertex 28.25057523079731 7.198815103761701 1.5
    vertex 28.950000000000003 7.488526329025128 0.0
    vertex 28.25057523079731 7.198815103761701 0.0
  endloop
endfacet
facet normal -0.3826834323650887 0.9238795325112873 -0.0
  outer loop
    vertex 28.950000000000003 7.488526329025128 0.0
    vertex 28.25057523079731 7.198815103761701 1.5
    vertex 28.950000000000003 7.488526329025128 1.5
  endloop
endfacet
facet normal 0.9238795325112873 0.3826834323650884 0.0
  outer loop
    vertex 24.698815103761703 9.249424769202689 0.0
    vertex 24.988526329025127 8.549999999999999 1.5
    vertex 24.988526329025127 8.549999999999999 0.0
  endloop
endfacet
facet normal 0.9238795325112873 0.3826834323650884 0.0
  outer loop
    vertex 24.988526329025127 8.549999999999999 1.5
    vertex 24.698815103761703 9.249424769202689 0.0
    vertex 24.698815103761703 9.249424769202689 1.5
  endloop
endfacet
facet normal 0.9238795325112859 -0.3826834323650923 -0.0
  outer loop
    vertex 24.988526329025127 11.45 0.0
    vertex 24.6988151037617 10.75057523079731 1.5
    vertex 24.6988151037617 10.75057523079731 0.0
  endloop
endfacet
facet normal 0.9238795325112859 -0.3826834323650923 -0.0
  outer loop
    vertex 24.6988151037617 10.75057523079731 1.5
    vertex 24.988526329025127 11.45 0.0
    vertex 24.988526329025127 11.45 1.5
  endloop
endfacet
facet normal 0.7933533402912328 0.6087614290087239 0.0
  outer loop
    vertex 24.988526329025127 8.549999999999999 0.0
    vertex 25.449390334559016 7.949390334559012 1.5
    vertex 25.449390334559016 7.949390334559012 0.0
  endloop
endfacet
facet normal 0.7933533402912328 0.6087614290087239 0.0
  outer loop
    vertex 25.449390334559016 7.949390334559012 1.5
    vertex 24.988526329025127 8.549999999999999 0.0
    vertex 24.988526329025127 8.549999999999999 1.5
  endloop
endfacet
facet normal 0.9914448613738103 0.13052619222005313 0.0
  outer loop
    vertex 24.6 10.0 0.0
    vertex 24.698815103761703 9.249424769202689 1.5
    vertex 24.698815103761703 9.249424769202689 0.0
  endloop
endfacet
facet normal 0.9914448613738103 0.13052619222005313 0.0
  outer loop
    vertex 24.698815103761703 9.249424769202689 1.5
    vertex 24.6 10.0 0.0
    vertex 24.6 10.0 1.5
  endloop
endfacet
facet normal -0.13052619222005155 0.9914448613738105 -0.0
  outer loop
    vertex 27.5 7.1 1.5
    vertex 28.25057523079731 7.198815103761701 0.0
    vertex 27.5 7.1 0.0
  endloop
endfacet
facet normal -0.13052619222005155 0.9914448613738105 -0.0
  outer loop
    vertex 28.25057523079731 7.198815103761701 0.0
    vertex 27.5 7.1 1.5
    vertex 28.25057523079731 7.198815103761701 1.5
  endloop
endfacet
facet normal 0.6087614290087218 0.7933533402912344 0.0
  outer loop
    vertex 25.449390334559016 7.949390334559012 1.5
    vertex 26.050000000000004 7.4885263290251265 0.0
    vertex 25.449390334559016 7.949390334559012 0.0
  endloop
endfacet
facet normal 0.6087614290087218 0.7933533402912344 0.0
  outer loop
    vertex 26.050000000000004 7.4885263290251265 0.0
    vertex 25.449390334559016 7.949390334559012 1.5
    vertex 26.050000000000004 7.4885263290251265 1.5
  endloop
endfacet
facet normal 0.3826834323650897 0.9238795325112867 0.0
  outer loop
    vertex 26.050000000000004 7.4885263290251265 1.5
    vertex 26.74942476920269 7.198815103761701 0.0
    vertex 26.050000000000004 7.4885263290251265 0.0
  endloop
endfacet
facet normal 0.3826834323650897 0.9238795325112867 0.0
  outer loop
    vertex 26.74942476920269 7.198815103761701 0.0
    vertex 26.050000000000004 7.4885263290251265 1.5
    vertex 26.74942476920269 7.198815103761701 1.5
  endloop
endfacet
facet normal 0.13052619222005155 0.9914448613738105 0.0
  outer loop
    vertex 26.74942476920269 7.198815103761701 1.5
    vertex 27.5 7.1 0.0
    vertex 26.74942476920269 7.198815103761701 0.0
  endloop
endfacet
facet normal 0.13052619222005155 0.9914448613738105 0.0
  outer loop
    vertex 27.5 7.1 0.0
    vertex 26.74942476920269 7.198815103761701 1.5
    vertex 27.5 7.1 1.5
  endloop
endfacet
facet normal 0.9914448613738107 -0.1305261922200497 -0.0
  outer loop
    vertex 24.6988151037617 10.75057523079731 0.0
    vertex 24.6 10.0 1.5
    vertex 24.6 10.0 0.0
  endloop
endfacet
facet normal 0.9914448613738107 -0.1305261922200497 -0.0
  outer loop
    vertex 24.6 10.0 1.5
    vertex 24.6988151037617 10.75057523079731 0.0
    vertex 24.6988151037617 10.75057523079731 1.5
  endloop
endfacet
endsolid Lead Block Spacer
