solid Spacer
facet normal -0.07845909572784349 0.9969173337331281 -4.677194900872094e-17
  outer loop
    vertex -0.1465406774802531 -2.7961626973128113 6.0
    vertex -1.9896961843816118e-14 -2.7846296958758825 -0.15
    vertex -0.1465406774802531 -2.7961626973128113 -0.15
  endloop
endfacet
facet normal -0.07845909572784349 0.9969173337331281 -4.677194900872094e-17
  outer loop
    vertex -1.9896961843816118e-14 -2.7846296958758825 -0.15
    vertex -0.1465406774802531 -2.7961626973128113 6.0
    vertex 0.5821527342897157 -2.738813282054662 -0.15
  endloop
endfacet
facet normal -0.07845909572784349 0.9969173337331281 -4.677194900872094e-17
  outer loop
    vertex 0.5821527342897157 -2.738813282054662 -0.15
    vertex -0.1465406774802531 -2.7961626973128113 6.0
    vertex 0.5821527342897157 -2.738813282054662 6.0
  endloop
endfacet
facet normal -0.3338068592337695 0.942641491092179 6.977937702470752e-32
  outer loop
    vertex 0.5821527342897157 -2.738813282054662 6.0
    vertex 1.271173399270721 -2.494818267727437 -0.15
    vertex 0.5821527342897157 -2.738813282054662 -0.15
  endloop
endfacet
facet normal -0.3338068592337695 0.942641491092179 6.977937702470752e-32
  outer loop
    vertex 1.271173399270721 -2.494818267727437 -0.15
    vertex 0.5821527342897157 -2.738813282054662 6.0
    vertex 1.271173399270721 -2.494818267727437 6.0
  endloop
endfacet
facet normal -0.9832549075639545 0.18223552549214778 -1.7822304378817373e-31
  outer loop
    vertex 2.796162697312801 -0.14654067748024832 6.0
    vertex 2.6629582456264242 -0.8652475842498575 -0.15
    vertex 2.6629582456264242 -0.8652475842498575 6.0
  endloop
endfacet
facet normal -0.9832549075639545 0.18223552549214778 -1.7822304378817373e-31
  outer loop
    vertex 2.6629582456264242 -0.8652475842498575 -0.15
    vertex 2.796162697312801 -0.14654067748024832 6.0
    vertex 2.796162697312801 -0.14654067748024832 -0.15
  endloop
endfacet
facet normal -0.5664062369248314 0.8241261886220166 3.711152881404052e-33
  outer loop
    vertex 1.271173399270721 -2.494818267727437 6.0
    vertex 1.8735656978047937 -2.080805511336712 -0.15
    vertex 1.271173399270721 -2.494818267727437 -0.15
  endloop
endfacet
facet normal -0.5664062369248314 0.8241261886220166 3.711152881404052e-33
  outer loop
    vertex 1.8735656978047937 -2.080805511336712 -0.15
    vertex 1.271173399270721 -2.494818267727437 6.0
    vertex 1.8735656978047937 -2.080805511336712 6.0
  endloop
endfacet
facet normal -0.9969173337331281 -0.07845909572784382 -2.1963613507528583e-31
  outer loop
    vertex 2.7388132820546507 0.5821527342897198 6.0
    vertex 2.796162697312801 -0.14654067748024832 -0.15
    vertex 2.796162697312801 -0.14654067748024832 6.0
  endloop
endfacet
facet normal -0.9969173337331281 -0.07845909572784382 -2.1963613507528583e-31
  outer loop
    vertex 2.796162697312801 -0.14654067748024832 -0.15
    vertex 2.7388132820546507 0.5821527342897198 6.0
    vertex 2.7388132820546507 0.5821527342897198 -0.15
  endloop
endfacet
facet normal -0.9426414910921788 -0.33380685923377035 -2.460813867228922e-31
  outer loop
    vertex 2.4948182677274255 1.2711733992707241 6.0
    vertex 2.7388132820546507 0.5821527342897198 -0.15
    vertex 2.7388132820546507 0.5821527342897198 6.0
  endloop
endfacet
facet normal -0.9426414910921788 -0.33380685923377035 -2.460813867228922e-31
  outer loop
    vertex 2.7388132820546507 0.5821527342897198 -0.15
    vertex 2.4948182677274255 1.2711733992707241 6.0
    vertex 2.4948182677274255 1.2711733992707241 -0.15
  endloop
endfacet
facet normal -0.6494480483301849 -0.76040596560003 -2.4800242081288105e-31
  outer loop
    vertex 2.0808055113367008 1.8735656978047959 6.0
    vertex 1.524989298042074 2.3482775902471804 -0.15
    vertex 2.0808055113367008 1.8735656978047959 -0.15
  endloop
endfacet
facet normal -0.6494480483301849 -0.76040596560003 -2.4800242081288105e-31
  outer loop
    vertex 1.524989298042074 2.3482775902471804 -0.15
    vertex 2.0808055113367008 1.8735656978047959 6.0
    vertex 1.524989298042074 2.3482775902471804 6.0
  endloop
endfacet
facet normal -0.9025852843498604 0.4305110968082957 -1.2466434659440303e-31
  outer loop
    vertex 2.6629582456264242 -0.8652475842498575 6.0
    vertex 2.348277590247179 -1.5249892980420845 -0.15
    vertex 2.348277590247179 -1.5249892980420845 6.0
  endloop
endfacet
facet normal -0.9025852843498604 0.4305110968082957 -1.2466434659440303e-31
  outer loop
    vertex 2.348277590247179 -1.5249892980420845 -0.15
    vertex 2.6629582456264242 -0.8652475842498575 6.0
    vertex 2.6629582456264242 -0.8652475842498575 -0.15
  endloop
endfacet
facet normal -0.8241261886220161 -0.566406236924832 -2.557565985340529e-31
  outer loop
    vertex 2.0808055113367008 1.8735656978047959 6.0
    vertex 2.4948182677274255 1.2711733992707241 -0.15
    vertex 2.4948182677274255 1.2711733992707241 6.0
  endloop
endfacet
facet normal -0.8241261886220161 -0.566406236924832 -2.557565985340529e-31
  outer loop
    vertex 2.4948182677274255 1.2711733992707241 -0.15
    vertex 2.0808055113367008 1.8735656978047959 6.0
    vertex 2.0808055113367008 1.8735656978047959 -0.15
  endloop
endfacet
facet normal -0.7604059656000299 0.649448048330185 -6.260998019779712e-32
  outer loop
    vertex 2.348277590247179 -1.5249892980420845 6.0
    vertex 1.8735656978047937 -2.080805511336712 -0.15
    vertex 1.8735656978047937 -2.080805511336712 6.0
  endloop
endfacet
facet normal -0.7604059656000299 0.649448048330185 -6.260998019779712e-32
  outer loop
    vertex 1.8735656978047937 -2.080805511336712 -0.15
    vertex 2.348277590247179 -1.5249892980420845 6.0
    vertex 2.348277590247179 -1.5249892980420845 -0.15
  endloop
endfacet
facet normal 0.8241261886220166 0.5664062369248315 2.557565985340529e-31
  outer loop
    vertex -2.4948182677274375 -1.2711733992707315 -0.15
    vertex -2.0808055113367123 -1.8735656978048045 6.0
    vertex -2.0808055113367123 -1.8735656978048045 -0.15
  endloop
endfacet
facet normal 0.8241261886220166 0.5664062369248315 2.557565985340529e-31
  outer loop
    vertex -2.0808055113367123 -1.8735656978048045 6.0
    vertex -2.4948182677274375 -1.2711733992707315 -0.15
    vertex -2.4948182677274375 -1.2711733992707315 6.0
  endloop
endfacet
facet normal 0.6494480483301847 0.7604059656000303 2.480024208128811e-31
  outer loop
    vertex -2.0808055113367123 -1.8735656978048045 6.0
    vertex -1.524989298042085 -2.3482775902471893 -0.15
    vertex -2.0808055113367123 -1.8735656978048045 -0.15
  endloop
endfacet
facet normal 0.6494480483301847 0.7604059656000303 2.480024208128811e-31
  outer loop
    vertex -1.524989298042085 -2.3482775902471893 -0.15
    vertex -2.0808055113367123 -1.8735656978048045 6.0
    vertex -1.524989298042085 -2.3482775902471893 6.0
  endloop
endfacet
facet normal 0.4305110968082967 0.90258528434986 2.233472879566898e-31
  outer loop
    vertex -1.524989298042085 -2.3482775902471893 6.0
    vertex -0.8652475842498626 -2.662958245626433 -0.15
    vertex -1.524989298042085 -2.3482775902471893 -0.15
  endloop
endfacet
facet normal 0.4305110968082967 0.90258528434986 2.233472879566898e-31
  outer loop
    vertex -0.8652475842498626 -2.662958245626433 -0.15
    vertex -1.524989298042085 -2.3482775902471893 6.0
    vertex -0.8652475842498626 -2.662958245626433 6.0
  endloop
endfacet
facet normal 0.18223552549214947 0.9832549075639543 -1.5071614023222535e-17
  outer loop
    vertex -0.8652475842498626 -2.662958245626433 6.0
    vertex -0.5773701872893028 -2.7163131674364807 -0.15
    vertex -0.8652475842498626 -2.662958245626433 -0.15
  endloop
endfacet
facet normal 0.18223552549214947 0.9832549075639543 -1.5071614023222535e-17
  outer loop
    vertex -0.5773701872893028 -2.7163131674364807 -0.15
    vertex -0.8652475842498626 -2.662958245626433 6.0
    vertex -0.1465406774802531 -2.7961626973128113 -0.15
  endloop
endfacet
facet normal 0.18223552549214947 0.9832549075639543 -1.5071614023222535e-17
  outer loop
    vertex -0.1465406774802531 -2.7961626973128113 -0.15
    vertex -0.8652475842498626 -2.662958245626433 6.0
    vertex -0.1465406774802531 -2.7961626973128113 6.0
  endloop
endfacet
facet normal 0.942641491092179 0.33380685923376946 2.4608138672289217e-31
  outer loop
    vertex -2.7388132820546622 -0.5821527342897261 -0.15
    vertex -2.4948182677274375 -1.2711733992707315 6.0
    vertex -2.4948182677274375 -1.2711733992707315 -0.15
  endloop
endfacet
facet normal 0.942641491092179 0.33380685923376946 2.4608138672289217e-31
  outer loop
    vertex -2.4948182677274375 -1.2711733992707315 6.0
    vertex -2.7388132820546622 -0.5821527342897261 -0.15
    vertex -2.7388132820546622 -0.5821527342897261 6.0
  endloop
endfacet
facet normal 4.250590080650795e-31 2.4938886451050762e-31 1.0
  outer loop
    vertex -6.4643923198937765 -0.679435011239742 6.0
    vertex -6.464392319893776 0.6794350112397491 6.0
    vertex -6.499999999999999 3.524958103184872e-15 6.0
  endloop
endfacet
facet normal 4.250590080650795e-31 2.4938886451050762e-31 1.0
  outer loop
    vertex -6.464392319893776 0.6794350112397491 6.0
    vertex -6.4643923198937765 -0.679435011239742 6.0
    vertex -6.357959404769739 -1.3514259903154286 6.0
  endloop
endfacet
facet normal 4.250590080650795e-31 2.4938886451050762e-31 1.0
  outer loop
    vertex -6.464392319893776 0.6794350112397491 6.0
    vertex -6.357959404769739 -1.3514259903154286 6.0
    vertex -6.357959404769735 1.3514259903154378 6.0
  endloop
endfacet
facet normal 4.250590080650795e-31 2.4938886451050762e-31 1.0
  outer loop
    vertex -6.357959404769735 1.3514259903154378 6.0
    vertex -6.357959404769739 -1.3514259903154286 6.0
    vertex -6.1818673559185005 -2.0086104634371496 6.0
  endloop
endfacet
facet normal 4.250590080650795e-31 2.4938886451050762e-31 1.0
  outer loop
    vertex -6.357959404769735 1.3514259903154378 6.0
    vertex -6.1818673559185005 -2.0086104634371496 6.0
    vertex -6.181867355918497 2.0086104634371615 6.0
  endloop
endfacet
facet normal 4.250590080650795e-31 2.4938886451050762e-31 1.0
  outer loop
    vertex -6.181867355918497 2.0086104634371615 6.0
    vertex -6.1818673559185005 -2.0086104634371496 6.0
    vertex -5.93804547467691 -2.643788179992691 6.0
  endloop
endfacet
facet normal 4.250590080650795e-31 2.4938886451050762e-31 1.0
  outer loop
    vertex -6.181867355918497 2.0086104634371615 6.0
    vertex -5.93804547467691 -2.643788179992691 6.0
    vertex -5.938045474676904 2.6437881799927054 6.0
  endloop
endfacet
facet normal 4.250590080650795e-31 2.4938886451050762e-31 1.0
  outer loop
    vertex -5.938045474676904 2.6437881799927054 6.0
    vertex -5.93804547467691 -2.643788179992691 6.0
    vertex -5.629165124598858 -3.2499999999999885 6.0
  endloop
endfacet
facet normal 4.250590080650795e-31 2.4938886451050762e-31 1.0
  outer loop
    vertex -5.938045474676904 2.6437881799927054 6.0
    vertex -5.629165124598858 -3.2499999999999885 6.0
    vertex -5.629165124598847 3.250000000000004 6.0
  endloop
endfacet
facet normal 4.250590080650795e-31 2.4938886451050762e-31 1.0
  outer loop
    vertex -5.629165124598847 3.250000000000004 6.0
    vertex -5.629165124598858 -3.2499999999999885 6.0
    vertex -5.258610463437167 -3.820604139901063 6.0
  endloop
endfacet
facet normal 4.250590080650795e-31 2.4938886451050762e-31 1.0
  outer loop
    vertex -5.629165124598847 3.250000000000004 6.0
    vertex -5.258610463437167 -3.820604139901063 6.0
    vertex -5.258610463437154 3.82060413990108 6.0
  endloop
endfacet
facet normal 4.250590080650795e-31 2.4938886451050762e-31 1.0
  outer loop
    vertex -5.258610463437154 3.82060413990108 6.0
    vertex -5.258610463437167 -3.820604139901063 6.0
    vertex -4.830441365603074 -4.349348941332566 6.0
  endloop
endfacet
facet normal 4.250590080650795e-31 2.4938886451050762e-31 1.0
  outer loop
    vertex -5.258610463437154 3.82060413990108 6.0
    vertex -4.830441365603074 -4.349348941332566 6.0
    vertex -4.830441365603058 4.349348941332583 6.0
  endloop
endfacet
facet normal 4.250590080650795e-31 2.4938886451050762e-31 1.0
  outer loop
    vertex -4.830441365603058 4.349348941332583 6.0
    vertex -4.830441365603074 -4.349348941332566 6.0
    vertex -4.349348941332593 -4.83044136560305 6.0
  endloop
endfacet
facet normal 4.250590080650795e-31 2.4938886451050762e-31 1.0
  outer loop
    vertex -4.830441365603058 4.349348941332583 6.0
    vertex -4.349348941332593 -4.83044136560305 6.0
    vertex -4.349348941332573 4.830441365603068 6.0
  endloop
endfacet
facet normal 4.250590080650795e-31 2.4938886451050762e-31 1.0
  outer loop
    vertex -4.349348941332573 4.830441365603068 6.0
    vertex -4.349348941332593 -4.83044136560305 6.0
    vertex -3.820604139901092 -5.2586104634371456 6.0
  endloop
endfacet
facet normal 4.250590080650795e-31 2.4938886451050762e-31 1.0
  outer loop
    vertex -4.349348941332573 4.830441365603068 6.0
    vertex -3.820604139901092 -5.2586104634371456 6.0
    vertex -3.820604139901068 5.258610463437163 6.0
  endloop
endfacet
facet normal 4.250590080650795e-31 2.4938886451050762e-31 1.0
  outer loop
    vertex -3.820604139901068 5.258610463437163 6.0
    vertex -3.820604139901092 -5.2586104634371456 6.0
    vertex -3.2500000000000195 -5.629165124598839 6.0
  endloop
endfacet
facet normal 4.250590080650795e-31 2.4938886451050762e-31 1.0
  outer loop
    vertex -3.820604139901068 5.258610463437163 6.0
    vertex -3.2500000000000195 -5.629165124598839 6.0
    vertex -3.249999999999991 5.629165124598856 6.0
  endloop
endfacet
facet normal 4.250590080650795e-31 2.4938886451050762e-31 1.0
  outer loop
    vertex -3.249999999999991 5.629165124598856 6.0
    vertex -3.2500000000000195 -5.629165124598839 6.0
    vertex -2.643788179992724 -5.938045474676896 6.0
  endloop
endfacet
facet normal 4.250590080650795e-31 2.4938886451050762e-31 1.0
  outer loop
    vertex -3.249999999999991 5.629165124598856 6.0
    vertex -2.643788179992724 -5.938045474676896 6.0
    vertex -2.796162697312812 0.14654067748024338 6.0
  endloop
endfacet
facet normal 4.250590080650795e-31 2.4938886451050762e-31 1.0
  outer loop
    vertex -2.796162697312812 0.14654067748024338 6.0
    vertex -2.643788179992724 -5.938045474676896 6.0
    vertex -2.7388132820546622 -0.5821527342897261 6.0
  endloop
endfacet
facet normal 4.250590080650795e-31 2.4938886451050762e-31 1.0
  outer loop
    vertex -2.7388132820546622 -0.5821527342897261 6.0
    vertex -2.643788179992724 -5.938045474676896 6.0
    vertex -2.4948182677274375 -1.2711733992707315 6.0
  endloop
endfacet
facet normal 4.250590080650795e-31 2.4938886451050762e-31 1.0
  outer loop
    vertex -2.4948182677274375 -1.2711733992707315 6.0
    vertex -2.643788179992724 -5.938045474676896 6.0
    vertex -2.008610463437184 -6.18186735591849 6.0
  endloop
endfacet
facet normal 4.250590080650795e-31 2.4938886451050762e-31 1.0
  outer loop
    vertex -2.4948182677274375 -1.2711733992707315 6.0
    vertex -2.008610463437184 -6.18186735591849 6.0
    vertex -2.0808055113367123 -1.8735656978048045 6.0
  endloop
endfacet
facet normal 4.250590080650795e-31 2.4938886451050762e-31 1.0
  outer loop
    vertex -2.0808055113367123 -1.8735656978048045 6.0
    vertex -2.008610463437184 -6.18186735591849 6.0
    vertex -1.524989298042085 -2.3482775902471893 6.0
  endloop
endfacet
facet normal 4.250590080650795e-31 2.4938886451050762e-31 1.0
  outer loop
    vertex -1.524989298042085 -2.3482775902471893 6.0
    vertex -2.008610463437184 -6.18186735591849 6.0
    vertex -1.351425990315464 -6.35795940476973 6.0
  endloop
endfacet
facet normal 4.250590080650795e-31 2.4938886451050762e-31 1.0
  outer loop
    vertex -1.524989298042085 -2.3482775902471893 6.0
    vertex -1.351425990315464 -6.35795940476973 6.0
    vertex -0.8652475842498626 -2.662958245626433 6.0
  endloop
endfacet
facet normal 4.250590080650795e-31 2.4938886451050762e-31 1.0
  outer loop
    vertex -0.8652475842498626 -2.662958245626433 6.0
    vertex -1.351425990315464 -6.35795940476973 6.0
    vertex -0.6794350112397783 -6.464392319893772 6.0
  endloop
endfacet
facet normal 4.250590080650795e-31 2.4938886451050762e-31 1.0
  outer loop
    vertex -0.8652475842498626 -2.662958245626433 6.0
    vertex -0.6794350112397783 -6.464392319893772 6.0
    vertex -0.1465406774802531 -2.7961626973128113 6.0
  endloop
endfacet
facet normal 4.250590080650795e-31 2.4938886451050762e-31 1.0
  outer loop
    vertex -0.1465406774802531 -2.7961626973128113 6.0
    vertex -0.6794350112397783 -6.464392319893772 6.0
    vertex -3.3134606169937796e-14 -6.499999999999999 6.0
  endloop
endfacet
facet normal 4.250590080650795e-31 2.4938886451050762e-31 1.0
  outer loop
    vertex -0.1465406774802531 -2.7961626973128113 6.0
    vertex -3.3134606169937796e-14 -6.499999999999999 6.0
    vertex 0.5821527342897157 -2.738813282054662 6.0
  endloop
endfacet
facet normal 4.250590080650795e-31 2.4938886451050762e-31 1.0
  outer loop
    vertex 0.5821527342897157 -2.738813282054662 6.0
    vertex -3.3134606169937796e-14 -6.499999999999999 6.0
    vertex 0.6794350112397132 -6.464392319893779 6.0
  endloop
endfacet
facet normal 4.250590080650795e-31 2.4938886451050762e-31 1.0
  outer loop
    vertex 0.5821527342897157 -2.738813282054662 6.0
    vertex 0.6794350112397132 -6.464392319893779 6.0
    vertex 1.271173399270721 -2.494818267727437 6.0
  endloop
endfacet
facet normal 4.250590080650795e-31 2.4938886451050762e-31 1.0
  outer loop
    vertex 1.271173399270721 -2.494818267727437 6.0
    vertex 0.6794350112397132 -6.464392319893779 6.0
    vertex 1.3514259903154 -6.357959404769744 6.0
  endloop
endfacet
facet normal 4.250590080650795e-31 2.4938886451050762e-31 1.0
  outer loop
    vertex 1.271173399270721 -2.494818267727437 6.0
    vertex 1.3514259903154 -6.357959404769744 6.0
    vertex 1.8735656978047937 -2.080805511336712 6.0
  endloop
endfacet
facet normal 4.250590080650795e-31 2.4938886451050762e-31 1.0
  outer loop
    vertex 1.8735656978047937 -2.080805511336712 6.0
    vertex 1.3514259903154 -6.357959404769744 6.0
    vertex 2.008610463437121 -6.18186735591851 6.0
  endloop
endfacet
facet normal 4.250590080650795e-31 2.4938886451050762e-31 1.0
  outer loop
    vertex 1.8735656978047937 -2.080805511336712 6.0
    vertex 2.008610463437121 -6.18186735591851 6.0
    vertex 2.348277590247179 -1.5249892980420845 6.0
  endloop
endfacet
facet normal 4.250590080650795e-31 2.4938886451050762e-31 1.0
  outer loop
    vertex 2.348277590247179 -1.5249892980420845 6.0
    vertex 2.008610463437121 -6.18186735591851 6.0
    vertex 2.643788179992664 -5.938045474676922 6.0
  endloop
endfacet
facet normal 4.250590080650795e-31 2.4938886451050762e-31 1.0
  outer loop
    vertex 2.348277590247179 -1.5249892980420845 6.0
    vertex 2.643788179992664 -5.938045474676922 6.0
    vertex 2.6629582456264242 -0.8652475842498575 6.0
  endloop
endfacet
facet normal 4.250590080650795e-31 2.4938886451050762e-31 1.0
  outer loop
    vertex 2.6629582456264242 -0.8652475842498575 6.0
    vertex 2.643788179992664 -5.938045474676922 6.0
    vertex 3.2499999999999623 -5.629165124598872 6.0
  endloop
endfacet
facet normal 4.250590080650795e-31 2.4938886451050762e-31 1.0
  outer loop
    vertex 2.6629582456264242 -0.8652475842498575 6.0
    vertex 3.2499999999999623 -5.629165124598872 6.0
    vertex 2.796162697312801 -0.14654067748024832 6.0
  endloop
endfacet
facet normal 4.250590080650795e-31 2.4938886451050762e-31 1.0
  outer loop
    vertex -2.796162697312812 0.14654067748024338 6.0
    vertex -2.6437881799926912 5.93804547467691 6.0
    vertex -3.249999999999991 5.629165124598856 6.0
  endloop
endfacet
facet normal 4.250590080650795e-31 2.4938886451050762e-31 1.0
  outer loop
    vertex -2.6437881799926912 5.93804547467691 6.0
    vertex -2.796162697312812 0.14654067748024338 6.0
    vertex -2.662958245626434 0.8652475842498534 6.0
  endloop
endfacet
facet normal 4.250590080650795e-31 2.4938886451050762e-31 1.0
  outer loop
    vertex -2.6437881799926912 5.93804547467691 6.0
    vertex -2.662958245626434 0.8652475842498534 6.0
    vertex -2.3482775902471897 1.524989298042076 6.0
  endloop
endfacet
facet normal 4.250590080650795e-31 2.4938886451050762e-31 1.0
  outer loop
    vertex -2.6437881799926912 5.93804547467691 6.0
    vertex -2.3482775902471897 1.524989298042076 6.0
    vertex -2.0086104634371464 6.181867355918501 6.0
  endloop
endfacet
facet normal 4.250590080650795e-31 2.4938886451050762e-31 1.0
  outer loop
    vertex -2.0086104634371464 6.181867355918501 6.0
    vertex -2.3482775902471897 1.524989298042076 6.0
    vertex -1.8735656978048043 2.0808055113367034 6.0
  endloop
endfacet
facet normal 4.250590080650795e-31 2.4938886451050762e-31 1.0
  outer loop
    vertex -2.0086104634371464 6.181867355918501 6.0
    vertex -1.8735656978048043 2.0808055113367034 6.0
    vertex -1.3514259903154233 6.35795940476974 6.0
  endloop
endfacet
facet normal 4.250590080650795e-31 2.4938886451050762e-31 1.0
  outer loop
    vertex -1.3514259903154233 6.35795940476974 6.0
    vertex -1.8735656978048043 2.0808055113367034 6.0
    vertex -1.2711733992707306 2.4948182677274287 6.0
  endloop
endfacet
facet normal 4.250590080650795e-31 2.4938886451050762e-31 1.0
  outer loop
    vertex -1.3514259903154233 6.35795940476974 6.0
    vertex -1.2711733992707306 2.4948182677274287 6.0
    vertex -0.6794350112397343 6.464392319893778 6.0
  endloop
endfacet
facet normal 4.250590080650795e-31 2.4938886451050762e-31 1.0
  outer loop
    vertex -0.6794350112397343 6.464392319893778 6.0
    vertex -1.2711733992707306 2.4948182677274287 6.0
    vertex -0.582152734289725 2.738813282054653 6.0
  endloop
endfacet
facet normal 4.250590080650795e-31 2.4938886451050762e-31 1.0
  outer loop
    vertex -0.6794350112397343 6.464392319893778 6.0
    vertex -0.582152734289725 2.738813282054653 6.0
    vertex 1.515731984369495e-14 6.499999999999999 6.0
  endloop
endfacet
facet normal 4.250590080650795e-31 2.4938886451050762e-31 1.0
  outer loop
    vertex 1.515731984369495e-14 6.499999999999999 6.0
    vertex -0.582152734289725 2.738813282054653 6.0
    vertex 0.14654067748024321 2.7961626973128015 6.0
  endloop
endfacet
facet normal 4.250590080650795e-31 2.4938886451050762e-31 1.0
  outer loop
    vertex 1.515731984369495e-14 6.499999999999999 6.0
    vertex 0.14654067748024321 2.7961626973128015 6.0
    vertex 0.6794350112397629 6.464392319893774 6.0
  endloop
endfacet
facet normal 4.250590080650795e-31 2.4938886451050762e-31 1.0
  outer loop
    vertex 0.6794350112397629 6.464392319893774 6.0
    vertex 0.14654067748024321 2.7961626973128015 6.0
    vertex 0.8652475842498522 2.662958245626424 6.0
  endloop
endfacet
facet normal 4.250590080650795e-31 2.4938886451050762e-31 1.0
  outer loop
    vertex 0.6794350112397629 6.464392319893774 6.0
    vertex 0.8652475842498522 2.662958245626424 6.0
    vertex 1.351425990315452 6.3579594047697325 6.0
  endloop
endfacet
facet normal 4.250590080650795e-31 2.4938886451050762e-31 1.0
  outer loop
    vertex 1.351425990315452 6.3579594047697325 6.0
    vertex 0.8652475842498522 2.662958245626424 6.0
    vertex 1.524989298042074 2.3482775902471804 6.0
  endloop
endfacet
facet normal 4.250590080650795e-31 2.4938886451050762e-31 1.0
  outer loop
    vertex 1.351425990315452 6.3579594047697325 6.0
    vertex 1.524989298042074 2.3482775902471804 6.0
    vertex 2.0086104634371744 6.1818673559184925 6.0
  endloop
endfacet
facet normal 4.250590080650795e-31 2.4938886451050762e-31 1.0
  outer loop
    vertex 2.0086104634371744 6.1818673559184925 6.0
    vertex 1.524989298042074 2.3482775902471804 6.0
    vertex 2.0808055113367008 1.8735656978047959 6.0
  endloop
endfacet
facet normal 4.250590080650795e-31 2.4938886451050762e-31 1.0
  outer loop
    vertex 2.0086104634371744 6.1818673559184925 6.0
    vertex 2.0808055113367008 1.8735656978047959 6.0
    vertex 2.6437881799927188 5.938045474676898 6.0
  endloop
endfacet
facet normal 4.250590080650795e-31 2.4938886451050762e-31 1.0
  outer loop
    vertex 2.6437881799927188 5.938045474676898 6.0
    vertex 2.0808055113367008 1.8735656978047959 6.0
    vertex 2.4948182677274255 1.2711733992707241 6.0
  endloop
endfacet
facet normal 4.250590080650795e-31 2.4938886451050762e-31 1.0
  outer loop
    vertex 2.6437881799927188 5.938045474676898 6.0
    vertex 2.4948182677274255 1.2711733992707241 6.0
    vertex 2.7388132820546507 0.5821527342897198 6.0
  endloop
endfacet
facet normal 4.250590080650795e-31 2.4938886451050762e-31 1.0
  outer loop
    vertex 2.6437881799927188 5.938045474676898 6.0
    vertex 2.7388132820546507 0.5821527342897198 6.0
    vertex 3.250000000000015 5.629165124598842 6.0
  endloop
endfacet
facet normal 4.250590080650795e-31 2.4938886451050762e-31 1.0
  outer loop
    vertex 3.250000000000015 5.629165124598842 6.0
    vertex 2.7388132820546507 0.5821527342897198 6.0
    vertex 2.796162697312801 -0.14654067748024832 6.0
  endloop
endfacet
facet normal 4.250590080650795e-31 2.4938886451050762e-31 1.0
  outer loop
    vertex 3.250000000000015 5.629165124598842 6.0
    vertex 2.796162697312801 -0.14654067748024832 6.0
    vertex 3.2499999999999623 -5.629165124598872 6.0
  endloop
endfacet
facet normal 4.250590080650795e-31 2.4938886451050762e-31 1.0
  outer loop
    vertex 3.250000000000015 5.629165124598842 6.0
    vertex 3.2499999999999623 -5.629165124598872 6.0
    vertex 3.820604139901064 -5.258610463437166 6.0
  endloop
endfacet
facet normal 4.250590080650795e-31 2.4938886451050762e-31 1.0
  outer loop
    vertex 3.250000000000015 5.629165124598842 6.0
    vertex 3.820604139901064 -5.258610463437166 6.0
    vertex 3.8206041399010893 5.258610463437148 6.0
  endloop
endfacet
facet normal 4.250590080650795e-31 2.4938886451050762e-31 1.0
  outer loop
    vertex 3.8206041399010893 5.258610463437148 6.0
    vertex 3.820604139901064 -5.258610463437166 6.0
    vertex 4.349348941332567 -4.830441365603072 6.0
  endloop
endfacet
facet normal 4.250590080650795e-31 2.4938886451050762e-31 1.0
  outer loop
    vertex 3.8206041399010893 5.258610463437148 6.0
    vertex 4.349348941332567 -4.830441365603072 6.0
    vertex 4.3493489413325905 4.8304413656030505 6.0
  endloop
endfacet
facet normal 4.250590080650795e-31 2.4938886451050762e-31 1.0
  outer loop
    vertex 4.3493489413325905 4.8304413656030505 6.0
    vertex 4.349348941332567 -4.830441365603072 6.0
    vertex 4.830441365603053 -4.34934894133259 6.0
  endloop
endfacet
facet normal 4.250590080650795e-31 2.4938886451050762e-31 1.0
  outer loop
    vertex 4.3493489413325905 4.8304413656030505 6.0
    vertex 4.830441365603053 -4.34934894133259 6.0
    vertex 4.830441365603074 4.349348941332566 6.0
  endloop
endfacet
facet normal 4.250590080650795e-31 2.4938886451050762e-31 1.0
  outer loop
    vertex 4.830441365603074 4.349348941332566 6.0
    vertex 4.830441365603053 -4.34934894133259 6.0
    vertex 5.25861046343715 -3.820604139901086 6.0
  endloop
endfacet
facet normal 4.250590080650795e-31 2.4938886451050762e-31 1.0
  outer loop
    vertex 4.830441365603074 4.349348941332566 6.0
    vertex 5.25861046343715 -3.820604139901086 6.0
    vertex 5.258610463437168 3.820604139901062 6.0
  endloop
endfacet
facet normal 4.250590080650795e-31 2.4938886451050762e-31 1.0
  outer loop
    vertex 5.258610463437168 3.820604139901062 6.0
    vertex 5.25861046343715 -3.820604139901086 6.0
    vertex 5.629165124598844 -3.2500000000000124 6.0
  endloop
endfacet
facet normal 4.250590080650795e-31 2.4938886451050762e-31 1.0
  outer loop
    vertex 5.258610463437168 3.820604139901062 6.0
    vertex 5.629165124598844 -3.2500000000000124 6.0
    vertex 5.629165124598859 3.2499999999999862 6.0
  endloop
endfacet
facet normal 4.250590080650795e-31 2.4938886451050762e-31 1.0
  outer loop
    vertex 5.629165124598859 3.2499999999999862 6.0
    vertex 5.629165124598844 -3.2500000000000124 6.0
    vertex 5.9380454746769 -2.643788179992715 6.0
  endloop
endfacet
facet normal 4.250590080650795e-31 2.4938886451050762e-31 1.0
  outer loop
    vertex 5.629165124598859 3.2499999999999862 6.0
    vertex 5.9380454746769 -2.643788179992715 6.0
    vertex 5.938045474676911 2.6437881799926872 6.0
  endloop
endfacet
facet normal 4.250590080650795e-31 2.4938886451050762e-31 1.0
  outer loop
    vertex 5.938045474676911 2.6437881799926872 6.0
    vertex 5.9380454746769 -2.643788179992715 6.0
    vertex 6.181867355918493 -2.0086104634371713 6.0
  endloop
endfacet
facet normal 4.250590080650795e-31 2.4938886451050762e-31 1.0
  outer loop
    vertex 5.938045474676911 2.6437881799926872 6.0
    vertex 6.181867355918493 -2.0086104634371713 6.0
    vertex 6.181867355918502 2.0086104634371447 6.0
  endloop
endfacet
facet normal 4.250590080650795e-31 2.4938886451050762e-31 1.0
  outer loop
    vertex 6.181867355918502 2.0086104634371447 6.0
    vertex 6.181867355918493 -2.0086104634371713 6.0
    vertex 6.357959404769734 -1.351425990315449 6.0
  endloop
endfacet
facet normal 4.250590080650795e-31 2.4938886451050762e-31 1.0
  outer loop
    vertex 6.181867355918502 2.0086104634371447 6.0
    vertex 6.357959404769734 -1.351425990315449 6.0
    vertex 6.35795940476974 1.3514259903154215 6.0
  endloop
endfacet
facet normal 4.250590080650795e-31 2.4938886451050762e-31 1.0
  outer loop
    vertex 6.35795940476974 1.3514259903154215 6.0
    vertex 6.357959404769734 -1.351425990315449 6.0
    vertex 6.464392319893776 -0.6794350112397618 6.0
  endloop
endfacet
facet normal 4.250590080650795e-31 2.4938886451050762e-31 1.0
  outer loop
    vertex 6.35795940476974 1.3514259903154215 6.0
    vertex 6.464392319893776 -0.6794350112397618 6.0
    vertex 6.464392319893778 0.6794350112397347 6.0
  endloop
endfacet
facet normal 4.250590080650795e-31 2.4938886451050762e-31 1.0
  outer loop
    vertex 6.464392319893778 0.6794350112397347 6.0
    vertex 6.464392319893776 -0.6794350112397618 6.0
    vertex 6.499999999999999 -1.3394840792102513e-14 6.0
  endloop
endfacet
facet normal 0.15643446504023234 0.9876883405951375 6.751291999631994e-19
  outer loop
    vertex 0.6794350112397629 6.464392319893774 6.0
    vertex 1.351425990315452 6.3579594047697325 -0.15
    vertex 0.6794350112397629 6.464392319893774 -0.15
  endloop
endfacet
facet normal 0.15643446504023234 0.9876883405951375 6.751291999631994e-19
  outer loop
    vertex 1.351425990315452 6.3579594047697325 -0.15
    vertex 0.6794350112397629 6.464392319893774 6.0
    vertex 1.351425990315452 6.3579594047697325 6.0
  endloop
endfacet
facet normal 0.25881904510252357 0.9659258262890675 1.5787314265077751e-18
  outer loop
    vertex 1.351425990315452 6.3579594047697325 6.0
    vertex 2.0086104634371744 6.1818673559184925 -0.15
    vertex 1.351425990315452 6.3579594047697325 -0.15
  endloop
endfacet
facet normal 0.25881904510252357 0.9659258262890675 1.5787314265077751e-18
  outer loop
    vertex 2.0086104634371744 6.1818673559184925 -0.15
    vertex 1.351425990315452 6.3579594047697325 6.0
    vertex 2.0086104634371744 6.1818673559184925 6.0
  endloop
endfacet
facet normal 0.5664062369248308 -0.8241261886220171 -3.7111528814042154e-33
  outer loop
    vertex -1.2711733992707306 2.4948182677274287 6.0
    vertex -1.8735656978048043 2.0808055113367034 -0.15
    vertex -1.2711733992707306 2.4948182677274287 -0.15
  endloop
endfacet
facet normal 0.5664062369248308 -0.8241261886220171 -3.7111528814042154e-33
  outer loop
    vertex -1.8735656978048043 2.0808055113367034 -0.15
    vertex -1.2711733992707306 2.4948182677274287 6.0
    vertex -1.8735656978048043 2.0808055113367034 6.0
  endloop
endfacet
facet normal 0.9832549075639543 -0.18223552549214944 1.7822304378817343e-31
  outer loop
    vertex -2.662958245626434 0.8652475842498534 -0.15
    vertex -2.796162697312812 0.14654067748024338 6.0
    vertex -2.796162697312812 0.14654067748024338 -0.15
  endloop
endfacet
facet normal 0.9832549075639543 -0.18223552549214944 1.7822304378817343e-31
  outer loop
    vertex -2.796162697312812 0.14654067748024338 6.0
    vertex -2.662958245626434 0.8652475842498534 -0.15
    vertex -2.662958245626434 0.8652475842498534 6.0
  endloop
endfacet
facet normal 0.9025852843498599 -0.43051109680829686 1.2466434659440275e-31
  outer loop
    vertex -2.3482775902471897 1.524989298042076 -0.15
    vertex -2.662958245626434 0.8652475842498534 6.0
    vertex -2.662958245626434 0.8652475842498534 -0.15
  endloop
endfacet
facet normal 0.9025852843498599 -0.43051109680829686 1.2466434659440275e-31
  outer loop
    vertex -2.662958245626434 0.8652475842498534 6.0
    vertex -2.3482775902471897 1.524989298042076 -0.15
    vertex -2.3482775902471897 1.524989298042076 6.0
  endloop
endfacet
facet normal 0.7604059656000296 -0.6494480483301852 6.260998019779702e-32
  outer loop
    vertex -1.8735656978048043 2.0808055113367034 -0.15
    vertex -2.3482775902471897 1.524989298042076 6.0
    vertex -2.3482775902471897 1.524989298042076 -0.15
  endloop
endfacet
facet normal 0.7604059656000296 -0.6494480483301852 6.260998019779702e-32
  outer loop
    vertex -2.3482775902471897 1.524989298042076 6.0
    vertex -1.8735656978048043 2.0808055113367034 -0.15
    vertex -1.8735656978048043 2.0808055113367034 6.0
  endloop
endfacet
facet normal 0.9969173337331282 0.0784590957278432 2.1963613507528574e-31
  outer loop
    vertex -2.796162697312812 0.14654067748024338 -0.15
    vertex -2.7388132820546622 -0.5821527342897261 6.0
    vertex -2.7388132820546622 -0.5821527342897261 -0.15
  endloop
endfacet
facet normal 0.9969173337331282 0.0784590957278432 2.1963613507528574e-31
  outer loop
    vertex -2.7388132820546622 -0.5821527342897261 6.0
    vertex -2.796162697312812 0.14654067748024338 -0.15
    vertex -2.796162697312812 0.14654067748024338 6.0
  endloop
endfacet
facet normal 0.0 0.0 -1.0
  outer loop
    vertex -2.6437881799926912 5.93804547467691 -0.15
    vertex -2.796162697312812 0.14654067748024338 -0.15
    vertex -3.249999999999991 5.629165124598856 -0.15
  endloop
endfacet
facet normal 0.0 0.0 -1.0
  outer loop
    vertex -2.796162697312812 0.14654067748024338 -0.15
    vertex -2.6437881799926912 5.93804547467691 -0.15
    vertex -2.662958245626434 0.8652475842498534 -0.15
  endloop
endfacet
facet normal 0.0 0.0 -1.0
  outer loop
    vertex -2.662958245626434 0.8652475842498534 -0.15
    vertex -2.6437881799926912 5.93804547467691 -0.15
    vertex -2.3482775902471897 1.524989298042076 -0.15
  endloop
endfacet
facet normal 0.0 0.0 -1.0
  outer loop
    vertex -2.3482775902471897 1.524989298042076 -0.15
    vertex -2.6437881799926912 5.93804547467691 -0.15
    vertex -2.0086104634371464 6.181867355918501 -0.15
  endloop
endfacet
facet normal 0.0 0.0 -1.0
  outer loop
    vertex -2.3482775902471897 1.524989298042076 -0.15
    vertex -2.0086104634371464 6.181867355918501 -0.15
    vertex -1.8735656978048043 2.0808055113367034 -0.15
  endloop
endfacet
facet normal 0.0 0.0 -1.0
  outer loop
    vertex -1.8735656978048043 2.0808055113367034 -0.15
    vertex -2.0086104634371464 6.181867355918501 -0.15
    vertex -1.3514259903154233 6.35795940476974 -0.15
  endloop
endfacet
facet normal 0.0 0.0 -1.0
  outer loop
    vertex -1.8735656978048043 2.0808055113367034 -0.15
    vertex -1.3514259903154233 6.35795940476974 -0.15
    vertex -1.2711733992707306 2.4948182677274287 -0.15
  endloop
endfacet
facet normal 0.0 0.0 -1.0
  outer loop
    vertex -1.2711733992707306 2.4948182677274287 -0.15
    vertex -1.3514259903154233 6.35795940476974 -0.15
    vertex -0.6794350112397343 6.464392319893778 -0.15
  endloop
endfacet
facet normal 0.0 0.0 -1.0
  outer loop
    vertex -1.2711733992707306 2.4948182677274287 -0.15
    vertex -0.6794350112397343 6.464392319893778 -0.15
    vertex -0.582152734289725 2.738813282054653 -0.15
  endloop
endfacet
facet normal 0.0 0.0 -1.0
  outer loop
    vertex -0.582152734289725 2.738813282054653 -0.15
    vertex -0.6794350112397343 6.464392319893778 -0.15
    vertex 1.515731984369495e-14 6.499999999999999 -0.15
  endloop
endfacet
facet normal 0.0 0.0 -1.0
  outer loop
    vertex -0.582152734289725 2.738813282054653 -0.15
    vertex 1.515731984369495e-14 6.499999999999999 -0.15
    vertex 2.012584422706189e-16 2.784629695875871 -0.15
  endloop
endfacet
facet normal 0.0 0.0 -1.0
  outer loop
    vertex 2.012584422706189e-16 2.784629695875871 -0.15
    vertex 1.515731984369495e-14 6.499999999999999 -0.15
    vertex 0.14654067748024321 2.7961626973128015 -0.15
  endloop
endfacet
facet normal 0.0 0.0 -1.0
  outer loop
    vertex 0.14654067748024321 2.7961626973128015 -0.15
    vertex 1.515731984369495e-14 6.499999999999999 -0.15
    vertex 0.6794350112397629 6.464392319893774 -0.15
  endloop
endfacet
facet normal 0.0 0.0 -1.0
  outer loop
    vertex 0.14654067748024321 2.7961626973128015 -0.15
    vertex 0.6794350112397629 6.464392319893774 -0.15
    vertex 0.5773701872893047 2.716313167436469 -0.15
  endloop
endfacet
facet normal 0.0 0.0 -1.0
  outer loop
    vertex 0.5773701872893047 2.716313167436469 -0.15
    vertex 0.6794350112397629 6.464392319893774 -0.15
    vertex 0.8652475842498522 2.662958245626424 -0.15
  endloop
endfacet
facet normal 0.0 0.0 -1.0
  outer loop
    vertex 0.8652475842498522 2.662958245626424 -0.15
    vertex 0.6794350112397629 6.464392319893774 -0.15
    vertex 1.351425990315452 6.3579594047697325 -0.15
  endloop
endfacet
facet normal 0.0 0.0 -1.0
  outer loop
    vertex 0.8652475842498522 2.662958245626424 -0.15
    vertex 1.351425990315452 6.3579594047697325 -0.15
    vertex 1.524989298042074 2.3482775902471804 -0.15
  endloop
endfacet
facet normal 0.0 0.0 -1.0
  outer loop
    vertex 1.524989298042074 2.3482775902471804 -0.15
    vertex 1.351425990315452 6.3579594047697325 -0.15
    vertex 2.0086104634371744 6.1818673559184925 -0.15
  endloop
endfacet
facet normal 0.0 0.0 -1.0
  outer loop
    vertex 1.524989298042074 2.3482775902471804 -0.15
    vertex 2.0086104634371744 6.1818673559184925 -0.15
    vertex 2.0808055113367008 1.8735656978047959 -0.15
  endloop
endfacet
facet normal 0.0 0.0 -1.0
  outer loop
    vertex 2.0808055113367008 1.8735656978047959 -0.15
    vertex 2.0086104634371744 6.1818673559184925 -0.15
    vertex 2.6437881799927188 5.938045474676898 -0.15
  endloop
endfacet
facet normal 0.0 0.0 -1.0
  outer loop
    vertex 2.0808055113367008 1.8735656978047959 -0.15
    vertex 2.6437881799927188 5.938045474676898 -0.15
    vertex 2.4948182677274255 1.2711733992707241 -0.15
  endloop
endfacet
facet normal 0.0 0.0 -1.0
  outer loop
    vertex 2.4948182677274255 1.2711733992707241 -0.15
    vertex 2.6437881799927188 5.938045474676898 -0.15
    vertex 2.7388132820546507 0.5821527342897198 -0.15
  endloop
endfacet
facet normal 0.0 0.0 -1.0
  outer loop
    vertex 2.7388132820546507 0.5821527342897198 -0.15
    vertex 2.6437881799927188 5.938045474676898 -0.15
    vertex 3.250000000000015 5.629165124598842 -0.15
  endloop
endfacet
facet normal 0.0 0.0 -1.0
  outer loop
    vertex 2.7388132820546507 0.5821527342897198 -0.15
    vertex 3.250000000000015 5.629165124598842 -0.15
    vertex 2.796162697312801 -0.14654067748024832 -0.15
  endloop
endfacet
facet normal 0.0 0.0 -1.0
  outer loop
    vertex 2.796162697312801 -0.14654067748024832 -0.15
    vertex 3.250000000000015 5.629165124598842 -0.15
    vertex 3.2499999999999623 -5.629165124598872 -0.15
  endloop
endfacet
facet normal 0.0 0.0 -1.0
  outer loop
    vertex 3.2499999999999623 -5.629165124598872 -0.15
    vertex 3.250000000000015 5.629165124598842 -0.15
    vertex 3.820604139901064 -5.258610463437166 -0.15
  endloop
endfacet
facet normal 0.0 0.0 -1.0
  outer loop
    vertex 3.820604139901064 -5.258610463437166 -0.15
    vertex 3.250000000000015 5.629165124598842 -0.15
    vertex 3.8206041399010893 5.258610463437148 -0.15
  endloop
endfacet
facet normal 0.0 0.0 -1.0
  outer loop
    vertex 3.820604139901064 -5.258610463437166 -0.15
    vertex 3.8206041399010893 5.258610463437148 -0.15
    vertex 4.349348941332567 -4.830441365603072 -0.15
  endloop
endfacet
facet normal 0.0 0.0 -1.0
  outer loop
    vertex 4.349348941332567 -4.830441365603072 -0.15
    vertex 3.8206041399010893 5.258610463437148 -0.15
    vertex 4.3493489413325905 4.8304413656030505 -0.15
  endloop
endfacet
facet normal 0.0 0.0 -1.0
  outer loop
    vertex 4.349348941332567 -4.830441365603072 -0.15
    vertex 4.3493489413325905 4.8304413656030505 -0.15
    vertex 4.830441365603053 -4.34934894133259 -0.15
  endloop
endfacet
facet normal 0.0 0.0 -1.0
  outer loop
    vertex 4.830441365603053 -4.34934894133259 -0.15
    vertex 4.3493489413325905 4.8304413656030505 -0.15
    vertex 4.830441365603074 4.349348941332566 -0.15
  endloop
endfacet
facet normal 0.0 0.0 -1.0
  outer loop
    vertex 4.830441365603053 -4.34934894133259 -0.15
    vertex 4.830441365603074 4.349348941332566 -0.15
    vertex 5.25861046343715 -3.820604139901086 -0.15
  endloop
endfacet
facet normal 0.0 0.0 -1.0
  outer loop
    vertex 5.25861046343715 -3.820604139901086 -0.15
    vertex 4.830441365603074 4.349348941332566 -0.15
    vertex 5.258610463437168 3.820604139901062 -0.15
  endloop
endfacet
facet normal 0.0 0.0 -1.0
  outer loop
    vertex 5.25861046343715 -3.820604139901086 -0.15
    vertex 5.258610463437168 3.820604139901062 -0.15
    vertex 5.629165124598844 -3.2500000000000124 -0.15
  endloop
endfacet
facet normal 0.0 0.0 -1.0
  outer loop
    vertex 5.629165124598844 -3.2500000000000124 -0.15
    vertex 5.258610463437168 3.820604139901062 -0.15
    vertex 5.629165124598859 3.2499999999999862 -0.15
  endloop
endfacet
facet normal 0.0 0.0 -1.0
  outer loop
    vertex 5.629165124598844 -3.2500000000000124 -0.15
    vertex 5.629165124598859 3.2499999999999862 -0.15
    vertex 5.9380454746769 -2.643788179992715 -0.15
  endloop
endfacet
facet normal 0.0 0.0 -1.0
  outer loop
    vertex 5.9380454746769 -2.643788179992715 -0.15
    vertex 5.629165124598859 3.2499999999999862 -0.15
    vertex 5.938045474676911 2.6437881799926872 -0.15
  endloop
endfacet
facet normal 0.0 0.0 -1.0
  outer loop
    vertex 5.9380454746769 -2.643788179992715 -0.15
    vertex 5.938045474676911 2.6437881799926872 -0.15
    vertex 6.181867355918493 -2.0086104634371713 -0.15
  endloop
endfacet
facet normal 0.0 0.0 -1.0
  outer loop
    vertex 6.181867355918493 -2.0086104634371713 -0.15
    vertex 5.938045474676911 2.6437881799926872 -0.15
    vertex 6.181867355918502 2.0086104634371447 -0.15
  endloop
endfacet
facet normal 0.0 0.0 -1.0
  outer loop
    vertex 6.181867355918493 -2.0086104634371713 -0.15
    vertex 6.181867355918502 2.0086104634371447 -0.15
    vertex 6.357959404769734 -1.351425990315449 -0.15
  endloop
endfacet
facet normal 0.0 0.0 -1.0
  outer loop
    vertex 6.357959404769734 -1.351425990315449 -0.15
    vertex 6.181867355918502 2.0086104634371447 -0.15
    vertex 6.35795940476974 1.3514259903154215 -0.15
  endloop
endfacet
facet normal 0.0 0.0 -1.0
  outer loop
    vertex 6.357959404769734 -1.351425990315449 -0.15
    vertex 6.35795940476974 1.3514259903154215 -0.15
    vertex 6.464392319893776 -0.6794350112397618 -0.15
  endloop
endfacet
facet normal 0.0 0.0 -1.0
  outer loop
    vertex 6.464392319893776 -0.6794350112397618 -0.15
    vertex 6.35795940476974 1.3514259903154215 -0.15
    vertex 6.464392319893778 0.6794350112397347 -0.15
  endloop
endfacet
facet normal 0.0 0.0 -1.0
  outer loop
    vertex 6.464392319893776 -0.6794350112397618 -0.15
    vertex 6.464392319893778 0.6794350112397347 -0.15
    vertex 6.499999999999999 -1.3394840792102513e-14 -0.15
  endloop
endfacet
facet normal 0.0 0.0 -1.0
  outer loop
    vertex -6.464392319893776 0.6794350112397491 -0.15
    vertex -6.4643923198937765 -0.679435011239742 -0.15
    vertex -6.499999999999999 3.524958103184872e-15 -0.15
  endloop
endfacet
facet normal 0.0 0.0 -1.0
  outer loop
    vertex -6.4643923198937765 -0.679435011239742 -0.15
    vertex -6.464392319893776 0.6794350112397491 -0.15
    vertex -6.357959404769739 -1.3514259903154286 -0.15
  endloop
endfacet
facet normal 0.0 0.0 -1.0
  outer loop
    vertex -6.357959404769739 -1.3514259903154286 -0.15
    vertex -6.464392319893776 0.6794350112397491 -0.15
    vertex -6.357959404769735 1.3514259903154378 -0.15
  endloop
endfacet
facet normal 0.0 0.0 -1.0
  outer loop
    vertex -6.357959404769739 -1.3514259903154286 -0.15
    vertex -6.357959404769735 1.3514259903154378 -0.15
    vertex -6.1818673559185005 -2.0086104634371496 -0.15
  endloop
endfacet
facet normal 0.0 0.0 -1.0
  outer loop
    vertex -6.1818673559185005 -2.0086104634371496 -0.15
    vertex -6.357959404769735 1.3514259903154378 -0.15
    vertex -6.181867355918497 2.0086104634371615 -0.15
  endloop
endfacet
facet normal 0.0 0.0 -1.0
  outer loop
    vertex -6.1818673559185005 -2.0086104634371496 -0.15
    vertex -6.181867355918497 2.0086104634371615 -0.15
    vertex -5.93804547467691 -2.643788179992691 -0.15
  endloop
endfacet
facet normal 0.0 0.0 -1.0
  outer loop
    vertex -5.93804547467691 -2.643788179992691 -0.15
    vertex -6.181867355918497 2.0086104634371615 -0.15
    vertex -5.938045474676904 2.6437881799927054 -0.15
  endloop
endfacet
facet normal 0.0 0.0 -1.0
  outer loop
    vertex -5.93804547467691 -2.643788179992691 -0.15
    vertex -5.938045474676904 2.6437881799927054 -0.15
    vertex -5.629165124598858 -3.2499999999999885 -0.15
  endloop
endfacet
facet normal 0.0 0.0 -1.0
  outer loop
    vertex -5.629165124598858 -3.2499999999999885 -0.15
    vertex -5.938045474676904 2.6437881799927054 -0.15
    vertex -5.629165124598847 3.250000000000004 -0.15
  endloop
endfacet
facet normal 0.0 0.0 -1.0
  outer loop
    vertex -5.629165124598858 -3.2499999999999885 -0.15
    vertex -5.629165124598847 3.250000000000004 -0.15
    vertex -5.258610463437167 -3.820604139901063 -0.15
  endloop
endfacet
facet normal 0.0 0.0 -1.0
  outer loop
    vertex -5.258610463437167 -3.820604139901063 -0.15
    vertex -5.629165124598847 3.250000000000004 -0.15
    vertex -5.258610463437154 3.82060413990108 -0.15
  endloop
endfacet
facet normal 0.0 0.0 -1.0
  outer loop
    vertex -5.258610463437167 -3.820604139901063 -0.15
    vertex -5.258610463437154 3.82060413990108 -0.15
    vertex -4.830441365603074 -4.349348941332566 -0.15
  endloop
endfacet
facet normal 0.0 0.0 -1.0
  outer loop
    vertex -4.830441365603074 -4.349348941332566 -0.15
    vertex -5.258610463437154 3.82060413990108 -0.15
    vertex -4.830441365603058 4.349348941332583 -0.15
  endloop
endfacet
facet normal 0.0 0.0 -1.0
  outer loop
    vertex -4.830441365603074 -4.349348941332566 -0.15
    vertex -4.830441365603058 4.349348941332583 -0.15
    vertex -4.349348941332593 -4.83044136560305 -0.15
  endloop
endfacet
facet normal 0.0 0.0 -1.0
  outer loop
    vertex -4.349348941332593 -4.83044136560305 -0.15
    vertex -4.830441365603058 4.349348941332583 -0.15
    vertex -4.349348941332573 4.830441365603068 -0.15
  endloop
endfacet
facet normal 0.0 0.0 -1.0
  outer loop
    vertex -4.349348941332593 -4.83044136560305 -0.15
    vertex -4.349348941332573 4.830441365603068 -0.15
    vertex -3.820604139901092 -5.2586104634371456 -0.15
  endloop
endfacet
facet normal 0.0 0.0 -1.0
  outer loop
    vertex -3.820604139901092 -5.2586104634371456 -0.15
    vertex -4.349348941332573 4.830441365603068 -0.15
    vertex -3.820604139901068 5.258610463437163 -0.15
  endloop
endfacet
facet normal 0.0 0.0 -1.0
  outer loop
    vertex -3.820604139901092 -5.2586104634371456 -0.15
    vertex -3.820604139901068 5.258610463437163 -0.15
    vertex -3.2500000000000195 -5.629165124598839 -0.15
  endloop
endfacet
facet normal 0.0 0.0 -1.0
  outer loop
    vertex -3.2500000000000195 -5.629165124598839 -0.15
    vertex -3.820604139901068 5.258610463437163 -0.15
    vertex -3.249999999999991 5.629165124598856 -0.15
  endloop
endfacet
facet normal 0.0 0.0 -1.0
  outer loop
    vertex -3.2500000000000195 -5.629165124598839 -0.15
    vertex -3.249999999999991 5.629165124598856 -0.15
    vertex -2.643788179992724 -5.938045474676896 -0.15
  endloop
endfacet
facet normal 0.0 0.0 -1.0
  outer loop
    vertex -2.643788179992724 -5.938045474676896 -0.15
    vertex -3.249999999999991 5.629165124598856 -0.15
    vertex -2.796162697312812 0.14654067748024338 -0.15
  endloop
endfacet
facet normal 0.0 0.0 -1.0
  outer loop
    vertex -2.643788179992724 -5.938045474676896 -0.15
    vertex -2.796162697312812 0.14654067748024338 -0.15
    vertex -2.7388132820546622 -0.5821527342897261 -0.15
  endloop
endfacet
facet normal 0.0 0.0 -1.0
  outer loop
    vertex -2.643788179992724 -5.938045474676896 -0.15
    vertex -2.7388132820546622 -0.5821527342897261 -0.15
    vertex -2.4948182677274375 -1.2711733992707315 -0.15
  endloop
endfacet
facet normal 0.0 0.0 -1.0
  outer loop
    vertex -2.643788179992724 -5.938045474676896 -0.15
    vertex -2.4948182677274375 -1.2711733992707315 -0.15
    vertex -2.008610463437184 -6.18186735591849 -0.15
  endloop
endfacet
facet normal 0.0 0.0 -1.0
  outer loop
    vertex -2.008610463437184 -6.18186735591849 -0.15
    vertex -2.4948182677274375 -1.2711733992707315 -0.15
    vertex -2.0808055113367123 -1.8735656978048045 -0.15
  endloop
endfacet
facet normal 0.0 0.0 -1.0
  outer loop
    vertex -2.008610463437184 -6.18186735591849 -0.15
    vertex -2.0808055113367123 -1.8735656978048045 -0.15
    vertex -1.524989298042085 -2.3482775902471893 -0.15
  endloop
endfacet
facet normal 0.0 0.0 -1.0
  outer loop
    vertex -2.008610463437184 -6.18186735591849 -0.15
    vertex -1.524989298042085 -2.3482775902471893 -0.15
    vertex -1.351425990315464 -6.35795940476973 -0.15
  endloop
endfacet
facet normal 0.0 0.0 -1.0
  outer loop
    vertex -1.351425990315464 -6.35795940476973 -0.15
    vertex -1.524989298042085 -2.3482775902471893 -0.15
    vertex -0.8652475842498626 -2.662958245626433 -0.15
  endloop
endfacet
facet normal 0.0 0.0 -1.0
  outer loop
    vertex -1.351425990315464 -6.35795940476973 -0.15
    vertex -0.8652475842498626 -2.662958245626433 -0.15
    vertex -0.6794350112397783 -6.464392319893772 -0.15
  endloop
endfacet
facet normal 0.0 0.0 -1.0
  outer loop
    vertex -0.6794350112397783 -6.464392319893772 -0.15
    vertex -0.8652475842498626 -2.662958245626433 -0.15
    vertex -0.5773701872893028 -2.7163131674364807 -0.15
  endloop
endfacet
facet normal 0.0 0.0 -1.0
  outer loop
    vertex -0.6794350112397783 -6.464392319893772 -0.15
    vertex -0.5773701872893028 -2.7163131674364807 -0.15
    vertex -3.3134606169937796e-14 -6.499999999999999 -0.15
  endloop
endfacet
facet normal 0.0 0.0 -1.0
  outer loop
    vertex -3.3134606169937796e-14 -6.499999999999999 -0.15
    vertex -0.5773701872893028 -2.7163131674364807 -0.15
    vertex -0.1465406774802531 -2.7961626973128113 -0.15
  endloop
endfacet
facet normal 0.0 0.0 -1.0
  outer loop
    vertex -3.3134606169937796e-14 -6.499999999999999 -0.15
    vertex -0.1465406774802531 -2.7961626973128113 -0.15
    vertex -1.9896961843816118e-14 -2.7846296958758825 -0.15
  endloop
endfacet
facet normal 0.0 0.0 -1.0
  outer loop
    vertex -3.3134606169937796e-14 -6.499999999999999 -0.15
    vertex -1.9896961843816118e-14 -2.7846296958758825 -0.15
    vertex 0.6794350112397132 -6.464392319893779 -0.15
  endloop
endfacet
facet normal 0.0 0.0 -1.0
  outer loop
    vertex 0.6794350112397132 -6.464392319893779 -0.15
    vertex -1.9896961843816118e-14 -2.7846296958758825 -0.15
    vertex 0.5821527342897157 -2.738813282054662 -0.15
  endloop
endfacet
facet normal 0.0 0.0 -1.0
  outer loop
    vertex 0.6794350112397132 -6.464392319893779 -0.15
    vertex 0.5821527342897157 -2.738813282054662 -0.15
    vertex 1.271173399270721 -2.494818267727437 -0.15
  endloop
endfacet
facet normal 0.0 0.0 -1.0
  outer loop
    vertex 0.6794350112397132 -6.464392319893779 -0.15
    vertex 1.271173399270721 -2.494818267727437 -0.15
    vertex 1.3514259903154 -6.357959404769744 -0.15
  endloop
endfacet
facet normal 0.0 0.0 -1.0
  outer loop
    vertex 1.3514259903154 -6.357959404769744 -0.15
    vertex 1.271173399270721 -2.494818267727437 -0.15
    vertex 1.8735656978047937 -2.080805511336712 -0.15
  endloop
endfacet
facet normal 0.0 0.0 -1.0
  outer loop
    vertex 1.3514259903154 -6.357959404769744 -0.15
    vertex 1.8735656978047937 -2.080805511336712 -0.15
    vertex 2.008610463437121 -6.18186735591851 -0.15
  endloop
endfacet
facet normal 0.0 0.0 -1.0
  outer loop
    vertex 2.008610463437121 -6.18186735591851 -0.15
    vertex 1.8735656978047937 -2.080805511336712 -0.15
    vertex 2.348277590247179 -1.5249892980420845 -0.15
  endloop
endfacet
facet normal 0.0 0.0 -1.0
  outer loop
    vertex 2.008610463437121 -6.18186735591851 -0.15
    vertex 2.348277590247179 -1.5249892980420845 -0.15
    vertex 2.643788179992664 -5.938045474676922 -0.15
  endloop
endfacet
facet normal 0.0 0.0 -1.0
  outer loop
    vertex 2.643788179992664 -5.938045474676922 -0.15
    vertex 2.348277590247179 -1.5249892980420845 -0.15
    vertex 2.6629582456264242 -0.8652475842498575 -0.15
  endloop
endfacet
facet normal 0.0 0.0 -1.0
  outer loop
    vertex 2.643788179992664 -5.938045474676922 -0.15
    vertex 2.6629582456264242 -0.8652475842498575 -0.15
    vertex 3.2499999999999623 -5.629165124598872 -0.15
  endloop
endfacet
facet normal 0.0 0.0 -1.0
  outer loop
    vertex 3.2499999999999623 -5.629165124598872 -0.15
    vertex 2.6629582456264242 -0.8652475842498575 -0.15
    vertex 2.796162697312801 -0.14654067748024832 -0.15
  endloop
endfacet
facet normal -0.54463903501503 -0.838670567945422 3.041884920438436e-18
  outer loop
    vertex -3.2500000000000195 -5.629165124598839 6.0
    vertex -3.820604139901092 -5.2586104634371456 -0.15
    vertex -3.2500000000000195 -5.629165124598839 -0.15
  endloop
endfacet
facet normal -0.54463903501503 -0.838670567945422 3.041884920438436e-18
  outer loop
    vertex -3.820604139901092 -5.2586104634371456 -0.15
    vertex -3.2500000000000195 -5.629165124598839 6.0
    vertex -3.820604139901092 -5.2586104634371456 6.0
  endloop
endfacet
facet normal -0.9659258262890684 -0.25881904510252024 -5.470991090546931e-20
  outer loop
    vertex -6.357959404769739 -1.3514259903154286 6.0
    vertex -6.1818673559185005 -2.0086104634371496 -0.15
    vertex -6.1818673559185005 -2.0086104634371496 6.0
  endloop
endfacet
facet normal -0.9659258262890684 -0.25881904510252024 -5.470991090546931e-20
  outer loop
    vertex -6.1818673559185005 -2.0086104634371496 -0.15
    vertex -6.357959404769739 -1.3514259903154286 6.0
    vertex -6.357959404769739 -1.3514259903154286 -0.15
  endloop
endfacet
facet normal 0.9659258262890688 0.25881904510251946 -1.5787314265076706e-18
  outer loop
    vertex 6.181867355918502 2.0086104634371447 -0.15
    vertex 6.35795940476974 1.3514259903154215 6.0
    vertex 6.35795940476974 1.3514259903154215 -0.15
  endloop
endfacet
facet normal 0.9659258262890688 0.25881904510251946 -1.5787314265076706e-18
  outer loop
    vertex 6.35795940476974 1.3514259903154215 6.0
    vertex 6.181867355918502 2.0086104634371447 -0.15
    vertex 6.181867355918502 2.0086104634371447 6.0
  endloop
endfacet
facet normal -0.35836794954529855 0.9335804264972024 -7.364937440346759e-19
  outer loop
    vertex -2.6437881799926912 5.93804547467691 6.0
    vertex -2.0086104634371464 6.181867355918501 -0.15
    vertex -2.6437881799926912 5.93804547467691 -0.15
  endloop
endfacet
facet normal -0.35836794954529855 0.9335804264972024 -7.364937440346759e-19
  outer loop
    vertex -2.0086104634371464 6.181867355918501 -0.15
    vertex -2.6437881799926912 5.93804547467691 6.0
    vertex -2.0086104634371464 6.181867355918501 6.0
  endloop
endfacet
facet normal -0.052335956242940684 0.9986295347545742 4.478183872525317e-32
  outer loop
    vertex -0.6794350112397343 6.464392319893778 6.0
    vertex 1.515731984369495e-14 6.499999999999999 -0.15
    vertex -0.6794350112397343 6.464392319893778 -0.15
  endloop
endfacet
facet normal -0.052335956242940684 0.9986295347545742 4.478183872525317e-32
  outer loop
    vertex 1.515731984369495e-14 6.499999999999999 -0.15
    vertex -0.6794350112397343 6.464392319893778 6.0
    vertex 1.515731984369495e-14 6.499999999999999 6.0
  endloop
endfacet
facet normal 0.052335956242947 0.9986295347545737 6.667327747881539e-20
  outer loop
    vertex 1.515731984369495e-14 6.499999999999999 6.0
    vertex 0.6794350112397629 6.464392319893774 -0.15
    vertex 1.515731984369495e-14 6.499999999999999 -0.15
  endloop
endfacet
facet normal 0.052335956242947 0.9986295347545737 6.667327747881539e-20
  outer loop
    vertex 0.6794350112397629 6.464392319893774 -0.15
    vertex 1.515731984369495e-14 6.499999999999999 6.0
    vertex 0.6794350112397629 6.464392319893774 6.0
  endloop
endfacet
facet normal 0.3583679495453024 0.933580426497201 -3.943600974192391e-19
  outer loop
    vertex 2.0086104634371744 6.1818673559184925 6.0
    vertex 2.6437881799927188 5.938045474676898 -0.15
    vertex 2.0086104634371744 6.1818673559184925 -0.15
  endloop
endfacet
facet normal 0.3583679495453024 0.933580426497201 -3.943600974192391e-19
  outer loop
    vertex 2.6437881799927188 5.938045474676898 -0.15
    vertex 2.0086104634371744 6.1818673559184925 6.0
    vertex 2.6437881799927188 5.938045474676898 6.0
  endloop
endfacet
facet normal 0.9876883405951375 -0.1564344650402327 1.1687685333662163e-18
  outer loop
    vertex 6.464392319893776 -0.6794350112397618 -0.15
    vertex 6.357959404769734 -1.351425990315449 6.0
    vertex 6.357959404769734 -1.351425990315449 -0.15
  endloop
endfacet
facet normal 0.9876883405951375 -0.1564344650402327 1.1687685333662163e-18
  outer loop
    vertex 6.357959404769734 -1.351425990315449 6.0
    vertex 6.464392319893776 -0.6794350112397618 -0.15
    vertex 6.464392319893776 -0.6794350112397618 6.0
  endloop
endfacet
facet normal 0.052335956242938846 -0.9986295347545742 9.847630478312127e-20
  outer loop
    vertex 0.6794350112397132 -6.464392319893779 6.0
    vertex -3.3134606169937796e-14 -6.499999999999999 -0.15
    vertex 0.6794350112397132 -6.464392319893779 -0.15
  endloop
endfacet
facet normal 0.052335956242938846 -0.9986295347545742 9.847630478312127e-20
  outer loop
    vertex -3.3134606169937796e-14 -6.499999999999999 -0.15
    vertex 0.6794350112397132 -6.464392319893779 6.0
    vertex -3.3134606169937796e-14 -6.499999999999999 6.0
  endloop
endfacet
facet normal -0.5446390350150256 0.8386705679454249 1.3917540154393252e-18
  outer loop
    vertex -3.820604139901068 5.258610463437163 6.0
    vertex -3.249999999999991 5.629165124598856 -0.15
    vertex -3.820604139901068 5.258610463437163 -0.15
  endloop
endfacet
facet normal -0.5446390350150256 0.8386705679454249 1.3917540154393252e-18
  outer loop
    vertex -3.249999999999991 5.629165124598856 -0.15
    vertex -3.820604139901068 5.258610463437163 6.0
    vertex -3.249999999999991 5.629165124598856 6.0
  endloop
endfacet
facet normal -0.45399049973954486 0.8910065241883688 -0.0
  outer loop
    vertex -3.249999999999991 5.629165124598856 6.0
    vertex -2.6437881799926912 5.93804547467691 -0.15
    vertex -3.249999999999991 5.629165124598856 -0.15
  endloop
endfacet
facet normal -0.45399049973954486 0.8910065241883688 -0.0
  outer loop
    vertex -2.6437881799926912 5.93804547467691 -0.15
    vertex -3.249999999999991 5.629165124598856 6.0
    vertex -2.6437881799926912 5.93804547467691 6.0
  endloop
endfacet
facet normal 0.629320391049836 -0.777145961456972 -2.219098945129104e-18
  outer loop
    vertex 4.349348941332567 -4.830441365603072 6.0
    vertex 3.820604139901064 -5.258610463437166 -0.15
    vertex 4.349348941332567 -4.830441365603072 -0.15
  endloop
endfacet
facet normal 0.629320391049836 -0.777145961456972 -2.219098945129104e-18
  outer loop
    vertex 3.820604139901064 -5.258610463437166 -0.15
    vertex 4.349348941332567 -4.830441365603072 6.0
    vertex 3.820604139901064 -5.258610463437166 6.0
  endloop
endfacet
facet normal 0.8910065241883695 0.45399049973954403 5.522449072118168e-32
  outer loop
    vertex 5.629165124598859 3.2499999999999862 -0.15
    vertex 5.938045474676911 2.6437881799926872 6.0
    vertex 5.938045474676911 2.6437881799926872 -0.15
  endloop
endfacet
facet normal 0.8910065241883695 0.45399049973954403 5.522449072118168e-32
  outer loop
    vertex 5.938045474676911 2.6437881799926872 6.0
    vertex 5.629165124598859 3.2499999999999862 -0.15
    vertex 5.629165124598859 3.2499999999999862 6.0
  endloop
endfacet
facet normal 0.9986295347545739 -0.052335956242944896 9.847630478325561e-20
  outer loop
    vertex 6.499999999999999 -1.3394840792102513e-14 -0.15
    vertex 6.464392319893776 -0.6794350112397618 6.0
    vertex 6.464392319893776 -0.6794350112397618 -0.15
  endloop
endfacet
facet normal 0.9986295347545739 -0.052335956242944896 9.847630478325561e-20
  outer loop
    vertex 6.464392319893776 -0.6794350112397618 6.0
    vertex 6.499999999999999 -1.3394840792102513e-14 -0.15
    vertex 6.499999999999999 -1.3394840792102513e-14 6.0
  endloop
endfacet
facet normal -0.3583679495453037 -0.9335804264972004 -1.8673475854887592e-18
  outer loop
    vertex -2.008610463437184 -6.18186735591849 6.0
    vertex -2.643788179992724 -5.938045474676896 -0.15
    vertex -2.008610463437184 -6.18186735591849 -0.15
  endloop
endfacet
facet normal -0.3583679495453037 -0.9335804264972004 -1.8673475854887592e-18
  outer loop
    vertex -2.643788179992724 -5.938045474676896 -0.15
    vertex -2.008610463437184 -6.18186735591849 6.0
    vertex -2.643788179992724 -5.938045474676896 6.0
  endloop
endfacet
facet normal -0.6293203910498362 0.7771459614569721 -2.9787933712836357e-18
  outer loop
    vertex -4.349348941332573 4.830441365603068 6.0
    vertex -3.820604139901068 5.258610463437163 -0.15
    vertex -4.349348941332573 4.830441365603068 -0.15
  endloop
endfacet
facet normal -0.6293203910498362 0.7771459614569721 -2.9787933712836357e-18
  outer loop
    vertex -3.820604139901068 5.258610463437163 -0.15
    vertex -4.349348941332573 4.830441365603068 6.0
    vertex -3.820604139901068 5.258610463437163 6.0
  endloop
endfacet
facet normal 0.8386705679454232 -0.5446390350150283 -3.04188492043844e-18
  outer loop
    vertex 5.629165124598844 -3.2500000000000124 -0.15
    vertex 5.25861046343715 -3.820604139901086 6.0
    vertex 5.25861046343715 -3.820604139901086 -0.15
  endloop
endfacet
facet normal 0.8386705679454232 -0.5446390350150283 -3.04188492043844e-18
  outer loop
    vertex 5.25861046343715 -3.820604139901086 6.0
    vertex 5.629165124598844 -3.2500000000000124 -0.15
    vertex 5.629165124598844 -3.2500000000000124 6.0
  endloop
endfacet
facet normal -0.2588190451025204 0.9659258262890684 -1.5787314265076948e-18
  outer loop
    vertex -2.0086104634371464 6.181867355918501 6.0
    vertex -1.3514259903154233 6.35795940476974 -0.15
    vertex -2.0086104634371464 6.181867355918501 -0.15
  endloop
endfacet
facet normal -0.2588190451025204 0.9659258262890684 -1.5787314265076948e-18
  outer loop
    vertex -1.3514259903154233 6.35795940476974 -0.15
    vertex -2.0086104634371464 6.181867355918501 6.0
    vertex -1.3514259903154233 6.35795940476974 6.0
  endloop
endfacet
facet normal -0.8386705679454243 0.5446390350150269 -8.593223050972958e-19
  outer loop
    vertex -5.258610463437154 3.82060413990108 6.0
    vertex -5.629165124598847 3.250000000000004 -0.15
    vertex -5.629165124598847 3.250000000000004 6.0
  endloop
endfacet
facet normal -0.8386705679454243 0.5446390350150269 -8.593223050972958e-19
  outer loop
    vertex -5.629165124598847 3.250000000000004 -0.15
    vertex -5.258610463437154 3.82060413990108 6.0
    vertex -5.258610463437154 3.82060413990108 -0.15
  endloop
endfacet
facet normal 0.35836794954529494 -0.933580426497204 0.0
  outer loop
    vertex 2.643788179992664 -5.938045474676922 6.0
    vertex 2.008610463437121 -6.18186735591851 -0.15
    vertex 2.643788179992664 -5.938045474676922 -0.15
  endloop
endfacet
facet normal 0.35836794954529494 -0.933580426497204 0.0
  outer loop
    vertex 2.008610463437121 -6.18186735591851 -0.15
    vertex 2.643788179992664 -5.938045474676922 6.0
    vertex 2.008610463437121 -6.18186735591851 6.0
  endloop
endfacet
facet normal -0.9986295347545739 0.0523359562429451 -6.667327747876463e-20
  outer loop
    vertex -6.464392319893776 0.6794350112397491 6.0
    vertex -6.499999999999999 3.524958103184872e-15 -0.15
    vertex -6.499999999999999 3.524958103184872e-15 6.0
  endloop
endfacet
facet normal -0.9986295347545739 0.0523359562429451 -6.667327747876463e-20
  outer loop
    vertex -6.499999999999999 3.524958103184872e-15 -0.15
    vertex -6.464392319893776 0.6794350112397491 6.0
    vertex -6.464392319893776 0.6794350112397491 -0.15
  endloop
endfacet
facet normal -0.9876883405951378 0.15643446504023037 -1.0404982228095517e-19
  outer loop
    vertex -6.357959404769735 1.3514259903154378 6.0
    vertex -6.464392319893776 0.6794350112397491 -0.15
    vertex -6.464392319893776 0.6794350112397491 6.0
  endloop
endfacet
facet normal -0.9876883405951378 0.15643446504023037 -1.0404982228095517e-19
  outer loop
    vertex -6.464392319893776 0.6794350112397491 -0.15
    vertex -6.357959404769735 1.3514259903154378 6.0
    vertex -6.357959404769735 1.3514259903154378 -0.15
  endloop
endfacet
facet normal -0.15643446504022832 0.9876883405951382 3.895895111220134e-19
  outer loop
    vertex -1.3514259903154233 6.35795940476974 6.0
    vertex -0.6794350112397343 6.464392319893778 -0.15
    vertex -1.3514259903154233 6.35795940476974 -0.15
  endloop
endfacet
facet normal -0.15643446504022832 0.9876883405951382 3.895895111220134e-19
  outer loop
    vertex -0.6794350112397343 6.464392319893778 -0.15
    vertex -1.3514259903154233 6.35795940476974 6.0
    vertex -0.6794350112397343 6.464392319893778 6.0
  endloop
endfacet
facet normal -0.05233595624294927 -0.9986295347545737 -1.9695260956637686e-19
  outer loop
    vertex -3.3134606169937796e-14 -6.499999999999999 6.0
    vertex -0.6794350112397783 -6.464392319893772 -0.15
    vertex -3.3134606169937796e-14 -6.499999999999999 -0.15
  endloop
endfacet
facet normal -0.05233595624294927 -0.9986295347545737 -1.9695260956637686e-19
  outer loop
    vertex -0.6794350112397783 -6.464392319893772 -0.15
    vertex -3.3134606169937796e-14 -6.499999999999999 6.0
    vertex -0.6794350112397783 -6.464392319893772 6.0
  endloop
endfacet
facet normal -0.7771459614569725 -0.6293203910498356 -1.2261678213679135e-18
  outer loop
    vertex -5.258610463437167 -3.820604139901063 6.0
    vertex -4.830441365603074 -4.349348941332566 -0.15
    vertex -4.830441365603074 -4.349348941332566 6.0
  endloop
endfacet
facet normal -0.7771459614569725 -0.6293203910498356 -1.2261678213679135e-18
  outer loop
    vertex -4.830441365603074 -4.349348941332566 -0.15
    vertex -5.258610463437167 -3.820604139901063 6.0
    vertex -5.258610463437167 -3.820604139901063 -0.15
  endloop
endfacet
facet normal -0.9986295347545739 -0.052335956242943016 2.636258870452245e-19
  outer loop
    vertex -6.499999999999999 3.524958103184872e-15 6.0
    vertex -6.4643923198937765 -0.679435011239742 -0.15
    vertex -6.4643923198937765 -0.679435011239742 6.0
  endloop
endfacet
facet normal -0.9986295347545739 -0.052335956242943016 2.636258870452245e-19
  outer loop
    vertex -6.4643923198937765 -0.679435011239742 -0.15
    vertex -6.499999999999999 3.524958103184872e-15 6.0
    vertex -6.499999999999999 3.524958103184872e-15 -0.15
  endloop
endfacet
facet normal 0.707106781186545 -0.70710678118655 7.125592719942493e-32
  outer loop
    vertex 4.830441365603053 -4.34934894133259 6.0
    vertex 4.349348941332567 -4.830441365603072 -0.15
    vertex 4.830441365603053 -4.34934894133259 -0.15
  endloop
endfacet
facet normal 0.707106781186545 -0.70710678118655 7.125592719942493e-32
  outer loop
    vertex 4.349348941332567 -4.830441365603072 -0.15
    vertex 4.830441365603053 -4.34934894133259 6.0
    vertex 4.349348941332567 -4.830441365603072 6.0
  endloop
endfacet
facet normal 0.9659258262890675 -0.2588190451025236 1.5787314265078214e-18
  outer loop
    vertex 6.357959404769734 -1.351425990315449 -0.15
    vertex 6.181867355918493 -2.0086104634371713 6.0
    vertex 6.181867355918493 -2.0086104634371713 -0.15
  endloop
endfacet
facet normal 0.9659258262890675 -0.2588190451025236 1.5787314265078214e-18
  outer loop
    vertex 6.181867355918493 -2.0086104634371713 6.0
    vertex 6.357959404769734 -1.351425990315449 -0.15
    vertex 6.357959404769734 -1.351425990315449 6.0
  endloop
endfacet
facet normal -0.8386705679454249 -0.5446390350150258 -1.3232403102437522e-18
  outer loop
    vertex -5.629165124598858 -3.2499999999999885 6.0
    vertex -5.258610463437167 -3.820604139901063 -0.15
    vertex -5.258610463437167 -3.820604139901063 6.0
  endloop
endfacet
facet normal -0.8386705679454249 -0.5446390350150258 -1.3232403102437522e-18
  outer loop
    vertex -5.258610463437167 -3.820604139901063 -0.15
    vertex -5.629165124598858 -3.2499999999999885 6.0
    vertex -5.629165124598858 -3.2499999999999885 -0.15
  endloop
endfacet
facet normal -0.933580426497202 0.3583679495452996 7.364937440347424e-19
  outer loop
    vertex -5.938045474676904 2.6437881799927054 6.0
    vertex -6.181867355918497 2.0086104634371615 -0.15
    vertex -6.181867355918497 2.0086104634371615 6.0
  endloop
endfacet
facet normal -0.933580426497202 0.3583679495452996 7.364937440347424e-19
  outer loop
    vertex -6.181867355918497 2.0086104634371615 -0.15
    vertex -5.938045474676904 2.6437881799927054 6.0
    vertex -5.938045474676904 2.6437881799927054 -0.15
  endloop
endfacet
facet normal -0.9659258262890682 0.2588190451025212 7.620107578011059e-19
  outer loop
    vertex -6.181867355918497 2.0086104634371615 6.0
    vertex -6.357959404769735 1.3514259903154378 -0.15
    vertex -6.357959404769735 1.3514259903154378 6.0
  endloop
endfacet
facet normal -0.9659258262890682 0.2588190451025212 7.620107578011059e-19
  outer loop
    vertex -6.357959404769735 1.3514259903154378 -0.15
    vertex -6.181867355918497 2.0086104634371615 6.0
    vertex -6.181867355918497 2.0086104634371615 -0.15
  endloop
endfacet
facet normal -0.8910065241883667 0.45399049973954925 -1.4325971428681217e-18
  outer loop
    vertex -5.629165124598847 3.250000000000004 6.0
    vertex -5.938045474676904 2.6437881799927054 -0.15
    vertex -5.938045474676904 2.6437881799927054 6.0
  endloop
endfacet
facet normal -0.8910065241883667 0.45399049973954925 -1.4325971428681217e-18
  outer loop
    vertex -5.938045474676904 2.6437881799927054 -0.15
    vertex -5.629165124598847 3.250000000000004 6.0
    vertex -5.629165124598847 3.250000000000004 -0.15
  endloop
endfacet
facet normal -0.7771459614569706 0.629320391049838 2.219098945129122e-18
  outer loop
    vertex -4.830441365603058 4.349348941332583 6.0
    vertex -5.258610463437154 3.82060413990108 -0.15
    vertex -5.258610463437154 3.82060413990108 6.0
  endloop
endfacet
facet normal -0.7771459614569706 0.629320391049838 2.219098945129122e-18
  outer loop
    vertex -5.258610463437154 3.82060413990108 -0.15
    vertex -4.830441365603058 4.349348941332583 6.0
    vertex -4.830441365603058 4.349348941332583 -0.15
  endloop
endfacet
facet normal -0.9876883405951382 -0.15643446504022884 -1.2728183556470786e-18
  outer loop
    vertex -6.4643923198937765 -0.679435011239742 6.0
    vertex -6.357959404769739 -1.3514259903154286 -0.15
    vertex -6.357959404769739 -1.3514259903154286 6.0
  endloop
endfacet
facet normal -0.9876883405951382 -0.15643446504022884 -1.2728183556470786e-18
  outer loop
    vertex -6.357959404769739 -1.3514259903154286 -0.15
    vertex -6.4643923198937765 -0.679435011239742 6.0
    vertex -6.4643923198937765 -0.679435011239742 -0.15
  endloop
endfacet
facet normal -0.707106781186547 0.707106781186548 1.7533004168943678e-32
  outer loop
    vertex -4.830441365603058 4.349348941332583 6.0
    vertex -4.349348941332573 4.830441365603068 -0.15
    vertex -4.830441365603058 4.349348941332583 -0.15
  endloop
endfacet
facet normal -0.707106781186547 0.707106781186548 1.7533004168943678e-32
  outer loop
    vertex -4.349348941332573 4.830441365603068 -0.15
    vertex -4.830441365603058 4.349348941332583 6.0
    vertex -4.349348941332573 4.830441365603068 6.0
  endloop
endfacet
facet normal 0.7071067811865496 0.7071067811865456 -2.2313223624979974e-18
  outer loop
    vertex 4.3493489413325905 4.8304413656030505 -0.15
    vertex 4.830441365603074 4.349348941332566 6.0
    vertex 4.830441365603074 4.349348941332566 -0.15
  endloop
endfacet
facet normal 0.7071067811865496 0.7071067811865456 -2.2313223624979974e-18
  outer loop
    vertex 4.830441365603074 4.349348941332566 6.0
    vertex 4.3493489413325905 4.8304413656030505 -0.15
    vertex 4.3493489413325905 4.8304413656030505 6.0
  endloop
endfacet
facet normal 0.8386705679454257 0.5446390350150246 -4.6391800514642355e-19
  outer loop
    vertex 5.258610463437168 3.820604139901062 -0.15
    vertex 5.629165124598859 3.2499999999999862 6.0
    vertex 5.629165124598859 3.2499999999999862 -0.15
  endloop
endfacet
facet normal 0.8386705679454257 0.5446390350150246 -4.6391800514642355e-19
  outer loop
    vertex 5.629165124598859 3.2499999999999862 6.0
    vertex 5.258610463437168 3.820604139901062 -0.15
    vertex 5.258610463437168 3.820604139901062 6.0
  endloop
endfacet
facet normal 0.9986295347545742 0.05233595624294078 -1.6514958226196183e-19
  outer loop
    vertex 6.464392319893778 0.6794350112397347 -0.15
    vertex 6.499999999999999 -1.3394840792102513e-14 6.0
    vertex 6.499999999999999 -1.3394840792102513e-14 -0.15
  endloop
endfacet
facet normal 0.9986295347545742 0.05233595624294078 -1.6514958226196183e-19
  outer loop
    vertex 6.499999999999999 -1.3394840792102513e-14 6.0
    vertex 6.464392319893778 0.6794350112397347 -0.15
    vertex 6.464392319893778 0.6794350112397347 6.0
  endloop
endfacet
facet normal 0.544639035015029 0.8386705679454227 -9.27836010292855e-19
  outer loop
    vertex 3.250000000000015 5.629165124598842 6.0
    vertex 3.8206041399010893 5.258610463437148 -0.15
    vertex 3.250000000000015 5.629165124598842 -0.15
  endloop
endfacet
facet normal 0.544639035015029 0.8386705679454227 -9.27836010292855e-19
  outer loop
    vertex 3.8206041399010893 5.258610463437148 -0.15
    vertex 3.250000000000015 5.629165124598842 6.0
    vertex 3.8206041399010893 5.258610463437148 6.0
  endloop
endfacet
facet normal 0.544639035015023 -0.8386705679454268 -2.182562615341039e-18
  outer loop
    vertex 3.820604139901064 -5.258610463437166 6.0
    vertex 3.2499999999999623 -5.629165124598872 -0.15
    vertex 3.820604139901064 -5.258610463437166 -0.15
  endloop
endfacet
facet normal 0.544639035015023 -0.8386705679454268 -2.182562615341039e-18
  outer loop
    vertex 3.2499999999999623 -5.629165124598872 -0.15
    vertex 3.820604139901064 -5.258610463437166 6.0
    vertex 3.2499999999999623 -5.629165124598872 6.0
  endloop
endfacet
facet normal 0.4539904997395411 -0.8910065241883709 1.4325971428680562e-18
  outer loop
    vertex 3.2499999999999623 -5.629165124598872 6.0
    vertex 2.643788179992664 -5.938045474676922 -0.15
    vertex 3.2499999999999623 -5.629165124598872 -0.15
  endloop
endfacet
facet normal 0.4539904997395411 -0.8910065241883709 1.4325971428680562e-18
  outer loop
    vertex 2.643788179992664 -5.938045474676922 -0.15
    vertex 3.2499999999999623 -5.629165124598872 6.0
    vertex 2.643788179992664 -5.938045474676922 6.0
  endloop
endfacet
facet normal 0.9876883405951382 0.15643446504022882 3.895895111220134e-19
  outer loop
    vertex 6.35795940476974 1.3514259903154215 -0.15
    vertex 6.464392319893778 0.6794350112397347 6.0
    vertex 6.464392319893778 0.6794350112397347 -0.15
  endloop
endfacet
facet normal 0.9876883405951382 0.15643446504022882 3.895895111220134e-19
  outer loop
    vertex 6.464392319893778 0.6794350112397347 6.0
    vertex 6.35795940476974 1.3514259903154215 -0.15
    vertex 6.35795940476974 1.3514259903154215 6.0
  endloop
endfacet
facet normal 0.4539904997395495 0.8910065241883665 -1.997783416207391e-32
  outer loop
    vertex 2.6437881799927188 5.938045474676898 6.0
    vertex 3.250000000000015 5.629165124598842 -0.15
    vertex 2.6437881799927188 5.938045474676898 -0.15
  endloop
endfacet
facet normal 0.4539904997395495 0.8910065241883665 -1.997783416207391e-32
  outer loop
    vertex 3.250000000000015 5.629165124598842 -0.15
    vertex 2.6437881799927188 5.938045474676898 6.0
    vertex 3.250000000000015 5.629165124598842 6.0
  endloop
endfacet
facet normal 0.8910065241883663 -0.45399049973954986 1.4058151013747751e-18
  outer loop
    vertex 5.9380454746769 -2.643788179992715 -0.15
    vertex 5.629165124598844 -3.2500000000000124 6.0
    vertex 5.629165124598844 -3.2500000000000124 -0.15
  endloop
endfacet
facet normal 0.8910065241883663 -0.45399049973954986 1.4058151013747751e-18
  outer loop
    vertex 5.629165124598844 -3.2500000000000124 6.0
    vertex 5.9380454746769 -2.643788179992715 -0.15
    vertex 5.9380454746769 -2.643788179992715 6.0
  endloop
endfacet
facet normal -0.2588190451025243 -0.9659258262890673 -7.6201075780114585e-19
  outer loop
    vertex -1.351425990315464 -6.35795940476973 6.0
    vertex -2.008610463437184 -6.18186735591849 -0.15
    vertex -1.351425990315464 -6.35795940476973 -0.15
  endloop
endfacet
facet normal -0.2588190451025243 -0.9659258262890673 -7.6201075780114585e-19
  outer loop
    vertex -2.008610463437184 -6.18186735591849 -0.15
    vertex -1.351425990315464 -6.35795940476973 6.0
    vertex -2.008610463437184 -6.18186735591849 6.0
  endloop
endfacet
facet normal -0.6293203910498385 -0.77714596145697 9.92931123761258e-19
  outer loop
    vertex -3.820604139901092 -5.2586104634371456 6.0
    vertex -4.349348941332593 -4.83044136560305 -0.15
    vertex -3.820604139901092 -5.2586104634371456 -0.15
  endloop
endfacet
facet normal -0.6293203910498385 -0.77714596145697 9.92931123761258e-19
  outer loop
    vertex -4.349348941332593 -4.83044136560305 -0.15
    vertex -3.820604139901092 -5.2586104634371456 6.0
    vertex -4.349348941332593 -4.83044136560305 6.0
  endloop
endfacet
facet normal -0.15643446504023514 -0.987688340595137 3.895895111221493e-19
  outer loop
    vertex -0.6794350112397783 -6.464392319893772 6.0
    vertex -1.351425990315464 -6.35795940476973 -0.15
    vertex -0.6794350112397783 -6.464392319893772 -0.15
  endloop
endfacet
facet normal -0.15643446504023514 -0.987688340595137 3.895895111221493e-19
  outer loop
    vertex -1.351425990315464 -6.35795940476973 -0.15
    vertex -0.6794350112397783 -6.464392319893772 6.0
    vertex -1.351425990315464 -6.35795940476973 6.0
  endloop
endfacet
facet normal 0.9335804264972012 -0.3583679495453016 -7.364937440346959e-19
  outer loop
    vertex 6.181867355918493 -2.0086104634371713 -0.15
    vertex 5.9380454746769 -2.643788179992715 6.0
    vertex 5.9380454746769 -2.643788179992715 -0.15
  endloop
endfacet
facet normal 0.9335804264972012 -0.3583679495453016 -7.364937440346959e-19
  outer loop
    vertex 5.9380454746769 -2.643788179992715 6.0
    vertex 6.181867355918493 -2.0086104634371713 -0.15
    vertex 6.181867355918493 -2.0086104634371713 6.0
  endloop
endfacet
facet normal -0.70710678118655 -0.707106781186545 2.231322362498045e-18
  outer loop
    vertex -4.830441365603074 -4.349348941332566 6.0
    vertex -4.349348941332593 -4.83044136560305 -0.15
    vertex -4.349348941332593 -4.83044136560305 6.0
  endloop
endfacet
facet normal -0.70710678118655 -0.707106781186545 2.231322362498045e-18
  outer loop
    vertex -4.349348941332593 -4.83044136560305 -0.15
    vertex -4.830441365603074 -4.349348941332566 6.0
    vertex -4.830441365603074 -4.349348941332566 -0.15
  endloop
endfacet
facet normal -0.8910065241883695 -0.453990499739544 7.520232488325566e-32
  outer loop
    vertex -5.93804547467691 -2.643788179992691 6.0
    vertex -5.629165124598858 -3.2499999999999885 -0.15
    vertex -5.629165124598858 -3.2499999999999885 6.0
  endloop
endfacet
facet normal -0.8910065241883695 -0.453990499739544 7.520232488325566e-32
  outer loop
    vertex -5.629165124598858 -3.2499999999999885 -0.15
    vertex -5.93804547467691 -2.643788179992691 6.0
    vertex -5.93804547467691 -2.643788179992691 -0.15
  endloop
endfacet
facet normal 0.25881904510251535 -0.9659258262890699 -8.167206687065354e-19
  outer loop
    vertex 2.008610463437121 -6.18186735591851 6.0
    vertex 1.3514259903154 -6.357959404769744 -0.15
    vertex 2.008610463437121 -6.18186735591851 -0.15
  endloop
endfacet
facet normal 0.25881904510251535 -0.9659258262890699 -8.167206687065354e-19
  outer loop
    vertex 1.3514259903154 -6.357959404769744 -0.15
    vertex 2.008610463437121 -6.18186735591851 6.0
    vertex 1.3514259903154 -6.357959404769744 6.0
  endloop
endfacet
facet normal 0.1564344650402247 -0.9876883405951387 4.429119952897711e-32
  outer loop
    vertex 1.3514259903154 -6.357959404769744 6.0
    vertex 0.6794350112397132 -6.464392319893779 -0.15
    vertex 1.3514259903154 -6.357959404769744 -0.15
  endloop
endfacet
facet normal 0.1564344650402247 -0.9876883405951387 4.429119952897711e-32
  outer loop
    vertex 0.6794350112397132 -6.464392319893779 -0.15
    vertex 1.3514259903154 -6.357959404769744 6.0
    vertex 0.6794350112397132 -6.464392319893779 6.0
  endloop
endfacet
facet normal -0.9335804264972022 -0.3583679495452993 3.9436009741929933e-19
  outer loop
    vertex -6.1818673559185005 -2.0086104634371496 6.0
    vertex -5.93804547467691 -2.643788179992691 -0.15
    vertex -5.93804547467691 -2.643788179992691 6.0
  endloop
endfacet
facet normal -0.9335804264972022 -0.3583679495452993 3.9436009741929933e-19
  outer loop
    vertex -5.93804547467691 -2.643788179992691 -0.15
    vertex -6.1818673559185005 -2.0086104634371496 6.0
    vertex -6.1818673559185005 -2.0086104634371496 -0.15
  endloop
endfacet
facet normal 0.9335804264972024 0.3583679495452988 -2.9982014269426937e-18
  outer loop
    vertex 5.938045474676911 2.6437881799926872 -0.15
    vertex 6.181867355918502 2.0086104634371447 6.0
    vertex 6.181867355918502 2.0086104634371447 -0.15
  endloop
endfacet
facet normal 0.9335804264972024 0.3583679495452988 -2.9982014269426937e-18
  outer loop
    vertex 6.181867355918502 2.0086104634371447 6.0
    vertex 5.938045474676911 2.6437881799926872 -0.15
    vertex 5.938045474676911 2.6437881799926872 6.0
  endloop
endfacet
facet normal 0.7771459614569718 0.6293203910498364 1.4594045189745604e-18
  outer loop
    vertex 4.830441365603074 4.349348941332566 -0.15
    vertex 5.258610463437168 3.820604139901062 6.0
    vertex 5.258610463437168 3.820604139901062 -0.15
  endloop
endfacet
facet normal 0.7771459614569718 0.6293203910498364 1.4594045189745604e-18
  outer loop
    vertex 5.258610463437168 3.820604139901062 6.0
    vertex 4.830441365603074 4.349348941332566 -0.15
    vertex 4.830441365603074 4.349348941332566 6.0
  endloop
endfacet
facet normal 0.7771459614569701 -0.6293203910498383 -1.2261678213678438e-18
  outer loop
    vertex 5.25861046343715 -3.820604139901086 -0.15
    vertex 4.830441365603053 -4.34934894133259 6.0
    vertex 4.830441365603053 -4.34934894133259 -0.15
  endloop
endfacet
facet normal 0.7771459614569701 -0.6293203910498383 -1.2261678213678438e-18
  outer loop
    vertex 4.830441365603053 -4.34934894133259 6.0
    vertex 5.25861046343715 -3.820604139901086 -0.15
    vertex 5.25861046343715 -3.820604139901086 6.0
  endloop
endfacet
facet normal -0.45399049973955097 -0.8910065241883658 8.500094411397356e-32
  outer loop
    vertex -2.643788179992724 -5.938045474676896 6.0
    vertex -3.2500000000000195 -5.629165124598839 -0.15
    vertex -2.643788179992724 -5.938045474676896 -0.15
  endloop
endfacet
facet normal -0.45399049973955097 -0.8910065241883658 8.500094411397356e-32
  outer loop
    vertex -3.2500000000000195 -5.629165124598839 -0.15
    vertex -2.643788179992724 -5.938045474676896 6.0
    vertex -3.2500000000000195 -5.629165124598839 6.0
  endloop
endfacet
facet normal 0.6293203910498398 0.7771459614569689 2.2190989451291544e-18
  outer loop
    vertex 3.8206041399010893 5.258610463437148 6.0
    vertex 4.3493489413325905 4.8304413656030505 -0.15
    vertex 3.8206041399010893 5.258610463437148 -0.15
  endloop
endfacet
facet normal 0.6293203910498398 0.7771459614569689 2.2190989451291544e-18
  outer loop
    vertex 4.3493489413325905 4.8304413656030505 -0.15
    vertex 3.8206041399010893 5.258610463437148 6.0
    vertex 4.3493489413325905 4.8304413656030505 6.0
  endloop
endfacet
facet normal 0.07845909572784181 -0.9969173337331283 1.5703625391817038e-17
  outer loop
    vertex 0.14654067748024321 2.7961626973128015 6.0
    vertex 2.012584422706189e-16 2.784629695875871 -0.15
    vertex 0.14654067748024321 2.7961626973128015 -0.15
  endloop
endfacet
facet normal 0.07845909572784181 -0.9969173337331283 1.5703625391817038e-17
  outer loop
    vertex 2.012584422706189e-16 2.784629695875871 -0.15
    vertex 0.14654067748024321 2.7961626973128015 6.0
    vertex -0.582152734289725 2.738813282054653 -0.15
  endloop
endfacet
facet normal 0.07845909572784181 -0.9969173337331283 1.5703625391817038e-17
  outer loop
    vertex -0.582152734289725 2.738813282054653 -0.15
    vertex 0.14654067748024321 2.7961626973128015 6.0
    vertex -0.582152734289725 2.738813282054653 6.0
  endloop
endfacet
facet normal -0.4305110968082965 -0.90258528434986 -2.2334728795668975e-31
  outer loop
    vertex 1.524989298042074 2.3482775902471804 6.0
    vertex 0.8652475842498522 2.662958245626424 -0.15
    vertex 1.524989298042074 2.3482775902471804 -0.15
  endloop
endfacet
facet normal -0.4305110968082965 -0.90258528434986 -2.2334728795668975e-31
  outer loop
    vertex 0.8652475842498522 2.662958245626424 -0.15
    vertex 1.524989298042074 2.3482775902471804 6.0
    vertex 0.8652475842498522 2.662958245626424 6.0
  endloop
endfacet
facet normal -0.1822355254921492 -0.9832549075639543 -4.94348939961699e-17
  outer loop
    vertex 0.8652475842498522 2.662958245626424 6.0
    vertex 0.5773701872893047 2.716313167436469 -0.15
    vertex 0.8652475842498522 2.662958245626424 -0.15
  endloop
endfacet
facet normal -0.1822355254921492 -0.9832549075639543 -4.94348939961699e-17
  outer loop
    vertex 0.5773701872893047 2.716313167436469 -0.15
    vertex 0.8652475842498522 2.662958245626424 6.0
    vertex 0.14654067748024321 2.7961626973128015 -0.15
  endloop
endfacet
facet normal -0.1822355254921492 -0.9832549075639543 -4.94348939961699e-17
  outer loop
    vertex 0.14654067748024321 2.7961626973128015 -0.15
    vertex 0.8652475842498522 2.662958245626424 6.0
    vertex 0.14654067748024321 2.7961626973128015 6.0
  endloop
endfacet
facet normal 0.33380685923376896 -0.9426414910921792 -6.977937702470769e-32
  outer loop
    vertex -0.582152734289725 2.738813282054653 6.0
    vertex -1.2711733992707306 2.4948182677274287 -0.15
    vertex -0.582152734289725 2.738813282054653 -0.15
  endloop
endfacet
facet normal 0.33380685923376896 -0.9426414910921792 -6.977937702470769e-32
  outer loop
    vertex -1.2711733992707306 2.4948182677274287 -0.15
    vertex -0.582152734289725 2.738813282054653 6.0
    vertex -1.2711733992707306 2.4948182677274287 6.0
  endloop
endfacet
endsolid Spacer
