solid vrail-spacer
facet normal -2.3054615812094463e-16 3.2338362313449278e-15 1.0
  outer loop
    vertex 25.000000000000004 7.582467008191748e-14 11.50000000000001
    vertex 5.0000000000000036 7.000000000000137 11.49999999999994
    vertex 4.9999999999999725 3.3525172843699014e-14 11.500000000000004
  endloop
endfacet
facet normal -2.3054615812094463e-16 3.2338362313449278e-15 1.0
  outer loop
    vertex 5.0000000000000036 7.000000000000137 11.49999999999994
    vertex 25.000000000000004 7.582467008191748e-14 11.50000000000001
    vertex 7.000000000000004 7.000000000000137 11.499999999999934
  endloop
endfacet
facet normal -2.3054615812094463e-16 3.2338362313449278e-15 1.0
  outer loop
    vertex 7.000000000000004 7.000000000000137 11.499999999999934
    vertex 25.000000000000004 7.582467008191748e-14 11.50000000000001
    vertex 12.49999999999998 15.000000000000108 11.499999999999929
  endloop
endfacet
facet normal -2.3054615812094463e-16 3.2338362313449278e-15 1.0
  outer loop
    vertex 12.49999999999998 15.000000000000108 11.499999999999929
    vertex 25.000000000000004 7.582467008191748e-14 11.50000000000001
    vertex 17.500000000000007 15.000000000000114 11.499999999999929
  endloop
endfacet
facet normal -2.3054615812094463e-16 3.2338362313449278e-15 1.0
  outer loop
    vertex 17.500000000000007 15.000000000000114 11.499999999999929
    vertex 25.000000000000004 7.582467008191748e-14 11.50000000000001
    vertex 22.999999999999986 7.000000000000141 11.49999999999994
  endloop
endfacet
facet normal -2.3054615812094463e-16 3.2338362313449278e-15 1.0
  outer loop
    vertex 17.500000000000007 15.000000000000114 11.499999999999929
    vertex 22.999999999999986 7.000000000000141 11.49999999999994
    vertex 22.999999999999982 13.000000000000142 11.49999999999994
  endloop
endfacet
facet normal -2.3054615812094463e-16 3.2338362313449278e-15 1.0
  outer loop
    vertex 22.999999999999986 7.000000000000141 11.49999999999994
    vertex 25.000000000000004 7.582467008191748e-14 11.50000000000001
    vertex 24.999999999999986 7.000000000000141 11.49999999999994
  endloop
endfacet
facet normal -2.3054615812094463e-16 3.2338362313449278e-15 1.0
  outer loop
    vertex 17.500000000000007 15.000000000000114 11.499999999999929
    vertex 17.499999999999993 20.00000000000011 11.499999999999924
    vertex 17.49999999999999 19.000000000000096 11.499999999999922
  endloop
endfacet
facet normal -2.3054615812094463e-16 3.2338362313449278e-15 1.0
  outer loop
    vertex 17.499999999999993 20.00000000000011 11.499999999999924
    vertex 17.500000000000007 15.000000000000114 11.499999999999929
    vertex 24.99999999999999 20.00000000000011 11.499999999999927
  endloop
endfacet
facet normal -2.3054615812094463e-16 3.2338362313449278e-15 1.0
  outer loop
    vertex 24.99999999999999 20.00000000000011 11.499999999999927
    vertex 17.500000000000007 15.000000000000114 11.499999999999929
    vertex 22.999999999999982 13.000000000000142 11.49999999999994
  endloop
endfacet
facet normal -2.3054615812094463e-16 3.2338362313449278e-15 1.0
  outer loop
    vertex 24.99999999999999 20.00000000000011 11.499999999999927
    vertex 22.999999999999982 13.000000000000142 11.49999999999994
    vertex 24.999999999999982 13.000000000000142 11.49999999999994
  endloop
endfacet
facet normal -2.3054615812094463e-16 3.2338362313449278e-15 1.0
  outer loop
    vertex 24.99999999999999 20.00000000000011 11.499999999999927
    vertex 24.999999999999982 13.000000000000142 11.49999999999994
    vertex 25.000000000000004 19.000000000000117 11.499999999999924
  endloop
endfacet
facet normal -2.3054615812094463e-16 3.2338362313449278e-15 1.0
  outer loop
    vertex 5.000000000000002 13.000000000000137 11.49999999999994
    vertex 4.99999999999999 20.000000000000103 11.49999999999992
    vertex 4.999999999999964 19.00000000000011 11.499999999999918
  endloop
endfacet
facet normal -2.3054615812094463e-16 3.2338362313449278e-15 1.0
  outer loop
    vertex 4.99999999999999 20.000000000000103 11.49999999999992
    vertex 5.000000000000002 13.000000000000137 11.49999999999994
    vertex 12.499999999999995 20.000000000000103 11.499999999999922
  endloop
endfacet
facet normal -2.3054615812094463e-16 3.2338362313449278e-15 1.0
  outer loop
    vertex 12.499999999999995 20.000000000000103 11.499999999999922
    vertex 5.000000000000002 13.000000000000137 11.49999999999994
    vertex 7.000000000000001 13.000000000000137 11.499999999999934
  endloop
endfacet
facet normal -2.3054615812094463e-16 3.2338362313449278e-15 1.0
  outer loop
    vertex 12.499999999999995 20.000000000000103 11.499999999999922
    vertex 7.000000000000001 13.000000000000137 11.499999999999934
    vertex 7.000000000000004 7.000000000000137 11.499999999999934
  endloop
endfacet
facet normal -2.3054615812094463e-16 3.2338362313449278e-15 1.0
  outer loop
    vertex 12.499999999999995 20.000000000000103 11.499999999999922
    vertex 7.000000000000004 7.000000000000137 11.499999999999934
    vertex 12.49999999999998 19.000000000000117 11.49999999999992
  endloop
endfacet
facet normal -2.3054615812094463e-16 3.2338362313449278e-15 1.0
  outer loop
    vertex 12.49999999999998 19.000000000000117 11.49999999999992
    vertex 7.000000000000004 7.000000000000137 11.499999999999934
    vertex 12.49999999999998 15.000000000000108 11.499999999999929
  endloop
endfacet
facet normal 4.265205468445405e-17 -1.0814327717005729e-15 1.0
  outer loop
    vertex 4.8000000000000105 1.8459764966616275e-13 11.49999999999994
    vertex 4.800000000000003 7.200000000000136 11.49999999999994
    vertex 4.600000000000011 1.8492811448833633e-13 11.49999999999994
  endloop
endfacet
facet normal 4.265205468445405e-17 -1.0814327717005729e-15 1.0
  outer loop
    vertex 4.600000000000003 7.400000000000137 11.49999999999994
    vertex 4.800000000000003 7.200000000000136 11.49999999999994
    vertex 6.600000000000005 7.400000000000137 11.499999999999934
  endloop
endfacet
facet normal 4.265205468445405e-17 -1.0814327717005729e-15 1.0
  outer loop
    vertex 4.800000000000003 7.200000000000136 11.49999999999994
    vertex 4.600000000000003 7.400000000000137 11.49999999999994
    vertex 4.600000000000011 1.8492811448833633e-13 11.49999999999994
  endloop
endfacet
facet normal 4.265205468445405e-17 -1.0814327717005729e-15 1.0
  outer loop
    vertex 6.600000000000005 7.400000000000137 11.499999999999934
    vertex 4.800000000000003 7.200000000000136 11.49999999999994
    vertex 6.800000000000004 7.200000000000136 11.499999999999934
  endloop
endfacet
facet normal 4.265205468445405e-17 -1.0814327717005729e-15 1.0
  outer loop
    vertex 6.600000000000005 7.400000000000137 11.499999999999934
    vertex 6.800000000000004 7.200000000000136 11.499999999999934
    vertex 6.800000000000002 12.800000000000137 11.499999999999934
  endloop
endfacet
facet normal 4.265205468445405e-17 -1.0814327717005729e-15 1.0
  outer loop
    vertex 4.600000000000001 12.600000000000138 11.49999999999994
    vertex 4.800000000000001 12.800000000000137 11.49999999999994
    vertex 4.799999999999995 20.20000000000009 11.49999999999994
  endloop
endfacet
facet normal 4.265205468445405e-17 -1.0814327717005729e-15 1.0
  outer loop
    vertex 4.800000000000001 12.800000000000137 11.49999999999994
    vertex 4.600000000000001 12.600000000000138 11.49999999999994
    vertex 6.600000000000002 12.600000000000138 11.499999999999934
  endloop
endfacet
facet normal 4.265205468445405e-17 -1.0814327717005729e-15 1.0
  outer loop
    vertex 4.800000000000001 12.800000000000137 11.49999999999994
    vertex 6.600000000000002 12.600000000000138 11.499999999999934
    vertex 6.800000000000002 12.800000000000137 11.499999999999934
  endloop
endfacet
facet normal 4.265205468445405e-17 -1.0814327717005729e-15 1.0
  outer loop
    vertex 6.800000000000002 12.800000000000137 11.499999999999934
    vertex 6.600000000000002 12.600000000000138 11.499999999999934
    vertex 6.600000000000005 7.400000000000137 11.499999999999934
  endloop
endfacet
facet normal 4.265205468445405e-17 -1.0814327717005729e-15 1.0
  outer loop
    vertex 4.599999999999996 20.40000000000009 11.49999999999994
    vertex 4.799999999999995 20.20000000000009 11.49999999999994
    vertex 12.899999999999988 20.4000000000001 11.499999999999979
  endloop
endfacet
facet normal 4.265205468445405e-17 -1.0814327717005729e-15 1.0
  outer loop
    vertex 4.799999999999995 20.20000000000009 11.49999999999994
    vertex 4.599999999999996 20.40000000000009 11.49999999999994
    vertex 4.600000000000001 12.600000000000138 11.49999999999994
  endloop
endfacet
facet normal 4.265205468445405e-17 -1.0814327717005729e-15 1.0
  outer loop
    vertex 12.899999999999988 20.4000000000001 11.499999999999979
    vertex 4.799999999999995 20.20000000000009 11.49999999999994
    vertex 12.699999999999987 20.200000000000102 11.499999999999979
  endloop
endfacet
facet normal 4.265205468445405e-17 -1.0814327717005729e-15 1.0
  outer loop
    vertex 12.899999999999988 20.4000000000001 11.499999999999979
    vertex 12.699999999999987 20.200000000000102 11.499999999999979
    vertex 12.699999999999992 15.200000000000049 11.500000000000012
  endloop
endfacet
facet normal 4.265205468445405e-17 -1.0814327717005729e-15 1.0
  outer loop
    vertex 12.899999999999988 20.4000000000001 11.499999999999979
    vertex 12.699999999999992 15.200000000000049 11.500000000000012
    vertex 12.899999999999993 15.400000000000048 11.500000000000012
  endloop
endfacet
facet normal 4.265205468445405e-17 -1.0814327717005729e-15 1.0
  outer loop
    vertex 12.899999999999993 15.400000000000048 11.500000000000012
    vertex 12.699999999999992 15.200000000000049 11.500000000000012
    vertex 17.300000000000004 15.200000000000076 11.499999999999993
  endloop
endfacet
facet normal 4.265205468445405e-17 -1.0814327717005729e-15 1.0
  outer loop
    vertex 12.899999999999993 15.400000000000048 11.500000000000012
    vertex 17.300000000000004 15.200000000000076 11.499999999999993
    vertex 17.100000000000005 15.400000000000077 11.49999999999999
  endloop
endfacet
facet normal 4.265205468445405e-17 -1.0814327717005729e-15 1.0
  outer loop
    vertex 17.100000000000005 15.400000000000077 11.49999999999999
    vertex 17.300000000000004 15.200000000000076 11.499999999999993
    vertex 17.299999999999994 20.200000000000085 11.499999999999936
  endloop
endfacet
facet normal 4.265205468445405e-17 -1.0814327717005729e-15 1.0
  outer loop
    vertex 23.199999999999985 7.2000000000001405 11.49999999999994
    vertex 23.399999999999984 7.400000000000142 11.49999999999994
    vertex 23.39999999999998 12.600000000000144 11.49999999999994
  endloop
endfacet
facet normal 4.265205468445405e-17 -1.0814327717005729e-15 1.0
  outer loop
    vertex 23.399999999999984 7.400000000000142 11.49999999999994
    vertex 23.199999999999985 7.2000000000001405 11.49999999999994
    vertex 25.199999999999985 7.2000000000001405 11.49999999999994
  endloop
endfacet
facet normal 4.265205468445405e-17 -1.0814327717005729e-15 1.0
  outer loop
    vertex 23.399999999999984 7.400000000000142 11.49999999999994
    vertex 25.199999999999985 7.2000000000001405 11.49999999999994
    vertex 25.399999999999984 7.400000000000142 11.49999999999994
  endloop
endfacet
facet normal 4.265205468445405e-17 -1.0814327717005729e-15 1.0
  outer loop
    vertex 25.399999999999984 7.400000000000142 11.49999999999994
    vertex 25.199999999999985 7.2000000000001405 11.49999999999994
    vertex 25.199999999999992 1.9171365883696722e-13 11.49999999999994
  endloop
endfacet
facet normal 4.265205468445405e-17 -1.0814327717005729e-15 1.0
  outer loop
    vertex 25.399999999999984 7.400000000000142 11.49999999999994
    vertex 25.199999999999992 1.9171365883696722e-13 11.49999999999994
    vertex 25.39999999999999 1.9228646452873475e-13 11.49999999999994
  endloop
endfacet
facet normal 4.265205468445405e-17 -1.0814327717005729e-15 1.0
  outer loop
    vertex 23.19999999999998 12.800000000000143 11.49999999999994
    vertex 23.39999999999998 12.600000000000144 11.49999999999994
    vertex 25.19999999999998 12.800000000000143 11.49999999999994
  endloop
endfacet
facet normal 4.265205468445405e-17 -1.0814327717005729e-15 1.0
  outer loop
    vertex 23.39999999999998 12.600000000000144 11.49999999999994
    vertex 23.19999999999998 12.800000000000143 11.49999999999994
    vertex 23.199999999999985 7.2000000000001405 11.49999999999994
  endloop
endfacet
facet normal 4.265205468445405e-17 -1.0814327717005729e-15 1.0
  outer loop
    vertex 25.19999999999998 12.800000000000143 11.49999999999994
    vertex 23.39999999999998 12.600000000000144 11.49999999999994
    vertex 25.39999999999998 12.600000000000144 11.49999999999994
  endloop
endfacet
facet normal 4.265205468445405e-17 -1.0814327717005729e-15 1.0
  outer loop
    vertex 25.19999999999998 12.800000000000143 11.49999999999994
    vertex 25.39999999999998 12.600000000000144 11.49999999999994
    vertex 25.399999999999977 20.40000000000009 11.49999999999994
  endloop
endfacet
facet normal 4.265205468445405e-17 -1.0814327717005729e-15 1.0
  outer loop
    vertex 17.099999999999994 20.400000000000084 11.499999999999934
    vertex 17.299999999999994 20.200000000000085 11.499999999999936
    vertex 25.399999999999977 20.40000000000009 11.49999999999994
  endloop
endfacet
facet normal 4.265205468445405e-17 -1.0814327717005729e-15 1.0
  outer loop
    vertex 17.299999999999994 20.200000000000085 11.499999999999936
    vertex 17.099999999999994 20.400000000000084 11.499999999999934
    vertex 17.100000000000005 15.400000000000077 11.49999999999999
  endloop
endfacet
facet normal 4.265205468445405e-17 -1.0814327717005729e-15 1.0
  outer loop
    vertex 25.399999999999977 20.40000000000009 11.49999999999994
    vertex 17.299999999999994 20.200000000000085 11.499999999999936
    vertex 25.199999999999978 20.20000000000009 11.49999999999994
  endloop
endfacet
facet normal 4.265205468445405e-17 -1.0814327717005729e-15 1.0
  outer loop
    vertex 25.399999999999977 20.40000000000009 11.49999999999994
    vertex 25.199999999999978 20.20000000000009 11.49999999999994
    vertex 25.19999999999998 12.800000000000143 11.49999999999994
  endloop
endfacet
facet normal 1.0 -2.8199664825480458e-15 7.78212200599215e-29
  outer loop
    vertex 17.49999999999999 20.000000000000036 9.999999999999948
    vertex 17.49999999999999 19.000000000000096 11.499999999999922
    vertex 17.49999999999999 19.00000000000009 9.99999999999994
  endloop
endfacet
facet normal 1.0 -2.8199664825480458e-15 7.78212200599215e-29
  outer loop
    vertex 17.49999999999999 19.000000000000096 11.499999999999922
    vertex 17.49999999999999 20.000000000000036 9.999999999999948
    vertex 17.499999999999993 20.00000000000011 11.499999999999924
  endloop
endfacet
facet normal 3.46890367980548e-16 -4.30279893023446e-15 -1.0
  outer loop
    vertex 27.99999999999997 24.000000000000114 -9.269329591278502e-14
    vertex 1.9999999999999998 1.7172420892682373e-16 8.812395257961921e-17
    vertex 1.9999999999999931 24.000000000000135 -1.008809979996529e-13
  endloop
endfacet
facet normal 3.46890367980548e-16 -4.30279893023446e-15 -1.0
  outer loop
    vertex 1.9999999999999998 1.7172420892682373e-16 8.812395257961921e-17
    vertex 27.99999999999997 24.000000000000114 -9.269329591278502e-14
    vertex 4.999999999999977 -1.6743550990128142e-14 4.414412126032167e-15
  endloop
endfacet
facet normal 3.46890367980548e-16 -4.30279893023446e-15 -1.0
  outer loop
    vertex 4.999999999999977 -1.6743550990128142e-14 4.414412126032167e-15
    vertex 27.99999999999997 24.000000000000114 -9.269329591278502e-14
    vertex 25.000000000000004 2.5555946248090322e-14 1.1900962107254189e-14
  endloop
endfacet
facet normal 3.46890367980548e-16 -4.30279893023446e-15 -1.0
  outer loop
    vertex 25.000000000000004 2.5555946248090322e-14 1.1900962107254189e-14
    vertex 27.99999999999997 24.000000000000114 -9.269329591278502e-14
    vertex 28.000000000000004 1.686104959356764e-14 9.516611291768526e-15
  endloop
endfacet
facet normal 1.0 1.879977655031929e-15 9.808579069731718e-16
  outer loop
    vertex 27.99999999999997 24.000000000000114 -9.269329591278502e-14
    vertex 28.000000000000004 1.8625869887763527e-13 11.49999999999994
    vertex 28.000000000000004 1.686104959356764e-14 9.516611291768526e-15
  endloop
endfacet
facet normal 1.0 1.879977655031929e-15 9.808579069731718e-16
  outer loop
    vertex 28.000000000000004 1.8625869887763527e-13 11.49999999999994
    vertex 27.99999999999997 24.000000000000114 -9.269329591278502e-14
    vertex 27.99999999999995 24.00000000000014 11.499999999999996
  endloop
endfacet
facet normal 6.507614959725933e-16 1.0 -1.7165013372030548e-15
  outer loop
    vertex 1.9999999999999971 24.00000000000015 11.499999999999984
    vertex 27.99999999999997 24.000000000000114 -9.269329591278502e-14
    vertex 1.9999999999999931 24.000000000000135 -1.008809979996529e-13
  endloop
endfacet
facet normal 6.507614959725933e-16 1.0 -1.7165013372030548e-15
  outer loop
    vertex 27.99999999999997 24.000000000000114 -9.269329591278502e-14
    vertex 1.9999999999999971 24.00000000000015 11.499999999999984
    vertex 27.99999999999995 24.00000000000014 11.499999999999996
  endloop
endfacet
facet normal 7.601904984443565e-15 -1.0 1.2597697230534885e-14
  outer loop
    vertex 28.000000000000004 1.8625869887763527e-13 11.49999999999994
    vertex 25.000000000000004 2.5555946248090322e-14 1.1900962107254189e-14
    vertex 28.000000000000004 1.686104959356764e-14 9.516611291768526e-15
  endloop
endfacet
facet normal 7.601904984443565e-15 -1.0 1.2597697230534885e-14
  outer loop
    vertex 25.000000000000004 2.5555946248090322e-14 1.1900962107254189e-14
    vertex 28.000000000000004 1.8625869887763527e-13 11.49999999999994
    vertex 25.199999999999992 1.9171365883696722e-13 11.49999999999994
  endloop
endfacet
facet normal 7.601904984443565e-15 -1.0 1.2597697230534885e-14
  outer loop
    vertex 25.000000000000004 2.5555946248090322e-14 1.1900962107254189e-14
    vertex 25.199999999999992 1.9171365883696722e-13 11.49999999999994
    vertex 25.000000000000004 7.582467008191748e-14 11.50000000000001
  endloop
endfacet
facet normal 7.601904984443565e-15 -1.0 1.2597697230534885e-14
  outer loop
    vertex 25.199999999999992 1.9171365883696722e-13 11.49999999999994
    vertex 28.000000000000004 1.8625869887763527e-13 11.49999999999994
    vertex 25.39999999999999 1.9228646452873475e-13 11.49999999999994
  endloop
endfacet
facet normal -1.0 -8.078028986465388e-17 -7.662952398227642e-17
  outer loop
    vertex 1.9999999999999942 1.766192896993642e-13 11.49999999999994
    vertex 1.9999999999999931 24.000000000000135 -1.008809979996529e-13
    vertex 1.9999999999999998 1.7172420892682373e-16 8.812395257961921e-17
  endloop
endfacet
facet normal -1.0 -8.078028986465388e-17 -7.662952398227642e-17
  outer loop
    vertex 1.9999999999999931 24.000000000000135 -1.008809979996529e-13
    vertex 1.9999999999999942 1.766192896993642e-13 11.49999999999994
    vertex 1.9999999999999971 24.00000000000015 11.499999999999984
  endloop
endfacet
facet normal -1.3806725965337828e-14 -1.0 1.4042391795147331e-14
  outer loop
    vertex 4.9999999999999725 3.3525172843699014e-14 11.500000000000004
    vertex 4.8000000000000105 1.8459764966616275e-13 11.49999999999994
    vertex 4.999999999999977 -1.6743550990128142e-14 4.414412126032167e-15
  endloop
endfacet
facet normal -1.3806725965337828e-14 -1.0 1.4042391795147331e-14
  outer loop
    vertex 4.999999999999977 -1.6743550990128142e-14 4.414412126032167e-15
    vertex 1.9999999999999942 1.766192896993642e-13 11.49999999999994
    vertex 1.9999999999999998 1.7172420892682373e-16 8.812395257961921e-17
  endloop
endfacet
facet normal -1.3806725965337828e-14 -1.0 1.4042391795147331e-14
  outer loop
    vertex 1.9999999999999942 1.766192896993642e-13 11.49999999999994
    vertex 4.999999999999977 -1.6743550990128142e-14 4.414412126032167e-15
    vertex 4.8000000000000105 1.8459764966616275e-13 11.49999999999994
  endloop
endfacet
facet normal -1.3806725965337828e-14 -1.0 1.4042391795147331e-14
  outer loop
    vertex 1.9999999999999942 1.766192896993642e-13 11.49999999999994
    vertex 4.8000000000000105 1.8459764966616275e-13 11.49999999999994
    vertex 4.600000000000011 1.8492811448833633e-13 11.49999999999994
  endloop
endfacet
facet normal 2.1149748619109186e-15 -1.0 4.3711933768545356e-15
  outer loop
    vertex 25.000000000000004 2.5555946248090322e-14 1.1900962107254189e-14
    vertex 4.9999999999999725 3.3525172843699014e-14 11.500000000000004
    vertex 4.999999999999977 -1.6743550990128142e-14 4.414412126032167e-15
  endloop
endfacet
facet normal 2.1149748619109186e-15 -1.0 4.3711933768545356e-15
  outer loop
    vertex 4.9999999999999725 3.3525172843699014e-14 11.500000000000004
    vertex 25.000000000000004 2.5555946248090322e-14 1.1900962107254189e-14
    vertex 25.000000000000004 7.582467008191748e-14 11.50000000000001
  endloop
endfacet
facet normal -1.0 5.287437154777474e-16 -4.229949723821787e-15
  outer loop
    vertex 12.49999999999998 15.000000000000108 11.499999999999929
    vertex 12.499999999999988 19.00000000000011 9.99999999999993
    vertex 12.499999999999984 15.00000000000009 9.999999999999888
  endloop
endfacet
facet normal -1.0 5.287437154777474e-16 -4.229949723821787e-15
  outer loop
    vertex 12.499999999999988 19.00000000000011 9.99999999999993
    vertex 12.49999999999998 15.000000000000108 11.499999999999929
    vertex 12.49999999999998 19.000000000000117 11.49999999999992
  endloop
endfacet
facet normal 1.0 3.8774539135033715e-15 -9.399888275160462e-16
  outer loop
    vertex 17.49999999999999 19.00000000000009 9.99999999999994
    vertex 17.500000000000007 15.000000000000114 11.499999999999929
    vertex 17.5 15.00000000000009 9.999999999999895
  endloop
endfacet
facet normal 1.0 3.8774539135033715e-15 -9.399888275160462e-16
  outer loop
    vertex 17.500000000000007 15.000000000000114 11.499999999999929
    vertex 17.49999999999999 19.00000000000009 9.99999999999994
    vertex 17.49999999999999 19.000000000000096 11.499999999999922
  endloop
endfacet
facet normal -1.0 1.3394840792103204e-14 -5.16993855133822e-15
  outer loop
    vertex 12.49999999999998 19.000000000000117 11.49999999999992
    vertex 12.500000000000002 20.000000000000032 9.999999999999941
    vertex 12.499999999999988 19.00000000000011 9.99999999999993
  endloop
endfacet
facet normal -1.0 1.3394840792103204e-14 -5.16993855133822e-15
  outer loop
    vertex 12.500000000000002 20.000000000000032 9.999999999999941
    vertex 12.49999999999998 19.000000000000117 11.49999999999992
    vertex 12.499999999999995 20.000000000000103 11.499999999999922
  endloop
endfacet
facet normal -1.0265820017884886e-16 1.3694275816160832e-15 1.0
  outer loop
    vertex 4.800000000000003 7.200000000000136 11.49999999999994
    vertex 5.0000000000000036 7.000000000000137 11.49999999999994
    vertex 6.800000000000004 7.200000000000136 11.499999999999934
  endloop
endfacet
facet normal -1.0265820017884886e-16 1.3694275816160832e-15 1.0
  outer loop
    vertex 5.0000000000000036 7.000000000000137 11.49999999999994
    vertex 4.800000000000003 7.200000000000136 11.49999999999994
    vertex 4.8000000000000105 1.8459764966616275e-13 11.49999999999994
  endloop
endfacet
facet normal -1.0265820017884886e-16 1.3694275816160832e-15 1.0
  outer loop
    vertex 5.0000000000000036 7.000000000000137 11.49999999999994
    vertex 4.8000000000000105 1.8459764966616275e-13 11.49999999999994
    vertex 4.9999999999999725 3.3525172843699014e-14 11.500000000000004
  endloop
endfacet
facet normal -1.0265820017884886e-16 1.3694275816160832e-15 1.0
  outer loop
    vertex 6.800000000000004 7.200000000000136 11.499999999999934
    vertex 5.0000000000000036 7.000000000000137 11.49999999999994
    vertex 7.000000000000004 7.000000000000137 11.499999999999934
  endloop
endfacet
facet normal -1.0265820017884886e-16 1.3694275816160832e-15 1.0
  outer loop
    vertex 6.800000000000004 7.200000000000136 11.499999999999934
    vertex 7.000000000000004 7.000000000000137 11.499999999999934
    vertex 7.000000000000001 13.000000000000137 11.499999999999934
  endloop
endfacet
facet normal -1.0265820017884886e-16 1.3694275816160832e-15 1.0
  outer loop
    vertex 4.800000000000001 12.800000000000137 11.49999999999994
    vertex 5.000000000000002 13.000000000000137 11.49999999999994
    vertex 4.999999999999964 19.00000000000011 11.499999999999918
  endloop
endfacet
facet normal -1.0265820017884886e-16 1.3694275816160832e-15 1.0
  outer loop
    vertex 5.000000000000002 13.000000000000137 11.49999999999994
    vertex 4.800000000000001 12.800000000000137 11.49999999999994
    vertex 6.800000000000002 12.800000000000137 11.499999999999934
  endloop
endfacet
facet normal -1.0265820017884886e-16 1.3694275816160832e-15 1.0
  outer loop
    vertex 5.000000000000002 13.000000000000137 11.49999999999994
    vertex 6.800000000000002 12.800000000000137 11.499999999999934
    vertex 7.000000000000001 13.000000000000137 11.499999999999934
  endloop
endfacet
facet normal -1.0265820017884886e-16 1.3694275816160832e-15 1.0
  outer loop
    vertex 7.000000000000001 13.000000000000137 11.499999999999934
    vertex 6.800000000000002 12.800000000000137 11.499999999999934
    vertex 6.800000000000004 7.200000000000136 11.499999999999934
  endloop
endfacet
facet normal -1.0265820017884886e-16 1.3694275816160832e-15 1.0
  outer loop
    vertex 12.49999999999998 15.000000000000108 11.499999999999929
    vertex 12.699999999999992 15.200000000000049 11.500000000000012
    vertex 12.49999999999998 19.000000000000117 11.49999999999992
  endloop
endfacet
facet normal -1.0265820017884886e-16 1.3694275816160832e-15 1.0
  outer loop
    vertex 12.699999999999992 15.200000000000049 11.500000000000012
    vertex 12.49999999999998 15.000000000000108 11.499999999999929
    vertex 17.500000000000007 15.000000000000114 11.499999999999929
  endloop
endfacet
facet normal -1.0265820017884886e-16 1.3694275816160832e-15 1.0
  outer loop
    vertex 12.49999999999998 19.000000000000117 11.49999999999992
    vertex 12.699999999999992 15.200000000000049 11.500000000000012
    vertex 12.499999999999995 20.000000000000103 11.499999999999922
  endloop
endfacet
facet normal -1.0265820017884886e-16 1.3694275816160832e-15 1.0
  outer loop
    vertex 12.499999999999995 20.000000000000103 11.499999999999922
    vertex 12.699999999999992 15.200000000000049 11.500000000000012
    vertex 12.699999999999987 20.200000000000102 11.499999999999979
  endloop
endfacet
facet normal -1.0265820017884886e-16 1.3694275816160832e-15 1.0
  outer loop
    vertex 12.699999999999992 15.200000000000049 11.500000000000012
    vertex 17.500000000000007 15.000000000000114 11.499999999999929
    vertex 17.300000000000004 15.200000000000076 11.499999999999993
  endloop
endfacet
facet normal -1.0265820017884886e-16 1.3694275816160832e-15 1.0
  outer loop
    vertex 17.300000000000004 15.200000000000076 11.499999999999993
    vertex 17.500000000000007 15.000000000000114 11.499999999999929
    vertex 17.49999999999999 19.000000000000096 11.499999999999922
  endloop
endfacet
facet normal -1.0265820017884886e-16 1.3694275816160832e-15 1.0
  outer loop
    vertex 22.999999999999986 7.000000000000141 11.49999999999994
    vertex 23.199999999999985 7.2000000000001405 11.49999999999994
    vertex 23.19999999999998 12.800000000000143 11.49999999999994
  endloop
endfacet
facet normal -1.0265820017884886e-16 1.3694275816160832e-15 1.0
  outer loop
    vertex 23.199999999999985 7.2000000000001405 11.49999999999994
    vertex 22.999999999999986 7.000000000000141 11.49999999999994
    vertex 24.999999999999986 7.000000000000141 11.49999999999994
  endloop
endfacet
facet normal -1.0265820017884886e-16 1.3694275816160832e-15 1.0
  outer loop
    vertex 23.199999999999985 7.2000000000001405 11.49999999999994
    vertex 24.999999999999986 7.000000000000141 11.49999999999994
    vertex 25.199999999999985 7.2000000000001405 11.49999999999994
  endloop
endfacet
facet normal -1.0265820017884886e-16 1.3694275816160832e-15 1.0
  outer loop
    vertex 25.199999999999985 7.2000000000001405 11.49999999999994
    vertex 24.999999999999986 7.000000000000141 11.49999999999994
    vertex 25.000000000000004 7.582467008191748e-14 11.50000000000001
  endloop
endfacet
facet normal -1.0265820017884886e-16 1.3694275816160832e-15 1.0
  outer loop
    vertex 25.199999999999985 7.2000000000001405 11.49999999999994
    vertex 25.000000000000004 7.582467008191748e-14 11.50000000000001
    vertex 25.199999999999992 1.9171365883696722e-13 11.49999999999994
  endloop
endfacet
facet normal -1.0265820017884886e-16 1.3694275816160832e-15 1.0
  outer loop
    vertex 22.999999999999982 13.000000000000142 11.49999999999994
    vertex 23.19999999999998 12.800000000000143 11.49999999999994
    vertex 24.999999999999982 13.000000000000142 11.49999999999994
  endloop
endfacet
facet normal -1.0265820017884886e-16 1.3694275816160832e-15 1.0
  outer loop
    vertex 23.19999999999998 12.800000000000143 11.49999999999994
    vertex 22.999999999999982 13.000000000000142 11.49999999999994
    vertex 22.999999999999986 7.000000000000141 11.49999999999994
  endloop
endfacet
facet normal -1.0265820017884886e-16 1.3694275816160832e-15 1.0
  outer loop
    vertex 24.999999999999982 13.000000000000142 11.49999999999994
    vertex 23.19999999999998 12.800000000000143 11.49999999999994
    vertex 25.19999999999998 12.800000000000143 11.49999999999994
  endloop
endfacet
facet normal -1.0265820017884886e-16 1.3694275816160832e-15 1.0
  outer loop
    vertex 24.999999999999982 13.000000000000142 11.49999999999994
    vertex 25.19999999999998 12.800000000000143 11.49999999999994
    vertex 25.000000000000004 19.000000000000117 11.499999999999924
  endloop
endfacet
facet normal -1.0265820017884886e-16 1.3694275816160832e-15 1.0
  outer loop
    vertex 25.000000000000004 19.000000000000117 11.499999999999924
    vertex 25.19999999999998 12.800000000000143 11.49999999999994
    vertex 25.199999999999978 20.20000000000009 11.49999999999994
  endloop
endfacet
facet normal -1.0265820017884886e-16 1.3694275816160832e-15 1.0
  outer loop
    vertex 17.299999999999994 20.200000000000085 11.499999999999936
    vertex 17.499999999999993 20.00000000000011 11.499999999999924
    vertex 25.199999999999978 20.20000000000009 11.49999999999994
  endloop
endfacet
facet normal -1.0265820017884886e-16 1.3694275816160832e-15 1.0
  outer loop
    vertex 17.499999999999993 20.00000000000011 11.499999999999924
    vertex 17.299999999999994 20.200000000000085 11.499999999999936
    vertex 17.300000000000004 15.200000000000076 11.499999999999993
  endloop
endfacet
facet normal -1.0265820017884886e-16 1.3694275816160832e-15 1.0
  outer loop
    vertex 17.499999999999993 20.00000000000011 11.499999999999924
    vertex 17.300000000000004 15.200000000000076 11.499999999999993
    vertex 17.49999999999999 19.000000000000096 11.499999999999922
  endloop
endfacet
facet normal -1.0265820017884886e-16 1.3694275816160832e-15 1.0
  outer loop
    vertex 25.199999999999978 20.20000000000009 11.49999999999994
    vertex 17.499999999999993 20.00000000000011 11.499999999999924
    vertex 24.99999999999999 20.00000000000011 11.499999999999927
  endloop
endfacet
facet normal -1.0265820017884886e-16 1.3694275816160832e-15 1.0
  outer loop
    vertex 25.199999999999978 20.20000000000009 11.49999999999994
    vertex 24.99999999999999 20.00000000000011 11.499999999999927
    vertex 25.000000000000004 19.000000000000117 11.499999999999924
  endloop
endfacet
facet normal -1.0265820017884886e-16 1.3694275816160832e-15 1.0
  outer loop
    vertex 4.799999999999995 20.20000000000009 11.49999999999994
    vertex 4.99999999999999 20.000000000000103 11.49999999999992
    vertex 12.699999999999987 20.200000000000102 11.499999999999979
  endloop
endfacet
facet normal -1.0265820017884886e-16 1.3694275816160832e-15 1.0
  outer loop
    vertex 4.99999999999999 20.000000000000103 11.49999999999992
    vertex 4.799999999999995 20.20000000000009 11.49999999999994
    vertex 4.800000000000001 12.800000000000137 11.49999999999994
  endloop
endfacet
facet normal -1.0265820017884886e-16 1.3694275816160832e-15 1.0
  outer loop
    vertex 4.99999999999999 20.000000000000103 11.49999999999992
    vertex 4.800000000000001 12.800000000000137 11.49999999999994
    vertex 4.999999999999964 19.00000000000011 11.499999999999918
  endloop
endfacet
facet normal -1.0265820017884886e-16 1.3694275816160832e-15 1.0
  outer loop
    vertex 12.699999999999987 20.200000000000102 11.499999999999979
    vertex 4.99999999999999 20.000000000000103 11.49999999999992
    vertex 12.499999999999995 20.000000000000103 11.499999999999922
  endloop
endfacet
facet normal -5.32852410298417e-17 -1.5622757007046997e-15 1.0
  outer loop
    vertex 4.60000000000001 1.6514428713421125e-13 23.99999999999994
    vertex 1.9999999999999971 24.000000000000128 23.999999999999986
    vertex 1.9999999999999953 1.58858235273101e-13 23.99999999999994
  endloop
endfacet
facet normal -5.32852410298417e-17 -1.5622757007046997e-15 1.0
  outer loop
    vertex 1.9999999999999971 24.000000000000128 23.999999999999986
    vertex 4.60000000000001 1.6514428713421125e-13 23.99999999999994
    vertex 4.600000000000003 7.400000000000118 23.99999999999994
  endloop
endfacet
facet normal -5.32852410298417e-17 -1.5622757007046997e-15 1.0
  outer loop
    vertex 1.9999999999999971 24.000000000000128 23.999999999999986
    vertex 4.600000000000003 7.400000000000118 23.99999999999994
    vertex 4.599999999999995 20.40000000000007 23.99999999999994
  endloop
endfacet
facet normal -5.32852410298417e-17 -1.5622757007046997e-15 1.0
  outer loop
    vertex 4.599999999999995 20.40000000000007 23.99999999999994
    vertex 4.600000000000003 7.400000000000118 23.99999999999994
    vertex 4.6000000000000005 12.600000000000119 23.99999999999994
  endloop
endfacet
facet normal -5.32852410298417e-17 -1.5622757007046997e-15 1.0
  outer loop
    vertex 4.600000000000003 7.400000000000118 23.99999999999994
    vertex 6.600000000000002 12.600000000000119 23.999999999999932
    vertex 4.6000000000000005 12.600000000000119 23.99999999999994
  endloop
endfacet
facet normal -5.32852410298417e-17 -1.5622757007046997e-15 1.0
  outer loop
    vertex 6.600000000000002 12.600000000000119 23.999999999999932
    vertex 4.600000000000003 7.400000000000118 23.99999999999994
    vertex 6.600000000000005 7.400000000000118 23.999999999999932
  endloop
endfacet
facet normal -5.32852410298417e-17 -1.5622757007046997e-15 1.0
  outer loop
    vertex 17.100000000000005 15.400000000000057 23.99999999999999
    vertex 17.099999999999994 20.400000000000063 23.999999999999932
    vertex 12.899999999999993 15.400000000000029 24.00000000000001
  endloop
endfacet
facet normal -5.32852410298417e-17 -1.5622757007046997e-15 1.0
  outer loop
    vertex 23.399999999999984 7.400000000000122 23.99999999999994
    vertex 25.39999999999998 12.600000000000124 23.99999999999994
    vertex 23.39999999999998 12.600000000000124 23.99999999999994
  endloop
endfacet
facet normal -5.32852410298417e-17 -1.5622757007046997e-15 1.0
  outer loop
    vertex 25.39999999999998 12.600000000000124 23.99999999999994
    vertex 23.399999999999984 7.400000000000122 23.99999999999994
    vertex 25.399999999999984 7.400000000000122 23.99999999999994
  endloop
endfacet
facet normal -5.32852410298417e-17 -1.5622757007046997e-15 1.0
  outer loop
    vertex 4.599999999999995 20.40000000000007 23.99999999999994
    vertex 27.99999999999995 24.000000000000117 23.999999999999996
    vertex 1.9999999999999971 24.000000000000128 23.999999999999986
  endloop
endfacet
facet normal -5.32852410298417e-17 -1.5622757007046997e-15 1.0
  outer loop
    vertex 27.99999999999995 24.000000000000117 23.999999999999996
    vertex 4.599999999999995 20.40000000000007 23.99999999999994
    vertex 12.899999999999988 20.40000000000008 23.99999999999998
  endloop
endfacet
facet normal -5.32852410298417e-17 -1.5622757007046997e-15 1.0
  outer loop
    vertex 27.99999999999995 24.000000000000117 23.999999999999996
    vertex 12.899999999999988 20.40000000000008 23.99999999999998
    vertex 17.099999999999994 20.400000000000063 23.999999999999932
  endloop
endfacet
facet normal -5.32852410298417e-17 -1.5622757007046997e-15 1.0
  outer loop
    vertex 17.099999999999994 20.400000000000063 23.999999999999932
    vertex 12.899999999999988 20.40000000000008 23.99999999999998
    vertex 12.899999999999993 15.400000000000029 24.00000000000001
  endloop
endfacet
facet normal -5.32852410298417e-17 -1.5622757007046997e-15 1.0
  outer loop
    vertex 27.99999999999995 24.000000000000117 23.999999999999996
    vertex 17.099999999999994 20.400000000000063 23.999999999999932
    vertex 25.399999999999977 20.40000000000007 23.99999999999994
  endloop
endfacet
facet normal -5.32852410298417e-17 -1.5622757007046997e-15 1.0
  outer loop
    vertex 27.99999999999995 24.000000000000117 23.999999999999996
    vertex 25.399999999999977 20.40000000000007 23.99999999999994
    vertex 25.39999999999998 12.600000000000124 23.99999999999994
  endloop
endfacet
facet normal -5.32852410298417e-17 -1.5622757007046997e-15 1.0
  outer loop
    vertex 27.99999999999995 24.000000000000117 23.999999999999996
    vertex 25.39999999999998 12.600000000000124 23.99999999999994
    vertex 25.399999999999984 7.400000000000122 23.99999999999994
  endloop
endfacet
facet normal -5.32852410298417e-17 -1.5622757007046997e-15 1.0
  outer loop
    vertex 27.99999999999995 24.000000000000117 23.999999999999996
    vertex 25.399999999999984 7.400000000000122 23.99999999999994
    vertex 25.39999999999999 1.7250263717460967e-13 23.99999999999994
  endloop
endfacet
facet normal -5.32852410298417e-17 -1.5622757007046997e-15 1.0
  outer loop
    vertex 27.99999999999995 24.000000000000117 23.999999999999996
    vertex 25.39999999999999 1.7250263717460967e-13 23.99999999999994
    vertex 28.000000000000004 1.6900705372228465e-13 23.99999999999994
  endloop
endfacet
facet normal 1.3590199915893569e-15 -1.0 -1.5843339689353682e-15
  outer loop
    vertex 12.899999999999988 20.4000000000001 11.499999999999979
    vertex 4.599999999999995 20.40000000000007 23.99999999999994
    vertex 4.599999999999996 20.40000000000009 11.49999999999994
  endloop
endfacet
facet normal 1.3590199915893569e-15 -1.0 -1.5843339689353682e-15
  outer loop
    vertex 4.599999999999995 20.40000000000007 23.99999999999994
    vertex 12.899999999999988 20.4000000000001 11.499999999999979
    vertex 12.899999999999988 20.40000000000008 23.99999999999998
  endloop
endfacet
facet normal -1.0 9.54676152945903e-17 4.229949723821861e-17
  outer loop
    vertex 1.9999999999999971 24.000000000000128 23.999999999999986
    vertex 1.9999999999999942 1.766192896993642e-13 11.49999999999994
    vertex 1.9999999999999953 1.58858235273101e-13 23.99999999999994
  endloop
endfacet
facet normal -1.0 9.54676152945903e-17 4.229949723821861e-17
  outer loop
    vertex 1.9999999999999942 1.766192896993642e-13 11.49999999999994
    vertex 1.9999999999999971 24.000000000000128 23.999999999999986
    vertex 1.9999999999999971 24.00000000000015 11.499999999999984
  endloop
endfacet
facet normal 1.0 7.230683288584397e-16 5.29794580476438e-17
  outer loop
    vertex 4.600000000000001 12.600000000000138 11.49999999999994
    vertex 4.599999999999995 20.40000000000007 23.99999999999994
    vertex 4.6000000000000005 12.600000000000119 23.99999999999994
  endloop
endfacet
facet normal 1.0 7.230683288584397e-16 5.29794580476438e-17
  outer loop
    vertex 4.599999999999995 20.40000000000007 23.99999999999994
    vertex 4.600000000000001 12.600000000000138 11.49999999999994
    vertex 4.599999999999996 20.40000000000009 11.49999999999994
  endloop
endfacet
facet normal 1.0 5.423012466438264e-16 5.297945804764351e-17
  outer loop
    vertex 6.600000000000005 7.400000000000137 11.499999999999934
    vertex 6.600000000000002 12.600000000000119 23.999999999999932
    vertex 6.600000000000005 7.400000000000118 23.999999999999932
  endloop
endfacet
facet normal 1.0 5.423012466438264e-16 5.297945804764351e-17
  outer loop
    vertex 6.600000000000002 12.600000000000119 23.999999999999932
    vertex 6.600000000000005 7.400000000000137 11.499999999999934
    vertex 6.600000000000002 12.600000000000138 11.499999999999934
  endloop
endfacet
facet normal 2.806707048092749e-15 -1.0 -1.5017952712155316e-15
  outer loop
    vertex 4.60000000000001 1.6514428713421125e-13 23.99999999999994
    vertex 1.9999999999999942 1.766192896993642e-13 11.49999999999994
    vertex 4.600000000000011 1.8492811448833633e-13 11.49999999999994
  endloop
endfacet
facet normal 2.806707048092749e-15 -1.0 -1.5017952712155316e-15
  outer loop
    vertex 1.9999999999999942 1.766192896993642e-13 11.49999999999994
    vertex 4.60000000000001 1.6514428713421125e-13 23.99999999999994
    vertex 1.9999999999999953 1.58858235273101e-13 23.99999999999994
  endloop
endfacet
facet normal 1.0 2.3499720687899195e-15 3.660137632429054e-30
  outer loop
    vertex 28.000000000000004 1.8625869887763527e-13 11.49999999999994
    vertex 27.99999999999995 24.000000000000117 23.999999999999996
    vertex 28.000000000000004 1.6900705372228465e-13 23.99999999999994
  endloop
endfacet
facet normal 1.0 2.3499720687899195e-15 3.660137632429054e-30
  outer loop
    vertex 27.99999999999995 24.000000000000117 23.999999999999996
    vertex 28.000000000000004 1.8625869887763527e-13 11.49999999999994
    vertex 27.99999999999995 24.00000000000014 11.499999999999996
  endloop
endfacet
facet normal 1.0 1.047960517163077e-15 5.639932965095962e-17
  outer loop
    vertex 4.600000000000011 1.8492811448833633e-13 11.49999999999994
    vertex 4.600000000000003 7.400000000000118 23.99999999999994
    vertex 4.60000000000001 1.6514428713421125e-13 23.99999999999994
  endloop
endfacet
facet normal 1.0 1.047960517163077e-15 5.639932965095962e-17
  outer loop
    vertex 4.600000000000003 7.400000000000118 23.99999999999994
    vertex 4.600000000000011 1.8492811448833633e-13 11.49999999999994
    vertex 4.600000000000003 7.400000000000137 11.49999999999994
  endloop
endfacet
facet normal -1.0 -1.1432296550869933e-15 -1.8342526821624972e-30
  outer loop
    vertex 25.399999999999984 7.400000000000122 23.99999999999994
    vertex 25.39999999999999 1.9228646452873475e-13 11.49999999999994
    vertex 25.39999999999999 1.7250263717460967e-13 23.99999999999994
  endloop
endfacet
facet normal -1.0 -1.1432296550869933e-15 -1.8342526821624972e-30
  outer loop
    vertex 25.39999999999999 1.9228646452873475e-13 11.49999999999994
    vertex 25.399999999999984 7.400000000000122 23.99999999999994
    vertex 25.399999999999984 7.400000000000142 11.49999999999994
  endloop
endfacet
facet normal -1.8314132891200853e-15 -1.0 -1.4814189003790285e-15
  outer loop
    vertex 28.000000000000004 1.6900705372228465e-13 23.99999999999994
    vertex 25.39999999999999 1.9228646452873475e-13 11.49999999999994
    vertex 28.000000000000004 1.8625869887763527e-13 11.49999999999994
  endloop
endfacet
facet normal -1.8314132891200853e-15 -1.0 -1.4814189003790285e-15
  outer loop
    vertex 25.39999999999999 1.9228646452873475e-13 11.49999999999994
    vertex 28.000000000000004 1.6900705372228465e-13 23.99999999999994
    vertex 25.39999999999999 1.7250263717460967e-13 23.99999999999994
  endloop
endfacet
facet normal 6.795099957946767e-16 -1.0 -1.5843339689353682e-15
  outer loop
    vertex 25.399999999999977 20.40000000000009 11.49999999999994
    vertex 17.099999999999994 20.400000000000063 23.999999999999932
    vertex 17.099999999999994 20.400000000000084 11.499999999999934
  endloop
endfacet
facet normal 6.795099957946767e-16 -1.0 -1.5843339689353682e-15
  outer loop
    vertex 17.099999999999994 20.400000000000063 23.999999999999932
    vertex 25.399999999999977 20.40000000000009 11.49999999999994
    vertex 25.399999999999977 20.40000000000007 23.99999999999994
  endloop
endfacet
facet normal -1.0 -1.1279865930191472e-15 -5.2979458047644434e-17
  outer loop
    vertex 12.899999999999988 20.40000000000008 23.99999999999998
    vertex 12.899999999999993 15.400000000000048 11.500000000000012
    vertex 12.899999999999993 15.400000000000029 24.00000000000001
  endloop
endfacet
facet normal -1.0 -1.1279865930191472e-15 -5.2979458047644434e-17
  outer loop
    vertex 12.899999999999993 15.400000000000048 11.500000000000012
    vertex 12.899999999999988 20.40000000000008 23.99999999999998
    vertex 12.899999999999988 20.4000000000001 11.499999999999979
  endloop
endfacet
facet normal -1.0 -5.423012466438263e-16 -5.2979458047643516e-17
  outer loop
    vertex 23.39999999999998 12.600000000000124 23.99999999999994
    vertex 23.399999999999984 7.400000000000142 11.49999999999994
    vertex 23.399999999999984 7.400000000000122 23.99999999999994
  endloop
endfacet
facet normal -1.0 -5.423012466438263e-16 -5.2979458047643516e-17
  outer loop
    vertex 23.399999999999984 7.400000000000142 11.49999999999994
    vertex 23.39999999999998 12.600000000000124 23.99999999999994
    vertex 23.39999999999998 12.600000000000144 11.49999999999994
  endloop
endfacet
facet normal -1.0 -7.230683288584402e-16 -5.29794580476438e-17
  outer loop
    vertex 25.399999999999977 20.40000000000007 23.99999999999994
    vertex 25.39999999999998 12.600000000000144 11.49999999999994
    vertex 25.39999999999998 12.600000000000124 23.99999999999994
  endloop
endfacet
facet normal -1.0 -7.230683288584402e-16 -5.29794580476438e-17
  outer loop
    vertex 25.39999999999998 12.600000000000144 11.49999999999994
    vertex 25.399999999999977 20.40000000000007 23.99999999999994
    vertex 25.399999999999977 20.40000000000009 11.49999999999994
  endloop
endfacet
facet normal 1.0 2.255973186038315e-15 5.2979458047646234e-17
  outer loop
    vertex 17.100000000000005 15.400000000000077 11.49999999999999
    vertex 17.099999999999994 20.400000000000063 23.999999999999932
    vertex 17.100000000000005 15.400000000000057 23.99999999999999
  endloop
endfacet
facet normal 1.0 2.255973186038315e-15 5.2979458047646234e-17
  outer loop
    vertex 17.099999999999994 20.400000000000063 23.999999999999932
    vertex 17.100000000000005 15.400000000000077 11.49999999999999
    vertex 17.099999999999994 20.400000000000084 11.499999999999934
  endloop
endfacet
facet normal -4.467768689559816e-30 -1.0 -1.5843339689353682e-15
  outer loop
    vertex 6.600000000000005 7.400000000000118 23.999999999999932
    vertex 4.600000000000003 7.400000000000137 11.49999999999994
    vertex 6.600000000000005 7.400000000000137 11.499999999999934
  endloop
endfacet
facet normal -4.467768689559816e-30 -1.0 -1.5843339689353682e-15
  outer loop
    vertex 4.600000000000003 7.400000000000137 11.49999999999994
    vertex 6.600000000000005 7.400000000000118 23.999999999999932
    vertex 4.600000000000003 7.400000000000118 23.99999999999994
  endloop
endfacet
facet normal 4.33840997315061e-16 1.0 1.804778548830654e-15
  outer loop
    vertex 1.9999999999999971 24.000000000000128 23.999999999999986
    vertex 27.99999999999995 24.00000000000014 11.499999999999996
    vertex 1.9999999999999971 24.00000000000015 11.499999999999984
  endloop
endfacet
facet normal 4.33840997315061e-16 1.0 1.804778548830654e-15
  outer loop
    vertex 27.99999999999995 24.00000000000014 11.499999999999996
    vertex 1.9999999999999971 24.000000000000128 23.999999999999986
    vertex 27.99999999999995 24.000000000000117 23.999999999999996
  endloop
endfacet
facet normal -0.0 -1.0 -1.5843339689353682e-15
  outer loop
    vertex 25.399999999999984 7.400000000000122 23.99999999999994
    vertex 23.399999999999984 7.400000000000142 11.49999999999994
    vertex 25.399999999999984 7.400000000000142 11.49999999999994
  endloop
endfacet
facet normal -0.0 -1.0 -1.5843339689353682e-15
  outer loop
    vertex 23.399999999999984 7.400000000000142 11.49999999999994
    vertex 25.399999999999984 7.400000000000122 23.99999999999994
    vertex 23.399999999999984 7.400000000000122 23.99999999999994
  endloop
endfacet
facet normal 4.467768689559818e-30 1.0 1.5843339689353684e-15
  outer loop
    vertex 4.600000000000001 12.600000000000138 11.49999999999994
    vertex 6.600000000000002 12.600000000000119 23.999999999999932
    vertex 6.600000000000002 12.600000000000138 11.499999999999934
  endloop
endfacet
facet normal 4.467768689559818e-30 1.0 1.5843339689353684e-15
  outer loop
    vertex 6.600000000000002 12.600000000000119 23.999999999999932
    vertex 4.600000000000001 12.600000000000138 11.49999999999994
    vertex 4.6000000000000005 12.600000000000119 23.99999999999994
  endloop
endfacet
facet normal -0.0 1.0 1.5843339689353682e-15
  outer loop
    vertex 23.39999999999998 12.600000000000124 23.99999999999994
    vertex 25.39999999999998 12.600000000000144 11.49999999999994
    vertex 23.39999999999998 12.600000000000144 11.49999999999994
  endloop
endfacet
facet normal -0.0 1.0 1.5843339689353682e-15
  outer loop
    vertex 25.39999999999998 12.600000000000144 11.49999999999994
    vertex 23.39999999999998 12.600000000000124 23.99999999999994
    vertex 25.39999999999998 12.600000000000124 23.99999999999994
  endloop
endfacet
facet normal 6.714205910828299e-15 -1.0 -1.5843339689353678e-15
  outer loop
    vertex 17.100000000000005 15.400000000000057 23.99999999999999
    vertex 12.899999999999993 15.400000000000048 11.500000000000012
    vertex 17.100000000000005 15.400000000000077 11.49999999999999
  endloop
endfacet
facet normal 6.714205910828299e-15 -1.0 -1.5843339689353678e-15
  outer loop
    vertex 12.899999999999993 15.400000000000048 11.500000000000012
    vertex 17.100000000000005 15.400000000000057 23.99999999999999
    vertex 12.899999999999993 15.400000000000029 24.00000000000001
  endloop
endfacet
endsolid vrail-spacer
